<svg width="20" height="20" viewBox="0 0 20 20" fill="none" xmlns="http://www.w3.org/2000/svg">
<g id="SVG">
<path id="Vector" fill-rule="evenodd" clip-rule="evenodd" d="M8.40323 3.24355C8.21044 3.40785 8.11404 3.49 8.01109 3.55901C7.77509 3.71718 7.51005 3.82696 7.23133 3.88199C7.10973 3.906 6.98348 3.91607 6.73098 3.93622C6.09655 3.98685 5.77933 4.01216 5.51468 4.10564C4.90257 4.32185 4.42109 4.80332 4.20489 5.41544C4.11141 5.68009 4.0861 5.99731 4.03546 6.63173C4.01531 6.88424 4.00524 7.01049 3.98123 7.13208C3.9262 7.4108 3.81642 7.67585 3.65825 7.91184C3.58925 8.0148 3.5071 8.11119 3.34279 8.30399C2.92999 8.78841 2.72358 9.03058 2.60255 9.28383C2.32259 9.86959 2.32259 10.5504 2.60255 11.1362C2.72358 11.3894 2.92999 11.6316 3.34279 12.116C3.50707 12.3088 3.58925 12.4052 3.65825 12.5081C3.81642 12.7441 3.9262 13.0092 3.98123 13.2879C4.00524 13.4095 4.01531 13.5358 4.03546 13.7883C4.0861 14.4227 4.11141 14.7399 4.20489 15.0046C4.42109 15.6167 4.90257 16.0982 5.51468 16.3144C5.77933 16.4078 6.09655 16.4331 6.73098 16.4838C6.98348 16.5039 7.10973 16.514 7.23133 16.538C7.51005 16.5931 7.77509 16.7029 8.01109 16.861C8.11404 16.93 8.21044 17.0122 8.40323 17.1764C8.88765 17.5893 9.12982 17.7957 9.38308 17.9167C9.96883 18.1967 10.6497 18.1967 11.2354 17.9167C11.4887 17.7957 11.7308 17.5893 12.2153 17.1764C12.408 17.0122 12.5045 16.93 12.6074 16.861C12.8434 16.7029 13.1084 16.5931 13.3872 16.538C13.5088 16.514 13.635 16.5039 13.8875 16.4838C14.5219 16.4331 14.8392 16.4078 15.1038 16.3144C15.7159 16.0982 16.1974 15.6167 16.4136 15.0046C16.507 14.7399 16.5324 14.4227 16.583 13.7883C16.6032 13.5358 16.6133 13.4095 16.6373 13.2879C16.6923 13.0092 16.8021 12.7441 16.9603 12.5081C17.0292 12.4052 17.1114 12.3088 17.2757 12.116C17.6885 11.6316 17.8949 11.3894 18.016 11.1362C18.2959 10.5504 18.2959 9.86959 18.016 9.28383C17.8949 9.03058 17.6885 8.78841 17.2757 8.30399C17.1114 8.11119 17.0292 8.0148 16.9603 7.91184C16.8021 7.67585 16.6923 7.4108 16.6373 7.13208C16.6133 7.01049 16.6032 6.88424 16.583 6.63173C16.5324 5.99731 16.507 5.68009 16.4136 5.41544C16.1974 4.80332 15.7159 4.32185 15.1038 4.10564C14.8392 4.01216 14.5219 3.98685 13.8875 3.93622C13.635 3.91607 13.5088 3.906 13.3872 3.88199C13.1084 3.82696 12.8434 3.71718 12.6074 3.55901C12.5045 3.49 12.408 3.40785 12.2153 3.24355C11.7308 2.83074 11.4887 2.62434 11.2354 2.5033C10.6497 2.22335 9.96883 2.22335 9.38308 2.5033C9.12982 2.62433 8.88765 2.83074 8.40323 3.24355ZM13.7716 8.51832C14.0232 8.2667 14.0232 7.85875 13.7716 7.60713C13.52 7.35552 13.112 7.35552 12.8604 7.60713L9.02065 11.4469L7.75807 10.1844C7.50645 9.93276 7.0985 9.93276 6.84688 10.1844C6.59527 10.4359 6.59527 10.8439 6.84688 11.0956L8.56503 12.8137C8.81664 13.0653 9.22458 13.0653 9.47626 12.8137L13.7716 8.51832Z" fill="#2196F3"/>
</g>
</svg>
