<svg width="21" height="21" viewBox="0 0 21 21" fill="none" xmlns="http://www.w3.org/2000/svg">
<path d="M17.9239 11.4122H15.6966V1.90917C15.6966 1.49913 15.3642 1.16675 14.9542 1.16675H3.07543C2.66539 1.16675 2.33301 1.49913 2.33301 1.90917V17.9455C2.33301 19.1737 3.33216 20.1728 4.56028 20.1728H16.4391C17.6672 20.1728 18.6663 19.1737 18.6663 17.9455V12.1546C18.6663 11.7446 18.334 11.4122 17.9239 11.4122ZM3.81786 17.9455V2.6516H14.2118V17.9455C14.2118 18.2058 14.257 18.4556 14.3395 18.688H4.56028C4.15091 18.688 3.81786 18.3549 3.81786 17.9455ZM17.1815 17.9455C17.1815 18.3549 16.8484 18.688 16.4391 18.688C16.0297 18.688 15.6966 18.3549 15.6966 17.9455V12.897H17.1815V17.9455Z" fill="#262626"/>
<path d="M11.1125 4.28491H5.17308C4.76305 4.28491 4.43066 4.6173 4.43066 5.02734V7.99704C4.43066 8.40707 4.76305 8.73946 5.17308 8.73946H11.1125C11.5225 8.73946 11.8549 8.40707 11.8549 7.99704V5.02734C11.8549 4.6173 11.5225 4.28491 11.1125 4.28491ZM10.3701 7.25462H5.91552V5.76976H10.3701V7.25462Z" fill="#262626"/>
<path d="M11.1125 10.2244H5.17308C4.76305 10.2244 4.43066 10.5567 4.43066 10.9668C4.43066 11.3768 4.76305 11.7092 5.17308 11.7092H11.1125C11.5225 11.7092 11.8549 11.3768 11.8549 10.9668C11.8549 10.5567 11.5225 10.2244 11.1125 10.2244Z" fill="#262626"/>
<path d="M11.1125 13.1946H5.17308C4.76305 13.1946 4.43066 13.527 4.43066 13.9369C4.43066 14.347 4.76305 14.6794 5.17308 14.6794H11.1125C11.5225 14.6794 11.8549 14.347 11.8549 13.9369C11.8549 13.527 11.5225 13.1946 11.1125 13.1946Z" fill="#262626"/>
</svg>
