<svg width="22" height="22" viewBox="0 0 22 22" fill="none" xmlns="http://www.w3.org/2000/svg">
<path d="M5.49967 16.4996C7.52472 16.4996 9.16633 14.858 9.16633 12.8329C9.16633 10.8079 7.52472 9.16626 5.49967 9.16626C3.47463 9.16626 1.83301 10.8079 1.83301 12.8329C1.83301 14.858 3.47463 16.4996 5.49967 16.4996Z" stroke="#262626" stroke-width="1.5" stroke-linecap="round" stroke-linejoin="round"/>
<path d="M16.4996 16.4996C18.5247 16.4996 20.1664 14.858 20.1664 12.8329C20.1664 10.8079 18.5247 9.16626 16.4996 9.16626C14.4746 9.16626 12.833 10.8079 12.833 12.8329C12.833 14.858 14.4746 16.4996 16.4996 16.4996Z" stroke="#262626" stroke-width="1.5" stroke-linecap="round" stroke-linejoin="round"/>
<path d="M9.16633 12.8334L9.35976 12.7361C9.86893 12.4816 10.4304 12.349 10.9997 12.349C11.569 12.349 12.1304 12.4816 12.6396 12.7361L12.833 12.8334M17.4164 5.5L20.0179 11.5711C20.1158 11.7994 20.1662 12.0451 20.1664 12.2934V12.8334M4.58301 5.5L1.98151 11.5711C1.88371 11.799 1.83319 12.0445 1.83301 12.2925V12.8334" stroke="#262626" stroke-width="1.5" stroke-linecap="round" stroke-linejoin="round"/>
</svg>
