<svg width="16" height="16" viewBox="0 0 16 16" fill="none" xmlns="http://www.w3.org/2000/svg">
<g id="SVG">
<g id="Page-1">
<g id="Dribbble-Light-Preview">
<g id="icons">
<path id="like-[#1386]" fill-rule="evenodd" clip-rule="evenodd" d="M0.0800781 8.01516V13.7294C0.0800781 14.5187 0.751333 15.143 1.58008 15.143H3.08008V6.57159H1.58008C0.751333 6.57159 0.0800781 7.22587 0.0800781 8.01516ZM15.0268 8.968L13.7233 13.6358C13.5088 14.5223 12.6801 15.143 11.7246 15.143H4.58008V6.58659L5.86933 2.16158C6.02158 1.22087 7.04757 0.589434 8.08707 0.969434C8.70882 1.19729 9.08007 1.81371 9.08007 2.44871V5.8723C9.08007 6.26659 9.41607 6.57159 9.83007 6.57159H13.0281C14.3473 6.57159 15.3231 7.74443 15.0268 8.968Z" fill="#474747"/>
</g>
</g>
</g>
</g>
</svg>
