<svg width="18" height="18" viewBox="0 0 18 18" fill="none" xmlns="http://www.w3.org/2000/svg">
<g id="SVG">
<path id="Vector" fill-rule="evenodd" clip-rule="evenodd" d="M15.8257 6.00265C15.7832 5.99997 15.7369 5.99999 15.689 6L15.677 6.00001H13.7956C12.2449 6.00001 10.918 7.22068 10.918 8.8125C10.918 10.4043 12.2449 11.625 13.7956 11.625H15.677H15.689C15.7369 11.625 15.7832 11.6251 15.8257 11.6224C16.4557 11.5826 17.0127 11.0897 17.0596 10.4012C17.0626 10.356 17.0626 10.3073 17.0626 10.2623V10.25V7.37501V7.36277C17.0626 7.31766 17.0626 7.26899 17.0596 7.22385C17.0127 6.53536 16.4557 6.04243 15.8257 6.00265ZM13.6288 9.5625C14.0281 9.5625 14.3517 9.22673 14.3517 8.8125C14.3517 8.39828 14.0281 8.0625 13.6288 8.0625C13.2296 8.0625 12.9059 8.39828 12.9059 8.8125C12.9059 9.22673 13.2296 9.5625 13.6288 9.5625Z" fill="#474747"/>
<path id="Vector_2" fill-rule="evenodd" clip-rule="evenodd" d="M15.6884 12.75C15.8003 12.7471 15.8849 12.8506 15.8546 12.9583C15.704 13.4927 15.465 13.9481 15.0816 14.3316C14.5203 14.8928 13.8085 15.1419 12.9293 15.2602C12.0749 15.375 10.9832 15.375 9.6048 15.375H8.0202C6.64187 15.375 5.55014 15.375 4.69574 15.2602C3.81642 15.1419 3.10471 14.8928 2.54343 14.3316C1.98216 13.7703 1.73307 13.0585 1.61486 12.1793C1.49998 11.3249 1.49999 10.2332 1.5 8.8548V8.7702C1.49999 7.39187 1.49998 6.30014 1.61486 5.44574C1.73307 4.56642 1.98216 3.85471 2.54343 3.29343C3.10471 2.73216 3.81642 2.48307 4.69574 2.36486C5.55014 2.24998 6.64186 2.24999 8.0202 2.25H9.6048C10.9832 2.24999 12.0749 2.24998 12.9293 2.36486C13.8085 2.48307 14.5203 2.73216 15.0816 3.29343C15.465 3.67689 15.7039 4.13231 15.8546 4.66664C15.8849 4.77431 15.8003 4.8779 15.6884 4.875L13.7955 4.87501C11.668 4.87501 9.79283 6.55568 9.79283 8.8125C9.79283 11.0693 11.668 12.75 13.7955 12.75H15.6884ZM5.25 11.625C4.93934 11.625 4.6875 11.3731 4.6875 11.0625V6.5625C4.6875 6.25184 4.93934 6 5.25 6C5.56066 6 5.8125 6.25184 5.8125 6.5625V11.0625C5.8125 11.3731 5.56066 11.625 5.25 11.625Z" fill="#474747"/>
</g>
</svg>
