<svg xmlns="http://www.w3.org/2000/svg" width="60" height="26" viewBox="0 0 60 26" fill="none">
    <path fill-rule="evenodd" clip-rule="evenodd" d="M10.9632 3.90865C10.26 4.75309 9.13487 5.41911 8.00973 5.32397C7.8691 4.18221 8.42 2.96906 9.0645 2.21977C9.76776 1.35157 10.9984 0.73318 11.9946 0.685547C12.1118 1.87494 11.6547 3.04045 10.9632 3.90865ZM11.9827 5.54989C10.9915 5.49206 10.0871 5.85249 9.35653 6.14357C8.88641 6.33086 8.48834 6.48948 8.18542 6.48948C7.84552 6.48948 7.43106 6.32246 6.96561 6.13481C6.3557 5.88897 5.65842 5.60785 4.92727 5.62128C3.25134 5.64504 1.69258 6.6085 0.836958 8.14272C-0.921029 11.2112 0.379886 15.7546 2.07928 18.2521C2.91144 19.489 3.90769 20.8448 5.22026 20.7973C5.79773 20.7752 6.21315 20.5963 6.64306 20.4112C7.13807 20.1981 7.65223 19.9766 8.45507 19.9766C9.23002 19.9766 9.72169 20.1922 10.1937 20.3993C10.6424 20.5961 11.0734 20.7851 11.7132 20.7736C13.0727 20.7497 13.9283 19.5367 14.7604 18.2998C15.6584 16.9721 16.0531 15.6766 16.1129 15.4799L16.12 15.4571C16.12 15.4571 16.1074 15.4505 16.0878 15.4415C15.7876 15.302 13.4932 14.2361 13.4713 11.3777C13.4491 8.97853 15.291 7.76298 15.581 7.57161C15.5986 7.55997 15.6106 7.55217 15.616 7.54809C14.4439 5.78782 12.6156 5.59753 11.9827 5.54989ZM21.3941 20.6427V2.10087H28.2503C31.7898 2.10087 34.2627 4.57467 34.2627 8.19024C34.2627 11.8059 31.7429 14.3035 28.1566 14.3035H24.2304V20.6427H21.3941ZM24.2301 4.52716H27.5C29.9612 4.52716 31.3676 5.85921 31.3676 8.20224C31.3676 10.5451 29.9612 11.8892 27.4883 11.8892H24.2301V4.52716ZM43.6271 18.4187C42.8771 19.8696 41.2245 20.7854 39.4431 20.7854C36.806 20.7854 34.966 19.1917 34.966 16.7893C34.966 14.4105 36.7475 13.0428 40.0408 12.8407L43.5802 12.6265V11.6038C43.5802 10.0933 42.6074 9.2726 40.873 9.2726C39.4431 9.2726 38.4 10.0219 38.1891 11.1637H35.6341C35.716 8.76124 37.9429 7.01285 40.955 7.01285C44.2014 7.01285 46.3111 8.73736 46.3111 11.4135V20.6427H43.6858V18.4187H43.6271ZM40.2047 18.5852C38.6928 18.5852 37.7318 17.8478 37.7318 16.7179C37.7318 15.5524 38.6576 14.8744 40.4274 14.7673L43.5801 14.5652V15.6118C43.5801 17.3483 42.1268 18.5852 40.2047 18.5852ZM55.0189 21.3682C53.8821 24.6152 52.5812 25.6855 49.8153 25.6855C49.6043 25.6855 48.901 25.6618 48.7369 25.6142V23.3902C48.9127 23.4139 49.3465 23.4377 49.5691 23.4377C50.8231 23.4377 51.5264 22.9024 51.96 21.511L52.2178 20.6903L47.4126 7.19126H50.3778L53.718 18.1451H53.7766L57.1168 7.19126H60L55.0189 21.3682Z" fill="#F4F6F4"/>
</svg>