<svg xmlns="http://www.w3.org/2000/svg" width="90" height="91" viewBox="0 0 90 91" fill="none">
    <path fill-rule="evenodd" clip-rule="evenodd" d="M42.5062 55.3488V47.5805H46.5155C48.1584 47.5805 49.5451 47.0301 50.6755 45.9443L50.9468 45.6691C53.0118 43.4212 52.8762 39.9194 50.6755 37.8398C49.5752 36.7387 48.068 36.1424 46.5155 36.173H40.0796V55.3488H42.5062ZM42.5065 45.2256V38.5279H46.5767C47.4511 38.5279 48.2803 38.8643 48.8983 39.476C50.2099 40.7604 50.2399 42.9013 48.9736 44.2316C48.3556 44.8892 47.4812 45.2562 46.5767 45.2256H42.5065ZM62.2664 43.253C61.2264 42.2896 59.8096 41.8003 58.0159 41.8003C55.7099 41.8003 53.9765 42.6566 52.8309 44.354L54.9712 45.7149C55.755 44.5528 56.8252 43.9717 58.1818 43.9717C59.0409 43.9717 59.8698 44.2929 60.5179 44.8739C61.151 45.4245 61.5128 46.2196 61.5128 47.0607V47.6264C60.5782 47.1066 59.4026 46.8313 57.9556 46.8313C56.2675 46.8313 54.9109 47.2288 53.9011 48.0394C52.8912 48.8497 52.3788 49.9202 52.3788 51.2812C52.3486 52.5198 52.8762 53.6973 53.8107 54.4924C54.7602 55.3488 55.9661 55.7769 57.3828 55.7769C59.0559 55.7769 60.3823 55.0276 61.3922 53.529H61.4976V55.3488H63.8189V47.2594C63.8189 45.562 63.3064 44.2164 62.2664 43.253ZM55.68 52.9327C55.1826 52.5656 54.8811 51.9693 54.8811 51.3271C54.8811 50.6083 55.2128 50.0119 55.8609 49.5379C56.5242 49.0638 57.3534 48.8191 58.3332 48.8191C59.6901 48.8038 60.7452 49.1097 61.4991 49.7213C61.4991 50.7612 61.092 51.6634 60.2931 52.428C59.5695 53.162 58.5896 53.5749 57.5645 53.5749C56.886 53.5902 56.2227 53.3608 55.68 52.9327ZM69.034 61.1136L77.1431 42.2284H74.5053L70.7523 51.6481H70.7071L66.8636 42.2284H64.2259L69.5465 54.5077L66.532 61.1136H69.034Z" fill="#F4F6F4"/>
    <path d="M34.1279 45.8987C34.1279 45.1493 34.0676 44.4 33.9472 43.666H23.7129V47.9018H29.5761C29.3349 49.2629 28.5512 50.4862 27.4056 51.2507V54.0033H30.9025C32.9523 52.0918 34.1279 49.2629 34.1279 45.8987Z" fill="#4285F4"/>
    <path d="M23.7142 56.6645C26.6383 56.6645 29.1102 55.6858 30.9038 54.0037L27.407 51.2513C26.4273 51.9241 25.1763 52.3063 23.7142 52.3063C20.8806 52.3063 18.484 50.3642 17.6249 47.7646H14.0225V50.6089C15.8614 54.3249 19.6144 56.6645 23.7142 56.6645Z" fill="#34A853"/>
    <path d="M17.6244 47.7643C17.1722 46.4034 17.1722 44.9202 17.6244 43.5438V40.7148H14.0215C12.4687 43.8191 12.4687 47.4891 14.0215 50.5932L17.6244 47.7643Z" fill="#FBBC04"/>
    <path d="M23.7142 39.0023C25.2667 38.9717 26.7589 39.5681 27.8742 40.6538L30.9792 37.5036C29.0046 35.6381 26.4122 34.6136 23.7142 34.6442C19.6144 34.6442 15.8614 36.9991 14.0225 40.715L17.6249 43.5592C18.484 40.9443 20.8806 39.0023 23.7142 39.0023Z" fill="#EA4335"/>
</svg>