<svg xmlns="http://www.w3.org/2000/svg" width="58" height="19" viewBox="0 0 58 19" fill="none">
    <path d="M28.7261 0.927814L24.9705 18.4909H20.4255L24.1867 0.927814H28.7261ZM47.8455 12.2678L50.2361 5.67156L51.6142 12.2678H47.8455ZM52.9136 18.4909H57.1173L53.4498 0.927814H49.5705C49.5648 0.927814 49.5573 0.927814 49.5517 0.927814C48.6911 0.927814 47.9523 1.45469 47.6411 2.20281L47.6355 2.21594L40.8198 18.4909H45.5898L46.5386 15.8659H52.368L52.9136 18.4909ZM41.0542 12.7572C41.073 8.12031 34.6436 7.86531 34.6886 5.79344C34.7036 5.16344 35.3017 4.49219 36.6142 4.32156C36.858 4.29719 37.1392 4.28219 37.4242 4.28219C38.7573 4.28219 40.0211 4.58594 41.1461 5.12969L41.0955 5.10719L41.8923 1.38156C40.6305 0.892188 39.1698 0.607187 37.6436 0.601562H37.6417C33.1492 0.601562 29.9898 2.99219 29.9617 6.41031C29.9336 8.93781 32.2173 10.3459 33.9405 11.1897C35.7123 12.0503 36.3067 12.6034 36.2973 13.3703C36.2861 14.5516 34.8873 15.0691 33.5786 15.0897C33.5186 15.0916 33.4455 15.0916 33.3742 15.0916C31.7411 15.0916 30.2036 14.6809 28.8611 13.9553L28.9117 13.9797L28.0886 17.8272C29.5623 18.4178 31.2705 18.7591 33.0592 18.7591C33.0873 18.7591 33.1155 18.7591 33.1436 18.7591H33.1398C37.9136 18.7591 41.0355 16.4022 41.0523 12.7516L41.0542 12.7572ZM22.233 0.927814L14.8717 18.4909H10.068L6.44545 4.47156C6.37608 3.78906 5.95795 3.21906 5.3767 2.93406L5.36545 2.92844C4.07545 2.29469 2.57545 1.77906 1.00607 1.45469L0.882324 1.43406L0.991074 0.925938H8.72358C9.77733 0.925938 10.653 1.69656 10.8161 2.70344L10.818 2.71469L12.7323 12.8791L17.4611 0.924062L22.233 0.927814Z" fill="#F4F6F4"/>
</svg>