<svg xmlns="http://www.w3.org/2000/svg" width="1374" height="280" viewBox="0 0 1374 280" fill="none">
    <path opacity="0.4" d="M29.6987 -121.179C29.6987 -74.13 32.9896 -30.4691 49.6732 14.3034C88.0091 117.183 170.639 222.115 291.878 211.534C441.472 198.478 516.543 29.9629 545.61 -97.4376C558.533 -154.079 568.805 -218.245 559.535 -276.406C555.757 -300.11 545.388 -324.782 519.13 -328.681C484.068 -333.888 431.186 -311.547 431.47 -270.242C431.873 -212.001 483.502 -156.473 520.842 -118.097C595.308 -41.5632 686.92 24.6556 786.902 63.4968C869.734 95.6758 968.666 110.822 1052.62 73.8834C1141.29 34.8694 1200.12 -52.4782 1242.32 -136.016C1269 -188.818 1293.84 -249.569 1305.55 -308.136" stroke="url(#paint0_linear_42_133)" stroke-width="135.154" stroke-linecap="round"/>
    <defs>
        <linearGradient id="paint0_linear_42_133" x1="667.625" y1="-329.427" x2="667.625" y2="212.272" gradientUnits="userSpaceOnUse">
            <stop stop-color="white"/>
            <stop offset="0.975" stop-color="white"/>
        </linearGradient>
    </defs>
</svg>