<svg xmlns="http://www.w3.org/2000/svg" width="1246" height="386" viewBox="0 0 1246 386" fill="none">
    <path d="M-268.577 -54.5498C-268.577 -2.04399 -264.904 46.6814 -246.285 96.6476C-203.502 211.461 -111.287 328.565 24.0165 316.756C190.965 302.186 274.744 114.124 307.184 -28.0552C321.606 -91.2679 333.07 -162.876 322.724 -227.784C318.508 -254.237 306.936 -281.771 277.632 -286.122C238.502 -291.933 179.486 -267.001 179.803 -220.905C180.252 -155.908 237.871 -93.9385 279.542 -51.1106C362.647 34.3006 464.887 108.201 576.467 151.547C668.908 187.459 779.318 204.362 873.009 163.139C971.965 119.599 1037.62 22.1194 1084.72 -71.1089C1114.48 -130.036 1142.21 -197.833 1155.28 -263.194" stroke="url(#paint0_linear_42_294)" stroke-opacity="0.7" stroke-width="180.999" stroke-linecap="round"/>
    <defs>
        <linearGradient id="paint0_linear_42_294" x1="138.672" y1="-117.419" x2="1034.01" y2="142.014" gradientUnits="userSpaceOnUse">
            <stop stop-color="white"/>
            <stop offset="1" stop-color="white" stop-opacity="0.5"/>
        </linearGradient>
    </defs>
</svg>