<svg xmlns="http://www.w3.org/2000/svg" width="33" height="33" viewBox="0 0 33 33" fill="none">
    <g opacity="0.9">
        <path d="M16.36 32.5901C25.1965 32.5901 32.36 25.4266 32.36 16.5901C32.36 7.75353 25.1965 0.590088 16.36 0.590088C7.52343 0.590088 0.359985 7.75353 0.359985 16.5901C0.359985 25.4266 7.52343 32.5901 16.36 32.5901Z" fill="white" fill-opacity="0.9"/>
        <path d="M17.5361 10.397C17.2765 10.6529 17.2522 11.0573 17.4649 11.341L17.5288 11.4152L21.9216 15.8697H10.6816C10.2839 15.8697 9.96155 16.1921 9.96155 16.5897C9.96155 16.9568 10.2362 17.2597 10.5912 17.3041L10.6816 17.3097H21.9216L17.5288 21.7642C17.2729 22.0238 17.2543 22.4285 17.4711 22.7092L17.5361 22.7824C17.7956 23.0383 18.2003 23.0569 18.481 22.8402L18.5543 22.7752L24.1543 17.0952C24.4076 16.8382 24.4287 16.4384 24.2176 16.1576L24.1543 16.0842L18.5543 10.4042C18.2751 10.121 17.8192 10.1178 17.5361 10.397Z" fill="#1A1A1A"/>
    </g>
</svg>