<svg xmlns="http://www.w3.org/2000/svg" width="23" height="24" viewBox="0 0 23 24" fill="none">
    <path fill-rule="evenodd" clip-rule="evenodd" d="M12.9021 4.32738C14.5462 2.68319 17.212 2.68319 18.8561 4.32738C20.5004 5.97157 20.5004 8.63731 18.8561 10.2815L17.8313 11.3064C17.495 11.6427 16.9497 11.6427 16.6134 11.3064C16.2771 10.9701 16.2771 10.4248 16.6134 10.0885L17.6383 9.06361C18.6098 8.09205 18.6098 6.51683 17.6383 5.54527C16.6667 4.5737 15.0915 4.5737 14.1199 5.54527L10.7369 8.92829C9.76535 9.89985 9.76535 11.4751 10.7369 12.4466C11.0732 12.7829 11.0732 13.3282 10.7369 13.6645C10.4006 14.0008 9.85535 14.0008 9.51903 13.6645C7.87484 12.0204 7.87484 9.35459 9.51903 7.7104L12.9021 4.32738ZM12.2255 9.74022C12.5618 9.40391 13.1071 9.40391 13.4433 9.74022C15.0875 11.3844 15.0875 14.0502 13.4433 15.6943L10.0603 19.0774C8.41612 20.7216 5.75037 20.7216 4.10619 19.0774C2.462 17.4332 2.462 14.7674 4.10619 13.1232L5.17914 12.0503C5.51546 11.714 6.06072 11.714 6.39703 12.0503C6.73335 12.3866 6.73335 12.9319 6.39703 13.2682L5.32407 14.3411C4.35251 15.3127 4.35251 16.888 5.32407 17.8594C6.29564 18.831 7.87086 18.831 8.84242 17.8594L12.2255 14.4764C13.197 13.5049 13.197 11.9297 12.2255 10.9581C11.8892 10.6218 11.8892 10.0765 12.2255 9.74022Z" fill="#262626"/>
</svg>