<svg width="31" height="33" viewBox="0 0 31 33" fill="none" xmlns="http://www.w3.org/2000/svg">
<path d="M24.24 5.48401H20.64C19.3145 5.48401 18.24 6.55853 18.24 7.88401V11.484C18.24 12.8095 19.3145 13.884 20.64 13.884H24.24C25.5655 13.884 26.64 12.8095 26.64 11.484V7.88401C26.64 6.55853 25.5655 5.48401 24.24 5.48401Z" stroke="white" stroke-width="1.8" stroke-linecap="round" stroke-linejoin="round"/>
<path d="M11.04 5.48401H7.43999C6.11451 5.48401 5.03999 6.55853 5.03999 7.88401V11.484C5.03999 12.8095 6.11451 13.884 7.43999 13.884H11.04C12.3655 13.884 13.44 12.8095 13.44 11.484V7.88401C13.44 6.55853 12.3655 5.48401 11.04 5.48401Z" stroke="white" stroke-width="1.8" stroke-linecap="round" stroke-linejoin="round"/>
<path d="M24.24 18.684H20.64C19.3145 18.684 18.24 19.7585 18.24 21.084V24.684C18.24 26.0095 19.3145 27.084 20.64 27.084H24.24C25.5655 27.084 26.64 26.0095 26.64 24.684V21.084C26.64 19.7585 25.5655 18.684 24.24 18.684Z" stroke="white" stroke-width="1.8" stroke-linecap="round" stroke-linejoin="round"/>
<path d="M11.04 18.684H7.43999C6.11451 18.684 5.03999 19.7585 5.03999 21.084V24.684C5.03999 26.0095 6.11451 27.084 7.43999 27.084H11.04C12.3655 27.084 13.44 26.0095 13.44 24.684V21.084C13.44 19.7585 12.3655 18.684 11.04 18.684Z" stroke="white" stroke-width="1.8" stroke-linecap="round" stroke-linejoin="round"/>
</svg>
