<svg width="152" height="145" viewBox="0 0 152 145" fill="none" xmlns="http://www.w3.org/2000/svg">
<g id="SVG">
<g id="Group" opacity="0.5">
<path id="Vector" d="M143.426 0.29019C148.171 0.693826 151.332 5.15954 150.707 9.88036L149.452 19.3581C148.826 24.0829 144.585 27.3053 139.868 27.9838C135.277 28.6439 131.559 30.2633 128.711 32.8419C124.279 36.8551 121.43 42.3468 120.164 49.3171C119.327 53.9229 118.905 58.8514 118.898 64.1027C118.891 68.8124 122.855 72.4458 127.565 72.4458H142.82C147.791 72.4458 151.82 76.4753 151.82 81.4458V135.05C151.82 140.021 147.791 144.05 142.82 144.05H98.774C93.8034 144.05 89.774 140.021 89.774 135.05V62.9409C89.774 40.7627 95.1555 24.0762 105.919 12.8815C115.276 3.15617 127.778 -1.04093 143.426 0.29019ZM54.4722 0.29019C59.2171 0.693825 62.3784 5.15954 61.7533 9.88036L60.4983 19.3581C59.8726 24.0829 55.6312 27.3053 50.9137 27.9838C46.3236 28.6439 42.6048 30.2633 39.7572 32.8419C35.3253 36.8551 32.4763 42.3468 31.21 49.3171C30.3733 53.9229 29.9513 58.8514 29.9439 64.1027C29.9373 68.8124 33.9015 72.4458 38.6112 72.4458H53.8662C58.8368 72.4458 62.8662 76.4753 62.8662 81.4458V135.05C62.8662 140.021 58.8368 144.05 53.8662 144.05H9.82007C4.8495 144.05 0.820068 140.021 0.820068 135.05V62.9409C0.820068 40.7627 6.20162 24.0762 16.9648 12.8815C26.3219 3.15617 38.8244 -1.04093 54.4722 0.29019Z" fill="white"/>
<path id="Vector_2" d="M143.426 0.29019C148.171 0.693826 151.332 5.15954 150.707 9.88036L149.452 19.3581C148.826 24.0829 144.585 27.3053 139.868 27.9838C135.277 28.6439 131.559 30.2633 128.711 32.8419C124.279 36.8551 121.43 42.3468 120.164 49.3171C119.327 53.9229 118.905 58.8514 118.898 64.1027C118.891 68.8124 122.855 72.4458 127.565 72.4458H142.82C147.791 72.4458 151.82 76.4753 151.82 81.4458V135.05C151.82 140.021 147.791 144.05 142.82 144.05H98.774C93.8034 144.05 89.774 140.021 89.774 135.05V62.9409C89.774 40.7627 95.1555 24.0762 105.919 12.8815C115.276 3.15617 127.778 -1.04093 143.426 0.29019ZM54.4722 0.29019C59.2171 0.693825 62.3784 5.15954 61.7533 9.88036L60.4983 19.3581C59.8726 24.0829 55.6312 27.3053 50.9137 27.9838C46.3236 28.6439 42.6048 30.2633 39.7572 32.8419C35.3253 36.8551 32.4763 42.3468 31.21 49.3171C30.3733 53.9229 29.9513 58.8514 29.9439 64.1027C29.9373 68.8124 33.9015 72.4458 38.6112 72.4458H53.8662C58.8368 72.4458 62.8662 76.4753 62.8662 81.4458V135.05C62.8662 140.021 58.8368 144.05 53.8662 144.05H9.82007C4.8495 144.05 0.820068 140.021 0.820068 135.05V62.9409C0.820068 40.7627 6.20162 24.0762 16.9648 12.8815C26.3219 3.15617 38.8244 -1.04093 54.4722 0.29019Z" fill="#EDEDED" fill-opacity="0.7"/>
</g>
</g>
</svg>
