<svg width="25" height="25" viewBox="0 0 25 25" fill="none" xmlns="http://www.w3.org/2000/svg">
<g id="SVG">
<g id="Mask group">
<mask id="mask0_52_169" style="mask-type:alpha" maskUnits="userSpaceOnUse" x="0" y="0" width="25" height="25">
<g id="Group">
<path id="Vector" d="M24.5 0.919922H0.5V24.9199H24.5V0.919922Z" fill="#8BC34A"/>
</g>
</mask>
<g mask="url(#mask0_52_169)">
<g id="Group_2">
<path id="Vector_2" d="M15.4075 20.4199C13.3126 20.4199 11.5382 19.6929 10.0843 18.239C8.63034 16.785 7.90338 15.0106 7.90338 12.9157C7.90338 10.8365 8.63034 9.06735 10.0843 7.60837C11.5382 6.1494 13.3126 5.41992 15.4075 5.41992C17.4868 5.41992 19.2559 6.1494 20.7149 7.60837C22.1738 9.06735 22.9033 10.8365 22.9033 12.9157C22.9033 15.0106 22.1738 16.785 20.7149 18.239C19.2559 19.6929 17.4868 20.4199 15.4075 20.4199ZM15.4034 18.9199C17.07 18.9199 18.4867 18.3365 19.6534 17.1699C20.82 16.0032 21.4034 14.5865 21.4034 12.9199C21.4034 11.2532 20.82 9.83656 19.6534 8.6699C18.4867 7.50323 17.07 6.9199 15.4034 6.9199C13.7367 6.9199 12.32 7.50323 11.1534 8.6699C9.98669 9.83656 9.40335 11.2532 9.40335 12.9199C9.40335 14.5865 9.98669 16.0032 11.1534 17.1699C12.32 18.3365 13.7367 18.9199 15.4034 18.9199ZM16.1533 12.6257V9.82375C16.1533 9.61125 16.0814 9.43312 15.9376 9.28937C15.7938 9.14562 15.6156 9.07375 15.403 9.07375C15.1904 9.07375 15.0123 9.14562 14.8687 9.28937C14.7251 9.43312 14.6534 9.61125 14.6534 9.82375V12.8776C14.6534 12.9953 14.6777 13.1093 14.7264 13.2197C14.7751 13.3301 14.842 13.4279 14.927 13.5133L17.2476 15.843C17.3963 15.9981 17.5729 16.0756 17.7774 16.0756C17.9819 16.0756 18.1617 15.9981 18.3168 15.843C18.4719 15.6878 18.5495 15.5096 18.5495 15.3084C18.5495 15.1071 18.4719 14.9289 18.3168 14.7738L16.1533 12.6257ZM3.84568 9.66987C3.63318 9.66987 3.45506 9.59797 3.31133 9.45417C3.16758 9.31035 3.0957 9.13215 3.0957 8.91957C3.0957 8.70697 3.16758 8.52888 3.31133 8.3853C3.45506 8.24171 3.63318 8.16992 3.84568 8.16992H6.1534C6.36589 8.16992 6.544 8.24182 6.68775 8.38562C6.8315 8.52944 6.90338 8.70764 6.90338 8.92022C6.90338 9.13282 6.8315 9.31091 6.68775 9.45449C6.544 9.59808 6.36589 9.66987 6.1534 9.66987H3.84568ZM2.84568 13.6699C2.63318 13.6699 2.45506 13.598 2.31133 13.4542C2.16758 13.3103 2.0957 13.1321 2.0957 12.9196C2.0957 12.707 2.16758 12.5289 2.31133 12.3853C2.45506 12.2417 2.63318 12.1699 2.84568 12.1699H6.1534C6.36589 12.1699 6.544 12.2418 6.68775 12.3856C6.8315 12.5294 6.90338 12.7076 6.90338 12.9202C6.90338 13.1328 6.8315 13.3109 6.68775 13.4545C6.544 13.5981 6.36589 13.6699 6.1534 13.6699H2.84568ZM3.84568 17.6699C3.63318 17.6699 3.45506 17.598 3.31133 17.4542C3.16758 17.3103 3.0957 17.1321 3.0957 16.9196C3.0957 16.707 3.16758 16.5289 3.31133 16.3853C3.45506 16.2417 3.63318 16.1699 3.84568 16.1699H6.1534C6.36589 16.1699 6.544 16.2418 6.68775 16.3856C6.8315 16.5294 6.90338 16.7076 6.90338 16.9202C6.90338 17.1328 6.8315 17.3109 6.68775 17.4545C6.544 17.5981 6.36589 17.6699 6.1534 17.6699H3.84568Z" fill="#8BC34A"/>
</g>
</g>
</g>
</g>
</svg>
