<svg width="19" height="20" viewBox="0 0 19 20" fill="none" xmlns="http://www.w3.org/2000/svg">
<g id="Group">
<g id="Group_2">
<g id="Group_3">
<path id="Vector" d="M18.2403 16.3842V17.2802C18.2403 18.3362 17.4289 19.2002 16.4372 19.2002H2.01211C1.02039 19.2002 0.208984 18.3362 0.208984 17.2802V16.3842C0.208984 14.0482 2.76342 12.6402 5.16759 11.5202C5.25775 11.4882 5.31785 11.4562 5.40801 11.3922C5.58832 11.2962 5.79869 11.2962 5.979 11.4242C6.94067 12.0962 8.0526 12.4802 9.22464 12.4802C10.3967 12.4802 11.5086 12.0962 12.4703 11.4562C12.6506 11.3282 12.8609 11.3282 13.0413 11.4242C13.1314 11.4562 13.1915 11.4882 13.2817 11.5522C15.6859 12.6402 18.2403 14.0482 18.2403 16.3842Z" fill="white"/>
</g>
<g id="Group_4">
<path id="Vector_2" d="M9.22387 10.5602C11.6969 10.5602 13.7016 8.19631 13.7016 5.28024C13.7016 2.36418 11.6969 0.000244141 9.22387 0.000244141C6.75086 0.000244141 4.74609 2.36418 4.74609 5.28024C4.74609 8.19631 6.75086 10.5602 9.22387 10.5602Z" fill="white"/>
</g>
</g>
</g>
</svg>
