<svg xmlns="http://www.w3.org/2000/svg" width="45" height="45" viewBox="0 0 45 45" fill="none">
    <path d="M30.9375 16.8752C30.9375 19.113 30.0486 21.2591 28.4662 22.8415C26.8839 24.4238 24.7378 25.3127 22.5 25.3127C20.2622 25.3127 18.1161 24.4238 16.5338 22.8415C14.9514 21.2591 14.0625 19.113 14.0625 16.8752C14.0625 14.6375 14.9514 12.4914 16.5338 10.909C18.1161 9.32669 20.2622 8.43774 22.5 8.43774C24.7378 8.43774 26.8839 9.32669 28.4662 10.909C30.0486 12.4914 30.9375 14.6375 30.9375 16.8752Z" fill="#F4F6F4"/>
    <path fill-rule="evenodd" clip-rule="evenodd" d="M0 22.5002C0 16.5329 2.37053 10.8099 6.5901 6.59034C10.8097 2.37077 16.5326 0.000244141 22.5 0.000244141C28.4674 0.000244141 34.1903 2.37077 38.4099 6.59034C42.6295 10.8099 45 16.5329 45 22.5002C45 28.4676 42.6295 34.1906 38.4099 38.4101C34.1903 42.6297 28.4674 45.0002 22.5 45.0002C16.5326 45.0002 10.8097 42.6297 6.5901 38.4101C2.37053 34.1906 0 28.4676 0 22.5002ZM22.5 2.81274C18.7925 2.81294 15.1604 3.86001 12.0218 5.83345C8.88311 7.80688 6.36548 10.6265 4.75865 13.9677C3.15182 17.3089 2.52109 21.0359 2.93906 24.7197C3.35703 28.4036 4.80671 31.8946 7.12125 34.7909C9.11812 31.5734 13.5141 28.1252 22.5 28.1252C31.4859 28.1252 35.8791 31.5706 37.8787 34.7909C40.1933 31.8946 41.643 28.4036 42.0609 24.7197C42.4789 21.0359 41.8482 17.3089 40.2414 13.9677C38.6345 10.6265 36.1169 7.80688 32.9782 5.83345C29.8396 3.86001 26.2075 2.81294 22.5 2.81274Z" fill="#F4F6F4"/>
</svg>