<svg width="25" height="25" viewBox="0 0 25 25" fill="none" xmlns="http://www.w3.org/2000/svg">
<g id="SVG">
<g id="Group" opacity="0.9">
<path id="Vector" fill-rule="evenodd" clip-rule="evenodd" d="M4.74315 5.28224C4.32464 5.4048 4.03708 5.78865 4.03708 6.22474V10.4436C4.03712 12.9847 4.83404 15.4613 6.31493 17.5225C7.73177 19.4946 9.70594 20.9907 11.978 21.8197C12.1783 21.8927 12.3978 21.8927 12.598 21.8196C14.8694 20.9906 16.8429 19.4947 18.2592 17.523C19.7396 15.4623 20.5362 12.9863 20.5363 10.4459V6.22454C20.5363 5.78855 20.2489 5.40475 19.8305 5.2821L12.5669 3.1527C12.3866 3.09984 12.195 3.09981 12.0147 3.15263L4.74315 5.28224ZM16.4185 11.132C16.802 10.7483 16.802 10.1266 16.4185 9.74301C16.0349 9.35949 15.4131 9.35949 15.0296 9.74301L11.5993 13.1733L9.88753 11.4616C9.504 11.0781 8.88217 11.0781 8.49864 11.4616C8.1151 11.8452 8.1151 12.467 8.49864 12.8506L10.9048 15.2568C11.2883 15.6403 11.9101 15.6403 12.2937 15.2568L16.4185 11.132Z" fill="#262626"/>
</g>
</g>
</svg>
