<svg width="361" height="161" viewBox="0 0 361 161" fill="none" xmlns="http://www.w3.org/2000/svg">
    <g clip-path="url(#clip0_52_38)">
        <g clip-path="url(#clip1_52_38)">
            <g clip-path="url(#clip2_52_38)">
                <path d="M2.39 74.8898V73.6718L5.62218 70.5028C5.9313 70.1911 6.18891 69.9133 6.39499 69.6713C6.60108 69.4288 6.75566 69.1939 6.85871 68.9666C6.9617 68.7394 7.01322 68.4968 7.01322 68.2389C7.01322 67.9451 6.94659 67.6935 6.8132 67.4842C6.67987 67.2724 6.49649 67.1085 6.26316 66.9933C6.0298 66.8781 5.76462 66.8205 5.46762 66.8205C5.16152 66.8205 4.89331 66.8845 4.66298 67.0119C4.43265 67.136 4.25384 67.3133 4.12656 67.5438C4.0023 67.7742 3.94017 68.0481 3.94017 68.3662H2.33545C2.33545 67.7755 2.47031 67.2615 2.74004 66.8256C3.00977 66.3891 3.38102 66.0511 3.8538 65.8117C4.32961 65.5723 4.87513 65.4526 5.49035 65.4526C6.11466 65.4526 6.66323 65.5691 7.13599 65.8028C7.60874 66.0357 7.97544 66.3558 8.23608 66.7616C8.49979 67.168 8.63158 67.6314 8.63158 68.1525C8.63158 68.5013 8.56495 68.8437 8.43156 69.1804C8.29823 69.5165 8.06339 69.889 7.72696 70.2986C7.39362 70.7076 6.92534 71.203 6.32226 71.7849L4.71753 73.417V73.4804H8.77252V74.8898H2.39ZM13.5223 75.0172C12.8465 75.0172 12.2464 74.9033 11.7221 74.6761C11.2009 74.4488 10.7918 74.1384 10.4947 73.7441C10.2008 73.3473 10.0553 72.8973 10.0583 72.3942C10.0553 72.0031 10.1402 71.644 10.3129 71.317C10.4856 70.9893 10.719 70.7166 11.013 70.4983C11.31 70.2775 11.6403 70.136 12.004 70.0759V70.0119C11.5251 69.9063 11.1372 69.6617 10.8402 69.2803C10.5462 68.8949 10.4008 68.4514 10.4038 67.9483C10.4008 67.4695 10.5341 67.0419 10.8038 66.6662C11.0736 66.2905 11.4433 65.9948 11.913 65.7797C12.3828 65.5614 12.9192 65.4526 13.5223 65.4526C14.1194 65.4526 14.6513 65.5614 15.1179 65.7797C15.5877 65.9948 15.9574 66.2905 16.2272 66.6662C16.4999 67.0419 16.6363 67.4695 16.6363 67.9483C16.6363 68.4514 16.4863 68.8949 16.1863 69.2803C15.8893 69.6617 15.5059 69.9063 15.0361 70.0119V70.0759C15.3998 70.136 15.7271 70.2775 16.0181 70.4983C16.312 70.7166 16.5454 70.9893 16.7181 71.317C16.8939 71.644 16.9818 72.0031 16.9818 72.3942C16.9818 72.8973 16.8333 73.3473 16.5363 73.7441C16.2393 74.1384 15.8301 74.4488 15.3089 74.6761C14.7907 74.9033 14.1951 75.0172 13.5223 75.0172ZM13.5223 73.7172C13.8709 73.7172 14.1739 73.6577 14.4315 73.5399C14.6891 73.4183 14.8892 73.2487 15.0316 73.0304C15.174 72.8122 15.2468 72.5606 15.2498 72.2758C15.2468 71.9788 15.1695 71.717 15.0179 71.4898C14.8695 71.2594 14.6649 71.0789 14.4042 70.9483C14.1466 70.8184 13.8526 70.7531 13.5223 70.7531C13.1889 70.7531 12.892 70.8184 12.6313 70.9483C12.3707 71.0789 12.1646 71.2594 12.0131 71.4898C11.8646 71.717 11.7919 71.9788 11.7949 72.2758C11.7919 72.5606 11.8616 72.8122 12.004 73.0304C12.1464 73.2455 12.3464 73.4138 12.604 73.5355C12.8647 73.6564 13.1708 73.7172 13.5223 73.7172ZM13.5223 69.4755C13.8072 69.4755 14.0587 69.4179 14.2769 69.3027C14.4982 69.1875 14.6724 69.0268 14.7997 68.8207C14.9271 68.6146 14.9922 68.3771 14.9952 68.107C14.9922 67.8407 14.9285 67.6071 14.8043 67.4074C14.6801 67.2039 14.5073 67.0483 14.286 66.9389C14.0648 66.8269 13.8103 66.7705 13.5223 66.7705C13.2284 66.7705 12.9692 66.8269 12.745 66.9389C12.5237 67.0483 12.351 67.2039 12.2267 67.4074C12.1055 67.6071 12.0464 67.8407 12.0494 68.107C12.0464 68.3771 12.107 68.6146 12.2313 68.8207C12.3586 69.0242 12.5328 69.1849 12.7541 69.3027C12.9783 69.4179 13.2344 69.4755 13.5223 69.4755ZM21.6577 75.0172C20.9819 75.0172 20.3818 74.9033 19.8575 74.6761C19.3363 74.4488 18.9271 74.1384 18.6301 73.7441C18.3361 73.3473 18.1907 72.8973 18.1937 72.3942C18.1907 72.0031 18.2755 71.644 18.4483 71.317C18.621 70.9893 18.8544 70.7166 19.1484 70.4983C19.4454 70.2775 19.7757 70.136 20.1393 70.0759V70.0119C19.6605 69.9063 19.2726 69.6617 18.9756 69.2803C18.6817 68.8949 18.5362 68.4514 18.5392 67.9483C18.5362 67.4695 18.6695 67.0419 18.9392 66.6662C19.2089 66.2905 19.5787 65.9948 20.0485 65.7797C20.5182 65.5614 21.0546 65.4526 21.6577 65.4526C22.2548 65.4526 22.7866 65.5614 23.2534 65.7797C23.7231 65.9948 24.0929 66.2905 24.3626 66.6662C24.6353 67.0419 24.7717 67.4695 24.7717 67.9483C24.7717 68.4514 24.6217 68.8949 24.3216 69.2803C24.0246 69.6617 23.6413 69.9063 23.1716 70.0119V70.0759C23.5352 70.136 23.8625 70.2775 24.1535 70.4983C24.4474 70.7166 24.6808 70.9893 24.8535 71.317C25.0293 71.644 25.1172 72.0031 25.1172 72.3942C25.1172 72.8973 24.9687 73.3473 24.6717 73.7441C24.3747 74.1384 23.9656 74.4488 23.4443 74.6761C22.926 74.9033 22.3305 75.0172 21.6577 75.0172ZM21.6577 73.7172C22.0062 73.7172 22.3093 73.6577 22.5669 73.5399C22.8245 73.4183 23.0245 73.2487 23.167 73.0304C23.3094 72.8122 23.3821 72.5606 23.3852 72.2758C23.3821 71.9788 23.3049 71.717 23.1534 71.4898C23.0048 71.2594 22.8002 71.0789 22.5396 70.9483C22.282 70.8184 21.9881 70.7531 21.6577 70.7531C21.3244 70.7531 21.0274 70.8184 20.7667 70.9483C20.5061 71.0789 20.3 71.2594 20.1485 71.4898C19.9999 71.717 19.9272 71.9788 19.9302 72.2758C19.9272 72.5606 19.9969 72.8122 20.1393 73.0304C20.2818 73.2455 20.4818 73.4138 20.7394 73.5355C21 73.6564 21.3062 73.7172 21.6577 73.7172ZM21.6577 69.4755C21.9426 69.4755 22.1942 69.4179 22.4124 69.3027C22.6336 69.1875 22.8079 69.0268 22.9351 68.8207C23.0624 68.6146 23.1276 68.3771 23.1306 68.107C23.1276 67.8407 23.064 67.6071 22.9397 67.4074C22.8154 67.2039 22.6427 67.0483 22.4215 66.9389C22.2002 66.8269 21.9456 66.7705 21.6577 66.7705C21.3637 66.7705 21.1046 66.8269 20.8804 66.9389C20.6592 67.0483 20.4864 67.2039 20.3622 67.4074C20.2409 67.6071 20.1818 67.8407 20.1849 68.107C20.1818 68.3771 20.2424 68.6146 20.3667 68.8207C20.4939 69.0242 20.6682 69.1849 20.8894 69.3027C21.1137 69.4179 21.3698 69.4755 21.6577 69.4755ZM29.9249 75.0671C29.1764 75.0671 28.5339 74.8777 27.9975 74.4988C27.4641 74.1173 27.0535 73.5668 26.7655 72.8487C26.4807 72.1273 26.3382 71.2594 26.3382 70.2436C26.3413 69.2284 26.4852 68.365 26.7701 67.6526C27.058 66.9376 27.4686 66.3916 28.002 66.0159C28.5384 65.6402 29.1795 65.4526 29.9249 65.4526C30.6705 65.4526 31.3115 65.6402 31.8479 66.0159C32.3844 66.3916 32.795 66.9376 33.0799 67.6526C33.3678 68.3682 33.5117 69.2316 33.5117 70.2436C33.5117 71.2619 33.3678 72.1318 33.0799 72.8531C32.795 73.5713 32.3844 74.1198 31.8479 74.4988C31.3145 74.8777 30.6735 75.0671 29.9249 75.0671ZM29.9249 73.6443C30.5068 73.6443 30.966 73.3582 31.3024 72.7853C31.6418 72.2092 31.8116 71.3624 31.8116 70.2436C31.8116 69.5043 31.7342 68.8834 31.5797 68.3803C31.4251 67.8772 31.2069 67.4983 30.9251 67.2436C30.6432 66.9862 30.3099 66.857 29.9249 66.857C29.3461 66.857 28.8885 67.145 28.5521 67.7211C28.2157 68.2939 28.046 69.135 28.0429 70.2436C28.0399 70.9867 28.1142 71.6108 28.2657 72.1171C28.4203 72.6227 28.6385 73.0048 28.9203 73.2621C29.2022 73.5169 29.5371 73.6443 29.9249 73.6443ZM43.9421 68.8117L43.5012 69.7802H37.4687L37.8278 68.8117H43.9421ZM43.1011 70.6897L42.6328 71.6716H37.4687L37.8278 70.6897H43.1011ZM45.0877 66.3347L44.4512 67.689C44.3058 67.5738 44.1406 67.4618 43.9557 67.3524C43.7709 67.2436 43.5663 67.1527 43.342 67.0797C43.1178 67.0074 42.8723 66.9709 42.6056 66.9709C42.154 66.9709 41.7555 67.0906 41.41 67.33C41.0645 67.5662 40.7933 67.9272 40.5963 68.4117C40.4023 68.8937 40.3054 69.5043 40.3054 70.2436C40.3054 70.9835 40.4023 71.5941 40.5963 72.0761C40.7933 72.5581 41.0645 72.9152 41.41 73.1489C41.7555 73.3818 42.154 73.499 42.6056 73.499C42.8723 73.499 43.1178 73.4638 43.342 73.394C43.5663 73.3242 43.7678 73.2365 43.9467 73.1303C44.1285 73.0247 44.2846 72.9184 44.4149 72.8122L45.0604 74.1672C44.7361 74.4488 44.3619 74.6613 43.9376 74.8034C43.5163 74.9462 43.0723 75.0172 42.6056 75.0172C41.8298 75.0172 41.1418 74.8278 40.5417 74.4488C39.9447 74.0667 39.4765 73.5201 39.137 72.8077C38.7976 72.0927 38.6279 71.2382 38.6279 70.2436C38.6279 69.247 38.7976 68.3906 39.137 67.6756C39.4765 66.96 39.9447 66.4115 40.5417 66.03C41.1418 65.6447 41.8298 65.4526 42.6056 65.4526C43.0905 65.4526 43.5405 65.5294 43.9557 65.6843C44.374 65.836 44.7513 66.0524 45.0877 66.3347Z" fill="#229362"/>
                <path d="M126.867 47.5595V46.2185L130.817 39.9769H131.936V41.8862H131.254L128.594 46.1003V46.173H134.108V47.5595H126.867ZM131.308 49.287V47.1504L131.327 46.5503V39.9769H132.918V49.287H131.308ZM138.774 49.4143C138.12 49.4143 137.538 49.3022 137.029 49.0779C136.523 48.8536 136.123 48.5415 135.829 48.1414C135.534 47.7414 135.378 47.2792 135.36 46.7549H137.069C137.085 47.0064 137.168 47.2262 137.32 47.4141C137.471 47.5989 137.673 47.7429 137.924 47.8459C138.176 47.949 138.458 48.0005 138.77 48.0005C139.103 48.0005 139.398 47.9429 139.656 47.8278C139.914 47.7096 140.115 47.5459 140.261 47.3368C140.407 47.1277 140.478 46.8867 140.474 46.614C140.478 46.3321 140.405 46.0836 140.256 45.8685C140.108 45.6533 139.893 45.485 139.611 45.3638C139.332 45.2426 138.995 45.182 138.602 45.182H137.778V43.8819H138.602C138.926 43.8819 139.209 43.8258 139.452 43.7137C139.697 43.6015 139.889 43.4439 140.029 43.2409C140.169 43.0348 140.236 42.7969 140.234 42.5272C140.236 42.2635 140.177 42.0347 140.056 41.8407C139.938 41.6437 139.77 41.4907 139.551 41.3816C139.336 41.2725 139.084 41.218 138.792 41.218C138.508 41.218 138.244 41.2695 138.001 41.3725C137.759 41.4755 137.563 41.6225 137.415 41.8135C137.266 42.0013 137.188 42.2256 137.179 42.4863H135.556C135.568 41.965 135.718 41.5073 136.006 41.1134C136.297 40.7163 136.685 40.4072 137.17 40.186C137.654 39.9618 138.198 39.8496 138.801 39.8496C139.423 39.8496 139.962 39.9663 140.42 40.1997C140.881 40.43 141.237 40.7406 141.488 41.1315C141.74 41.5225 141.865 41.9544 141.865 42.4272C141.869 42.9515 141.714 43.3909 141.402 43.7455C141.093 44.1001 140.687 44.3319 140.184 44.441V44.5137C140.838 44.6047 141.34 44.8471 141.688 45.2411C142.04 45.6321 142.214 46.1185 142.211 46.7004C142.211 47.2216 142.062 47.6884 141.765 48.1005C141.472 48.5096 141.065 48.8309 140.547 49.0643C140.032 49.2976 139.441 49.4143 138.774 49.4143ZM143.643 49.287V48.0687L146.876 44.9002C147.185 44.588 147.442 44.3107 147.648 44.0683C147.854 43.8258 148.009 43.591 148.112 43.3636C148.215 43.1363 148.267 42.8938 148.267 42.6363C148.267 42.3423 148.2 42.0908 148.067 41.8816C147.933 41.6695 147.75 41.5059 147.517 41.3907C147.284 41.2755 147.018 41.218 146.721 41.218C146.415 41.218 146.147 41.2816 145.916 41.4089C145.686 41.5331 145.507 41.7104 145.38 41.9407C145.256 42.1711 145.194 42.4454 145.194 42.7635H143.589C143.589 42.1726 143.723 41.6589 143.994 41.2225C144.263 40.786 144.634 40.4481 145.107 40.2088C145.583 39.9693 146.129 39.8496 146.744 39.8496C147.368 39.8496 147.917 39.9663 148.39 40.1997C148.862 40.433 149.229 40.7528 149.49 41.1588C149.753 41.5649 149.885 42.0286 149.885 42.5499C149.885 42.8984 149.818 43.2409 149.685 43.5773C149.552 43.9137 149.317 44.2865 148.98 44.6956C148.647 45.1047 148.179 45.6003 147.575 46.1821L145.971 47.8141V47.8778H150.026V49.287H143.643ZM154.907 49.4643C154.159 49.4643 153.517 49.2749 152.98 48.8961C152.447 48.5142 152.036 47.9641 151.748 47.2459C151.463 46.5246 151.321 45.6563 151.321 44.6411C151.324 43.6258 151.468 42.7621 151.753 42.0499C152.041 41.3346 152.451 40.7891 152.985 40.4133C153.521 40.0375 154.162 39.8496 154.907 39.8496C155.653 39.8496 156.294 40.0375 156.831 40.4133C157.367 40.7891 157.778 41.3346 158.062 42.0499C158.35 42.7651 158.494 43.6288 158.494 44.6411C158.494 45.6593 158.35 46.5291 158.062 47.2504C157.778 47.9687 157.367 48.5172 156.831 48.8961C156.297 49.2749 155.656 49.4643 154.907 49.4643ZM154.907 48.0414C155.489 48.0414 155.949 47.755 156.285 47.1822C156.625 46.6064 156.794 45.7593 156.794 44.6411C156.794 43.9016 156.717 43.2803 156.563 42.7772C156.408 42.2741 156.189 41.8953 155.908 41.6407C155.626 41.3831 155.293 41.2543 154.907 41.2543C154.329 41.2543 153.871 41.5422 153.534 42.118C153.198 42.6908 153.029 43.5318 153.026 44.6411C153.022 45.3835 153.097 46.0079 153.248 46.514C153.403 47.0201 153.621 47.4019 153.903 47.6596C154.185 47.9141 154.52 48.0414 154.907 48.0414ZM168.925 43.2091L168.484 44.1773H162.451L162.81 43.2091H168.925ZM168.084 45.0865L167.615 46.0685H162.451L162.81 45.0865H168.084ZM170.07 40.7315L169.434 42.0862C169.289 41.9711 169.123 41.8589 168.938 41.7498C168.753 41.6407 168.549 41.5498 168.325 41.4771C168.101 41.4043 167.855 41.3679 167.589 41.3679C167.137 41.3679 166.738 41.4877 166.393 41.7271C166.047 41.9634 165.776 42.3241 165.579 42.809C165.385 43.2909 165.288 43.9016 165.288 44.6411C165.288 45.3805 165.385 45.9912 165.579 46.4731C165.776 46.9549 166.047 47.3125 166.393 47.5459C166.738 47.7793 167.137 47.8959 167.589 47.8959C167.855 47.8959 168.101 47.8611 168.325 47.7914C168.549 47.7217 168.75 47.6338 168.929 47.5277C169.111 47.4217 169.267 47.3156 169.397 47.2095L170.043 48.5642C169.719 48.8461 169.344 49.0582 168.92 49.2007C168.499 49.3431 168.055 49.4143 167.589 49.4143C166.812 49.4143 166.125 49.2249 165.524 48.8461C164.927 48.4642 164.459 47.9171 164.12 47.205C163.78 46.4897 163.61 45.6351 163.61 44.6411C163.61 43.644 163.78 42.7878 164.12 42.0726C164.459 41.3574 164.927 40.8088 165.524 40.427C166.125 40.042 166.812 39.8496 167.589 39.8496C168.073 39.8496 168.523 39.9269 168.938 40.0814C169.356 40.2329 169.734 40.4497 170.07 40.7315Z" fill="#229362"/>
                <path d="M319.643 11.01C319.037 11.01 318.494 10.8964 318.015 10.6691C317.537 10.4387 317.156 10.1235 316.874 9.72349C316.596 9.32345 316.447 8.86586 316.429 8.3506H318.065C318.095 8.73247 318.261 9.04463 318.561 9.28709C318.861 9.52654 319.221 9.64623 319.643 9.64623C319.973 9.64623 320.267 9.57045 320.525 9.41895C320.782 9.26738 320.985 9.05679 321.134 8.78707C321.282 8.51734 321.355 8.20972 321.352 7.86421C321.355 7.51262 321.281 7.20052 321.129 6.92773C320.978 6.65499 320.77 6.44134 320.507 6.28676C320.243 6.12917 319.94 6.05037 319.598 6.05037C319.319 6.04734 319.044 6.09886 318.775 6.20493C318.505 6.311 318.291 6.45042 318.134 6.62318L316.61 6.37314L317.097 1.5726H322.498V2.98185H318.493L318.225 5.4503H318.279C318.452 5.24725 318.696 5.07905 319.011 4.9457C319.326 4.80932 319.672 4.74113 320.048 4.74113C320.611 4.74113 321.114 4.87448 321.557 5.14118C321.999 5.40484 322.347 5.76852 322.602 6.23221C322.857 6.69589 322.984 7.22625 322.984 7.82331C322.984 8.43848 322.842 8.98709 322.557 9.46894C322.275 9.94777 321.883 10.3251 321.38 10.6009C320.879 10.8736 320.301 11.01 319.643 11.01ZM324.72 10.8827L328.68 3.04549V2.98185H324.083V1.5726H330.425V3.01367L326.47 10.8827H324.72ZM334.973 11.01C334.528 11.007 334.093 10.9297 333.669 10.7781C333.245 10.6236 332.863 10.3735 332.523 10.0281C332.184 9.67958 331.915 9.21739 331.714 8.64158C331.515 8.0627 331.416 7.34595 331.419 6.49132C331.419 5.69427 331.504 4.98359 331.673 4.35927C331.843 3.73496 332.087 3.20763 332.406 2.77728C332.724 2.3439 333.107 2.01356 333.556 1.78626C334.007 1.55896 334.511 1.44531 335.069 1.44531C335.654 1.44531 336.172 1.56048 336.624 1.7908C337.079 2.02113 337.445 2.33632 337.724 2.73637C338.003 3.13338 338.176 3.58191 338.242 4.08197H336.583C336.498 3.72436 336.324 3.43947 336.06 3.22733C335.8 3.01216 335.47 2.90457 335.069 2.90457C334.424 2.90457 333.927 3.1849 333.578 3.74557C333.233 4.30624 333.058 5.07602 333.055 6.05492H333.119C333.268 5.78822 333.46 5.55941 333.697 5.36847C333.933 5.17755 334.2 5.03056 334.497 4.92752C334.796 4.82144 335.113 4.76841 335.447 4.76841C335.992 4.76841 336.481 4.89873 336.915 5.15936C337.351 5.42 337.697 5.77912 337.951 6.23676C338.206 6.69135 338.332 7.21262 338.329 7.80059C338.332 8.41275 338.192 8.96283 337.911 9.45076C337.629 9.93567 337.236 10.3175 336.733 10.5964C336.23 10.8752 335.644 11.013 334.973 11.01ZM334.965 9.64623C335.295 9.64623 335.591 9.56591 335.851 9.40531C336.112 9.24465 336.318 9.02799 336.469 8.75519C336.621 8.48246 336.695 8.17638 336.692 7.83695C336.695 7.50353 336.622 7.202 336.474 6.93227C336.329 6.66254 336.127 6.44889 335.87 6.2913C335.612 6.13371 335.318 6.05492 334.988 6.05492C334.742 6.05492 334.513 6.10189 334.301 6.19584C334.089 6.28979 333.904 6.42008 333.746 6.58682C333.589 6.75043 333.465 6.94136 333.373 7.15956C333.286 7.37475 333.24 7.60511 333.237 7.85058C333.24 8.17484 333.316 8.47337 333.465 8.7461C333.613 9.0189 333.818 9.2371 334.078 9.40077C334.339 9.56437 334.634 9.64623 334.965 9.64623ZM343.179 11.06C342.43 11.06 341.788 10.8706 341.251 10.4918C340.717 10.1099 340.307 9.55982 340.019 8.8416C339.734 8.12031 339.592 7.25205 339.592 6.23676C339.595 5.22149 339.739 4.35776 340.024 3.64556C340.312 2.93033 340.722 2.38481 341.256 2.00901C341.792 1.63321 342.433 1.44531 343.179 1.44531C343.924 1.44531 344.565 1.63321 345.101 2.00901C345.638 2.38481 346.049 2.93033 346.333 3.64556C346.622 4.36079 346.766 5.22452 346.766 6.23676C346.766 7.25506 346.622 8.12485 346.333 8.84615C346.049 9.56437 345.638 10.1129 345.101 10.4918C344.568 10.8706 343.927 11.06 343.179 11.06ZM343.179 9.63715C343.76 9.63715 344.219 9.35071 344.556 8.77791C344.895 8.20211 345.065 7.35504 345.065 6.23676C345.065 5.49728 344.988 4.876 344.833 4.37291C344.679 3.86982 344.461 3.49099 344.178 3.23642C343.897 2.97882 343.563 2.85001 343.179 2.85001C342.6 2.85001 342.142 3.13792 341.806 3.71375C341.469 4.28654 341.299 5.12754 341.297 6.23676C341.294 6.97925 341.368 7.60358 341.519 8.10968C341.674 8.61578 341.892 8.99765 342.174 9.25528C342.456 9.50984 342.791 9.63715 343.179 9.63715ZM357.195 4.80478L356.754 5.77307H350.722L351.082 4.80478H357.195ZM356.354 6.68226L355.887 7.66419H350.722L351.082 6.68226H356.354ZM358.341 2.32723L357.705 3.68193C357.559 3.56676 357.394 3.45463 357.21 3.34552C357.025 3.23642 356.82 3.1455 356.596 3.07277C356.371 3.00003 356.126 2.96366 355.859 2.96366C355.408 2.96366 355.009 3.08338 354.663 3.32279C354.318 3.55919 354.047 3.91983 353.85 4.40473C353.656 4.8866 353.559 5.49728 353.559 6.23676C353.559 6.97624 353.656 7.58693 353.85 8.06878C354.047 8.55062 354.318 8.90823 354.663 9.1416C355.009 9.37497 355.408 9.49166 355.859 9.49166C356.126 9.49166 356.371 9.45684 356.596 9.38713C356.82 9.31743 357.021 9.22948 357.2 9.12342C357.382 9.01736 357.538 8.91131 357.668 8.80525L358.314 10.1599C357.99 10.4418 357.615 10.6539 357.191 10.7964C356.77 10.9388 356.326 11.01 355.859 11.01C355.083 11.01 354.395 10.8206 353.795 10.4418C353.198 10.0599 352.73 9.51284 352.39 8.8007C352.051 8.08542 351.882 7.2308 351.882 6.23676C351.882 5.23967 352.051 4.38352 352.39 3.66829C352.73 2.95306 353.198 2.40451 353.795 2.02265C354.395 1.63776 355.083 1.44531 355.859 1.44531C356.344 1.44531 356.794 1.52259 357.21 1.67716C357.628 1.82869 358.005 2.04538 358.341 2.32723Z" fill="#229362"/>
                <path opacity="0.3" d="M37.1241 85.771H10.2411C4.58511 85.771 0 90.3561 0 96.0121V126.736C0 132.392 4.58511 136.977 10.2411 136.977H37.1241C42.7801 136.977 47.3652 132.392 47.3652 126.736V96.0121C47.3652 90.3561 42.7801 85.771 37.1241 85.771Z" fill="#4DC591"/>
                <path opacity="0.4" d="M99.8512 72.9697H72.9682C67.3122 72.9697 62.7271 77.5548 62.7271 83.2109V126.736C62.7271 132.392 67.3122 136.977 72.9682 136.977H99.8512C105.507 136.977 110.092 132.392 110.092 126.736V83.2109C110.092 77.5548 105.507 72.9697 99.8512 72.9697Z" fill="#4DC591"/>
                <path opacity="0.5" d="M162.578 60.168H135.695C130.039 60.168 125.454 64.7531 125.454 70.4091V126.735C125.454 132.391 130.039 136.976 135.695 136.976H162.578C168.234 136.976 172.819 132.391 172.819 126.735V70.4091C172.819 64.7531 168.234 60.168 162.578 60.168Z" fill="#4DC591"/>
                <path opacity="0.6" d="M225.305 47.3667H198.422C192.766 47.3667 188.181 51.9518 188.181 57.6078V126.735C188.181 132.392 192.766 136.977 198.422 136.977H225.305C230.961 136.977 235.546 132.392 235.546 126.735V57.6078C235.546 51.9518 230.961 47.3667 225.305 47.3667Z" fill="#4DC591"/>
                <path opacity="0.8" d="M288.032 34.5654H261.149C255.493 34.5654 250.908 39.1505 250.908 44.8066V126.736C250.908 132.392 255.493 136.977 261.149 136.977H288.032C293.688 136.977 298.273 132.392 298.273 126.736V44.8066C298.273 39.1505 293.688 34.5654 288.032 34.5654Z" fill="#4DC591"/>
                <path d="M350.759 21.7637H323.876C318.22 21.7637 313.635 26.3488 313.635 32.0048V126.735C313.635 132.391 318.22 136.976 323.876 136.976H350.759C356.415 136.976 361 132.391 361 126.735V32.0048C361 26.3488 356.415 21.7637 350.759 21.7637Z" fill="#4DC591"/>
            </g>
        </g>
        <path d="M4.80469 146.14V154.14H3.59375V147.351H3.54688L1.63281 148.601V147.445L3.62891 146.14H4.80469ZM13.2627 152.695L15.2002 148.14H16.208L13.6963 154.14H12.8291L10.3682 148.14H11.3643L13.2627 152.695ZM11.04 148.14V154.14H9.89551V148.14H11.04ZM15.5166 154.14V148.14H16.6533V154.14H15.5166ZM18.21 154.14V148.14H19.3779V154.14H18.21ZM18.7998 147.214C18.5967 147.214 18.4222 147.147 18.2764 147.011C18.1331 146.873 18.0615 146.709 18.0615 146.519C18.0615 146.326 18.1331 146.162 18.2764 146.027C18.4222 145.889 18.5967 145.82 18.7998 145.82C19.0029 145.82 19.1761 145.889 19.3193 146.027C19.4652 146.162 19.5381 146.326 19.5381 146.519C19.5381 146.709 19.4652 146.873 19.3193 147.011C19.1761 147.147 19.0029 147.214 18.7998 147.214ZM23.4766 154.261C22.8958 154.261 22.3958 154.13 21.9766 153.867C21.5599 153.601 21.2396 153.235 21.0156 152.769C20.7917 152.303 20.6797 151.769 20.6797 151.167C20.6797 150.558 20.7943 150.02 21.0234 149.554C21.2526 149.085 21.5755 148.72 21.9922 148.457C22.4089 148.194 22.8997 148.062 23.4648 148.062C23.9206 148.062 24.3268 148.147 24.6836 148.316C25.0404 148.483 25.3281 148.717 25.5469 149.019C25.7682 149.321 25.8997 149.674 25.9414 150.078H24.8047C24.7422 149.796 24.599 149.554 24.375 149.351C24.1536 149.148 23.8568 149.046 23.4844 149.046C23.1589 149.046 22.8737 149.132 22.6289 149.304C22.3867 149.473 22.1979 149.716 22.0625 150.031C21.9271 150.343 21.8594 150.713 21.8594 151.14C21.8594 151.578 21.9258 151.955 22.0586 152.273C22.1914 152.591 22.3789 152.837 22.6211 153.011C22.8659 153.186 23.1536 153.273 23.4844 153.273C23.7057 153.273 23.9063 153.233 24.0859 153.152C24.2682 153.069 24.4206 152.95 24.543 152.796C24.668 152.643 24.7552 152.458 24.8047 152.242H25.9414C25.8997 152.63 25.7734 152.976 25.5625 153.281C25.3516 153.585 25.069 153.825 24.7148 154C24.3633 154.174 23.9505 154.261 23.4766 154.261ZM30.7686 154.14V149.136H29.3311C28.9899 149.136 28.7243 149.216 28.5342 149.375C28.3441 149.533 28.249 149.742 28.249 150C28.249 150.255 28.3363 150.46 28.5107 150.617C28.6878 150.77 28.9352 150.847 29.2529 150.847H31.1084V151.792H29.2529C28.8102 151.792 28.4274 151.72 28.1045 151.574C27.7842 151.425 27.5368 151.216 27.3623 150.945C27.1904 150.674 27.1045 150.354 27.1045 149.984C27.1045 149.606 27.193 149.281 27.3701 149.007C27.5498 148.731 27.8063 148.518 28.1396 148.367C28.4756 148.216 28.8727 148.14 29.3311 148.14H31.8662V154.14H30.7686ZM26.8311 154.14L28.5225 151.109H29.7178L28.0264 154.14H26.8311ZM38.3154 148.14V153.183H39.1943V156.074H38.042V154.14H33.4209V148.14H34.5654V153.132H37.1748V148.14H38.3154ZM41.3682 150.203H43.1104C43.8447 150.203 44.4098 150.385 44.8057 150.75C45.2015 151.114 45.3994 151.584 45.3994 152.16C45.3994 152.535 45.3109 152.872 45.1338 153.171C44.9567 153.471 44.6976 153.708 44.3564 153.882C44.0153 154.054 43.5999 154.14 43.1104 154.14H40.4893V148.14H41.6338V153.132H43.1104C43.4463 153.132 43.7223 153.045 43.9385 152.871C44.1546 152.694 44.2627 152.468 44.2627 152.195C44.2627 151.906 44.1546 151.67 43.9385 151.488C43.7223 151.303 43.4463 151.21 43.1104 151.21H41.3682V150.203Z" fill="#229362"/>
        <path d="M130.555 154.25C130.018 154.25 129.539 154.157 129.117 153.972C128.698 153.787 128.366 153.531 128.121 153.203C127.879 152.872 127.749 152.489 127.73 152.054H128.957C128.973 152.291 129.052 152.497 129.195 152.671C129.341 152.843 129.531 152.976 129.766 153.07C130 153.164 130.26 153.21 130.547 153.21C130.862 153.21 131.141 153.156 131.383 153.046C131.628 152.937 131.819 152.785 131.957 152.589C132.095 152.391 132.164 152.164 132.164 151.906C132.164 151.638 132.095 151.402 131.957 151.199C131.822 150.993 131.622 150.832 131.359 150.714C131.099 150.597 130.784 150.539 130.414 150.539H129.738V149.554H130.414C130.711 149.554 130.971 149.501 131.195 149.394C131.422 149.287 131.599 149.139 131.727 148.949C131.854 148.756 131.918 148.531 131.918 148.273C131.918 148.026 131.862 147.811 131.75 147.628C131.641 147.444 131.484 147.299 131.281 147.195C131.081 147.091 130.844 147.039 130.57 147.039C130.31 147.039 130.066 147.087 129.84 147.183C129.616 147.277 129.434 147.412 129.293 147.589C129.152 147.764 129.077 147.973 129.066 148.218H127.898C127.911 147.786 128.039 147.406 128.281 147.078C128.526 146.75 128.849 146.493 129.25 146.308C129.651 146.123 130.096 146.031 130.586 146.031C131.099 146.031 131.542 146.131 131.914 146.332C132.289 146.529 132.578 146.794 132.781 147.125C132.987 147.455 133.089 147.817 133.086 148.21C133.089 148.658 132.964 149.039 132.711 149.351C132.461 149.664 132.128 149.873 131.711 149.98V150.042C132.242 150.123 132.654 150.334 132.945 150.675C133.24 151.016 133.385 151.44 133.383 151.945C133.385 152.385 133.263 152.779 133.016 153.128C132.771 153.477 132.436 153.752 132.012 153.953C131.587 154.151 131.102 154.25 130.555 154.25ZM141.153 152.695L143.091 148.14H144.099L141.587 154.14H140.72L138.259 148.14H139.255L141.153 152.695ZM138.931 148.14V154.14H137.786V148.14H138.931ZM143.407 154.14V148.14H144.544V154.14H143.407ZM146.101 154.14V148.14H147.269V154.14H146.101ZM146.69 147.214C146.487 147.214 146.313 147.147 146.167 147.011C146.024 146.873 145.952 146.709 145.952 146.519C145.952 146.326 146.024 146.162 146.167 146.027C146.313 145.889 146.487 145.82 146.69 145.82C146.894 145.82 147.067 145.889 147.21 146.027C147.356 146.162 147.429 146.326 147.429 146.519C147.429 146.709 147.356 146.873 147.21 147.011C147.067 147.147 146.894 147.214 146.69 147.214ZM151.367 154.261C150.786 154.261 150.286 154.13 149.867 153.867C149.451 153.601 149.13 153.235 148.906 152.769C148.682 152.303 148.57 151.769 148.57 151.167C148.57 150.558 148.685 150.02 148.914 149.554C149.143 149.085 149.466 148.72 149.883 148.457C150.299 148.194 150.79 148.062 151.355 148.062C151.811 148.062 152.217 148.147 152.574 148.316C152.931 148.483 153.219 148.717 153.438 149.019C153.659 149.321 153.79 149.674 153.832 150.078H152.695C152.633 149.796 152.49 149.554 152.266 149.351C152.044 149.148 151.747 149.046 151.375 149.046C151.049 149.046 150.764 149.132 150.52 149.304C150.277 149.473 150.089 149.716 149.953 150.031C149.818 150.343 149.75 150.713 149.75 151.14C149.75 151.578 149.816 151.955 149.949 152.273C150.082 152.591 150.27 152.837 150.512 153.011C150.757 153.186 151.044 153.273 151.375 153.273C151.596 153.273 151.797 153.233 151.977 153.152C152.159 153.069 152.311 152.95 152.434 152.796C152.559 152.643 152.646 152.458 152.695 152.242H153.832C153.79 152.63 153.664 152.976 153.453 153.281C153.242 153.585 152.96 153.825 152.605 154C152.254 154.174 151.841 154.261 151.367 154.261ZM158.659 154.14V149.136H157.222C156.881 149.136 156.615 149.216 156.425 149.375C156.235 149.533 156.14 149.742 156.14 150C156.14 150.255 156.227 150.46 156.401 150.617C156.578 150.77 156.826 150.847 157.144 150.847H158.999V151.792H157.144C156.701 151.792 156.318 151.72 155.995 151.574C155.675 151.425 155.427 151.216 155.253 150.945C155.081 150.674 154.995 150.354 154.995 149.984C154.995 149.606 155.084 149.281 155.261 149.007C155.44 148.731 155.697 148.518 156.03 148.367C156.366 148.216 156.763 148.14 157.222 148.14H159.757V154.14H158.659ZM154.722 154.14L156.413 151.109H157.608L155.917 154.14H154.722ZM166.206 148.14V153.183H167.085V156.074H165.933V154.14H161.312V148.14H162.456V153.132H165.065V148.14H166.206ZM168.38 154.14V148.14H169.548V154.14H168.38ZM168.97 147.214C168.767 147.214 168.592 147.147 168.446 147.011C168.303 146.873 168.231 146.709 168.231 146.519C168.231 146.326 168.303 146.162 168.446 146.027C168.592 145.889 168.767 145.82 168.97 145.82C169.173 145.82 169.346 145.889 169.489 146.027C169.635 146.162 169.708 146.326 169.708 146.519C169.708 146.709 169.635 146.873 169.489 147.011C169.346 147.147 169.173 147.214 168.97 147.214Z" fill="#229362"/>
        <path d="M315.563 154.25C315.206 154.244 314.854 154.179 314.508 154.054C314.164 153.929 313.852 153.721 313.57 153.429C313.289 153.138 313.064 152.746 312.895 152.253C312.728 151.761 312.645 151.147 312.645 150.41C312.645 149.712 312.714 149.092 312.852 148.55C312.992 148.009 313.194 147.552 313.457 147.179C313.72 146.804 314.038 146.519 314.41 146.324C314.783 146.128 315.201 146.031 315.664 146.031C316.141 146.031 316.564 146.125 316.934 146.312C317.303 146.5 317.603 146.759 317.832 147.089C318.064 147.42 318.211 147.796 318.273 148.218H317.082C317.001 147.885 316.841 147.613 316.602 147.402C316.362 147.191 316.049 147.085 315.664 147.085C315.078 147.085 314.621 147.341 314.293 147.851C313.967 148.361 313.803 149.071 313.801 149.98H313.859C313.997 149.753 314.167 149.561 314.367 149.402C314.57 149.24 314.797 149.117 315.047 149.031C315.299 148.942 315.565 148.898 315.844 148.898C316.307 148.898 316.727 149.011 317.102 149.238C317.479 149.462 317.78 149.772 318.004 150.167C318.228 150.563 318.34 151.016 318.34 151.527C318.34 152.037 318.224 152.5 317.992 152.914C317.763 153.328 317.44 153.656 317.023 153.898C316.607 154.138 316.12 154.255 315.563 154.25ZM315.559 153.234C315.866 153.234 316.141 153.158 316.383 153.007C316.625 152.856 316.816 152.653 316.957 152.398C317.098 152.143 317.168 151.858 317.168 151.542C317.168 151.235 317.099 150.955 316.961 150.703C316.826 150.45 316.638 150.25 316.398 150.101C316.161 149.953 315.891 149.878 315.586 149.878C315.354 149.878 315.139 149.923 314.941 150.011C314.746 150.1 314.574 150.222 314.426 150.378C314.277 150.535 314.16 150.714 314.074 150.917C313.991 151.118 313.949 151.33 313.949 151.554C313.949 151.854 314.018 152.131 314.156 152.386C314.297 152.641 314.488 152.847 314.73 153.003C314.975 153.157 315.251 153.234 315.559 153.234ZM326.057 152.695L327.994 148.14H329.002L326.49 154.14H325.623L323.162 148.14H324.158L326.057 152.695ZM323.834 148.14V154.14H322.689V148.14H323.834ZM328.311 154.14V148.14H329.447V154.14H328.311ZM331.004 154.14V148.14H332.172V154.14H331.004ZM331.594 147.214C331.391 147.214 331.216 147.147 331.07 147.011C330.927 146.873 330.855 146.709 330.855 146.519C330.855 146.326 330.927 146.162 331.07 146.027C331.216 145.889 331.391 145.82 331.594 145.82C331.797 145.82 331.97 145.889 332.113 146.027C332.259 146.162 332.332 146.326 332.332 146.519C332.332 146.709 332.259 146.873 332.113 147.011C331.97 147.147 331.797 147.214 331.594 147.214ZM336.271 154.261C335.69 154.261 335.19 154.13 334.771 153.867C334.354 153.601 334.034 153.235 333.81 152.769C333.586 152.303 333.474 151.769 333.474 151.167C333.474 150.558 333.588 150.02 333.817 149.554C334.047 149.085 334.369 148.72 334.786 148.457C335.203 148.194 335.694 148.062 336.259 148.062C336.715 148.062 337.121 148.147 337.478 148.316C337.834 148.483 338.122 148.717 338.341 149.019C338.562 149.321 338.694 149.674 338.735 150.078H337.599C337.536 149.796 337.393 149.554 337.169 149.351C336.948 149.148 336.651 149.046 336.278 149.046C335.953 149.046 335.668 149.132 335.423 149.304C335.181 149.473 334.992 149.716 334.856 150.031C334.721 150.343 334.653 150.713 334.653 151.14C334.653 151.578 334.72 151.955 334.853 152.273C334.985 152.591 335.173 152.837 335.415 153.011C335.66 153.186 335.948 153.273 336.278 153.273C336.5 153.273 336.7 153.233 336.88 153.152C337.062 153.069 337.215 152.95 337.337 152.796C337.462 152.643 337.549 152.458 337.599 152.242H338.735C338.694 152.63 338.567 152.976 338.356 153.281C338.146 153.585 337.863 153.825 337.509 154C337.157 154.174 336.744 154.261 336.271 154.261ZM343.563 154.14V149.136H342.125C341.784 149.136 341.518 149.216 341.328 149.375C341.138 149.533 341.043 149.742 341.043 150C341.043 150.255 341.13 150.46 341.305 150.617C341.482 150.77 341.729 150.847 342.047 150.847H343.902V151.792H342.047C341.604 151.792 341.221 151.72 340.898 151.574C340.578 151.425 340.331 151.216 340.156 150.945C339.984 150.674 339.898 150.354 339.898 149.984C339.898 149.606 339.987 149.281 340.164 149.007C340.344 148.731 340.6 148.518 340.934 148.367C341.27 148.216 341.667 148.14 342.125 148.14H344.66V154.14H343.563ZM339.625 154.14L341.316 151.109H342.512L340.82 154.14H339.625ZM351.109 148.14V153.183H351.988V156.074H350.836V154.14H346.215V148.14H347.359V153.132H349.969V148.14H351.109ZM353.283 154.14V148.14H354.451V154.14H353.283ZM353.873 147.214C353.67 147.214 353.495 147.147 353.35 147.011C353.206 146.873 353.135 146.709 353.135 146.519C353.135 146.326 353.206 146.162 353.35 146.027C353.495 145.889 353.67 145.82 353.873 145.82C354.076 145.82 354.249 145.889 354.393 146.027C354.538 146.162 354.611 146.326 354.611 146.519C354.611 146.709 354.538 146.873 354.393 147.011C354.249 147.147 354.076 147.214 353.873 147.214ZM356.022 154.14V148.14H358.511C359.188 148.14 359.724 148.285 360.12 148.574C360.516 148.86 360.714 149.25 360.714 149.742C360.714 150.093 360.602 150.372 360.378 150.578C360.154 150.783 359.857 150.921 359.487 150.992C359.756 151.023 360.002 151.104 360.226 151.234C360.45 151.361 360.629 151.533 360.765 151.75C360.903 151.966 360.972 152.223 360.972 152.523C360.972 152.841 360.89 153.122 360.726 153.367C360.562 153.609 360.323 153.799 360.011 153.937C359.701 154.072 359.327 154.14 358.89 154.14H356.022ZM357.12 153.164H358.89C359.179 153.164 359.405 153.095 359.569 152.957C359.733 152.819 359.815 152.631 359.815 152.394C359.815 152.115 359.733 151.897 359.569 151.738C359.405 151.576 359.179 151.496 358.89 151.496H357.12V153.164ZM357.12 150.64H358.522C358.741 150.64 358.929 150.609 359.085 150.546C359.244 150.484 359.365 150.395 359.448 150.281C359.534 150.164 359.577 150.026 359.577 149.867C359.577 149.635 359.482 149.454 359.292 149.324C359.102 149.194 358.841 149.128 358.511 149.128H357.12V150.64Z" fill="#229362"/>
    </g>
    <defs>
        <clipPath id="clip0_52_38">
            <rect width="361" height="161" fill="white"/>
        </clipPath>
        <clipPath id="clip1_52_38">
            <rect width="361" height="152.34" fill="white"/>
        </clipPath>
        <clipPath id="clip2_52_38">
            <rect width="361" height="152.337" fill="white" transform="translate(0 0.00146484)"/>
        </clipPath>
    </defs>
</svg>
