<svg width="18" height="19" viewBox="0 0 18 19" fill="none" xmlns="http://www.w3.org/2000/svg">
<g id="SVG">
<path id="Vector" d="M5.81263 2.18494C5.81263 1.87428 5.56078 1.62244 5.25013 1.62244C4.93947 1.62244 4.68763 1.87428 4.68763 2.18494V3.36938C3.60813 3.45582 2.89945 3.66796 2.3788 4.18861C1.85815 4.70926 1.64601 5.41794 1.55957 6.49744H16.4407C16.3543 5.41794 16.1421 4.70926 15.6214 4.18861C15.1008 3.66796 14.3921 3.45582 13.3126 3.36938V2.18494C13.3126 1.87428 13.0608 1.62244 12.7501 1.62244C12.4395 1.62244 12.1876 1.87428 12.1876 2.18494V3.31961C11.6887 3.30994 11.1294 3.30994 10.5001 3.30994H7.50013C6.87085 3.30994 6.31158 3.30994 5.81263 3.31961V2.18494Z" fill="#474747"/>
<path id="Vector_2" fill-rule="evenodd" clip-rule="evenodd" d="M16.5 9.30994V10.8099C16.5 13.6383 16.5 15.0526 15.6213 15.9312C14.7427 16.8099 13.3284 16.8099 10.5 16.8099H7.5C4.67157 16.8099 3.25736 16.8099 2.37868 15.9312C1.5 15.0526 1.5 13.6383 1.5 10.8099V9.30994C1.5 8.68069 1.5 8.12141 1.50968 7.62244H16.4903C16.5 8.12141 16.5 8.68069 16.5 9.30994ZM12 10.2474C12.3106 10.2474 12.5625 10.4993 12.5625 10.8099V11.7474H13.5C13.8106 11.7474 14.0625 11.9993 14.0625 12.3099C14.0625 12.6206 13.8106 12.8724 13.5 12.8724H12.5625V13.8099C12.5625 14.1206 12.3106 14.3724 12 14.3724C11.6894 14.3724 11.4375 14.1206 11.4375 13.8099V12.8724H10.5C10.1894 12.8724 9.9375 12.6206 9.9375 12.3099C9.9375 11.9993 10.1894 11.7474 10.5 11.7474H11.4375V10.8099C11.4375 10.4993 11.6894 10.2474 12 10.2474Z" fill="#474747"/>
</g>
</svg>
