<svg width="21" height="21" viewBox="0 0 21 21" fill="none" xmlns="http://www.w3.org/2000/svg">
<g id="SVG">
<path id="Vector" d="M10.3522 11.9086C10.0022 11.9089 9.65993 11.8052 9.36891 11.6107C9.07789 11.4162 8.85122 11.1396 8.71765 10.816C8.58408 10.4925 8.54965 10.1365 8.61871 9.79333C8.68777 9.45016 8.85722 9.13525 9.10555 8.88855C9.15239 8.84215 9.20791 8.80543 9.26894 8.78049C9.32997 8.75554 9.39531 8.74286 9.46124 8.74317C9.52717 8.74348 9.5924 8.75677 9.65319 8.78229C9.71398 8.80781 9.76915 8.84505 9.81555 8.89188C9.86195 8.93872 9.89868 8.99424 9.92362 9.05527C9.94856 9.1163 9.96124 9.18164 9.96093 9.24757C9.96062 9.3135 9.94733 9.37873 9.92182 9.43952C9.8963 9.50031 9.85906 9.55548 9.81222 9.60188C9.7403 9.6722 9.68319 9.75621 9.64426 9.84896C9.60534 9.9417 9.58537 10.0413 9.58555 10.1419C9.57669 10.3002 9.61758 10.4574 9.70249 10.5913C9.7874 10.7253 9.91209 10.8293 10.059 10.8888C10.206 10.9484 10.368 10.9604 10.5221 10.9233C10.6763 10.8862 10.815 10.8018 10.9189 10.6819C11.0137 10.5879 11.1419 10.5351 11.2755 10.5351C11.4091 10.5351 11.5373 10.5879 11.6322 10.6819C11.7247 10.7776 11.7763 10.9055 11.7763 11.0386C11.7763 11.1717 11.7247 11.2995 11.6322 11.3953C11.4637 11.5617 11.2637 11.6928 11.0439 11.7809C10.8241 11.8691 10.589 11.9125 10.3522 11.9086Z" fill="#4DC591"/>
<path id="Vector_2" d="M17.1862 10.1434C17.1862 11.9557 16.4662 13.6938 15.1847 14.9753C13.9032 16.2568 12.1651 16.9768 10.3528 16.9768C8.54055 16.9768 6.80247 16.2568 5.52097 14.9753C4.23947 13.6938 3.51953 11.9557 3.51953 10.1434C3.51953 8.33108 4.23947 6.59299 5.52097 5.3115C6.80247 4.03 8.54055 3.31006 10.3528 3.31006C10.4854 3.31006 10.6126 3.36274 10.7064 3.45651C10.8002 3.55027 10.8528 3.67745 10.8528 3.81006V6.34339C10.8511 6.47546 10.7979 6.60164 10.7045 6.69504C10.6111 6.78843 10.4849 6.84167 10.3528 6.84339C9.69996 6.8389 9.06093 7.03177 8.51953 7.39673C7.97508 7.75756 7.55049 8.27243 7.29995 8.87563C7.04941 9.47884 6.98427 10.143 7.11286 10.7834C7.32199 11.5432 7.79349 12.2042 8.4437 12.6493C9.09391 13.0945 9.88079 13.2948 10.6647 13.2149C11.4486 13.135 12.1788 12.78 12.7259 12.2128C13.2729 11.6457 13.6013 10.9031 13.6528 10.1167C13.652 10.0508 13.6644 9.98546 13.6893 9.92444C13.7141 9.86341 13.7509 9.80797 13.7975 9.76138C13.8441 9.71479 13.8995 9.67799 13.9605 9.65315C14.0216 9.6283 14.087 9.61592 14.1528 9.61673H16.6862C16.7541 9.61663 16.8214 9.63039 16.8839 9.65717C16.9463 9.68395 17.0027 9.72318 17.0495 9.77247C17.0963 9.82176 17.1325 9.88008 17.156 9.94385C17.1795 10.0076 17.1898 10.0755 17.1862 10.1434Z" fill="#4DC591"/>
<path id="Vector_3" d="M16.9457 6.22782C16.9283 6.35752 16.8753 6.47984 16.7924 6.58115L15.3457 8.02782C15.1406 8.23508 14.8858 8.38652 14.6057 8.46782C14.4418 8.51874 14.2708 8.54349 14.0991 8.54115C13.9815 8.55101 13.8633 8.55101 13.7457 8.54115L12.8591 8.36782L11.3391 9.89448C11.2439 9.98593 11.1177 10.0383 10.9857 10.0411C10.8532 10.041 10.7261 9.98828 10.6324 9.89448C10.5852 9.84852 10.5478 9.79358 10.5222 9.73289C10.4966 9.67221 10.4834 9.60701 10.4834 9.54115C10.4834 9.47529 10.4966 9.41009 10.5222 9.34941C10.5478 9.28872 10.5852 9.23378 10.6324 9.18782L12.1591 7.65448L11.9791 6.77448C11.9253 6.49084 11.939 6.19852 12.0191 5.92115C12.1004 5.64105 12.2518 5.38635 12.4591 5.18115L13.8924 3.74782C13.9909 3.65822 14.114 3.60018 14.2457 3.58115C14.3691 3.56283 14.495 3.58382 14.6057 3.64115C14.7158 3.6971 14.8081 3.78249 14.8724 3.88782C14.9375 4.00567 14.9654 4.14047 14.9524 4.27448L14.7391 5.78115L16.2391 5.57448C16.3646 5.56216 16.491 5.58802 16.6016 5.64868C16.7122 5.70935 16.802 5.80199 16.8591 5.91448C16.9134 6.01018 16.9432 6.11782 16.9457 6.22782Z" fill="#4DC591"/>
</g>
</svg>
