<svg width="18" height="19" viewBox="0 0 18 19" fill="none" xmlns="http://www.w3.org/2000/svg">
<g id="SVG">
<path id="Vector" d="M12.4467 9.98664C13.8664 9.98664 15.088 8.71883 15.088 7.06807C15.088 5.43711 13.8598 4.22876 12.4467 4.22876C11.0337 4.22876 9.80553 5.46353 9.80553 7.08128C9.80553 8.71883 11.0271 9.98664 12.4467 9.98664ZM4.84663 10.1385C6.07481 10.1385 7.14452 9.0292 7.14452 7.59633C7.14452 6.17668 6.06822 5.12677 4.84663 5.12677C3.61848 5.12677 2.53559 6.20307 2.54218 7.60955C2.54218 9.0292 3.61189 10.1385 4.84663 10.1385ZM1.16212 16.1011H6.18046C5.49376 15.104 6.33234 13.0967 7.75199 12.0006C7.01907 11.5119 6.07481 11.1488 4.84004 11.1488C1.86207 11.1488 0 13.3476 0 15.1766C0 15.7709 0.330139 16.1011 1.16212 16.1011ZM8.29344 16.1011H16.5935C17.6301 16.1011 18 15.8039 18 15.2229C18 13.5193 15.8671 11.1686 12.4401 11.1686C9.0198 11.1686 6.88699 13.5193 6.88699 15.2229C6.88699 15.8039 7.25676 16.1011 8.29344 16.1011Z" fill="#474747"/>
</g>
</svg>
