<svg width="21" height="21" viewBox="0 0 21 21" fill="none" xmlns="http://www.w3.org/2000/svg">
<g id="SVG">
<g id="Clip path group">
<mask id="mask0_132_217" style="mask-type:luminance" maskUnits="userSpaceOnUse" x="0" y="2" width="19" height="17">
<g id="clip0_28896_7034">
<path id="Vector" d="M18.3754 2.1001H0.525391V18.9001H18.3754V2.1001Z" fill="white"/>
</g>
</mask>
<g mask="url(#mask0_132_217)">
<g id="Group">
<path id="Vector_2" d="M12.1575 4.24611L13.422 6.7753C13.5925 7.12508 14.0499 7.45692 14.4356 7.52868L16.7226 7.90536C18.1845 8.14751 18.5254 9.20583 17.476 10.2641L15.6912 12.0489C15.3952 12.3449 15.2248 12.9279 15.3235 13.3494L15.8347 15.5557C16.2382 17.2957 15.3055 17.9772 13.7719 17.0625L11.6283 15.7889C11.2427 15.5557 10.5969 15.5557 10.2113 15.7889L8.06775 17.0625C6.53409 17.9683 5.60134 17.2957 6.00493 15.5557L6.51616 13.3494C6.59687 12.9189 6.42646 12.3359 6.1305 12.0399L4.34571 10.2552C3.29637 9.20583 3.63718 8.14751 5.09909 7.89639L7.38612 7.51971C7.77178 7.45692 8.22919 7.11611 8.39959 6.76633L9.66418 4.23714C10.3548 2.87389 11.4669 2.87389 12.1575 4.24611Z" fill="#49AFFF"/>
</g>
</g>
</g>
</g>
</svg>
