<svg width="120" height="26" viewBox="0 0 120 26" fill="none" xmlns="http://www.w3.org/2000/svg">
<g clip-path="url(#clip0_420_411)">
<path d="M6.80277 19.0182C10.0927 19.0182 12.1603 16.9369 12.7248 15.0451L10.0456 13.9578C9.6469 15.3767 8.47083 16.3462 6.87345 16.3462C4.87558 16.3462 3.32441 14.8331 3.32441 12.5154C3.32441 10.1977 4.87558 8.68455 6.84898 8.68455C8.44727 8.68455 9.57623 9.65403 9.97489 11.0965L12.6541 10.0328C12.0905 8.0938 10.022 6.01257 6.80277 6.01257C3.06618 6.01257 0.339844 8.85036 0.339844 12.5389C0.339844 16.2275 3.11239 19.0182 6.80277 19.0182ZM17.3122 7.66795V6.27261H14.4916V18.7355H17.4762V11.641C17.4762 9.96209 18.8398 8.80415 21.0007 8.80415V5.98902C19.4514 5.98902 18.1584 6.6749 17.3122 7.66795ZM31.2619 6.27261L27.76 16.3226L24.5643 6.27261H21.4855L25.8563 18.7346H26.7968L25.1043 22.9668H28.0417L29.64 18.7346L34.3633 6.27261H31.2619ZM42.7679 5.98902C41.0057 5.98902 39.5723 6.69846 38.6091 7.90443V6.27352H35.8357V22.9668H38.8202V17.4099C39.7598 18.4265 41.0763 19.0182 42.6982 19.0182C46.2463 19.0182 48.8313 16.2275 48.8313 12.5154C48.8313 8.77968 46.317 5.98902 42.7679 5.98902ZM42.2977 16.3698C40.1594 16.3698 38.7024 14.7851 38.7024 12.5154C38.7024 10.2457 40.1594 8.66099 42.2977 8.66099C44.3427 8.66099 45.8467 10.2919 45.8467 12.5154C45.8467 14.7144 44.3427 16.3698 42.2977 16.3698ZM56.2066 18.7346H58.1574V16.1097H56.7938C55.4546 16.1097 54.7261 15.3296 54.7261 13.8871V8.84945H58.0632V6.27352H54.8195V3.03345H51.9056V4.99597C51.9056 5.84767 51.5069 6.27352 50.6842 6.27352H49.5562V8.85036H51.718V14.2179C51.718 16.9605 53.2456 18.7346 56.2066 18.7346ZM65.5807 19.0182C69.4351 19.0182 72.1841 16.2275 72.1841 12.5154C72.1841 8.77968 69.4351 5.98902 65.5807 5.98902C61.7028 5.98902 58.9774 8.77968 58.9774 12.5154C58.9774 16.2275 61.7028 19.0182 65.5807 19.0182ZM65.6043 16.3453C63.4424 16.3453 61.9619 14.7379 61.9619 12.5154C61.9619 10.2683 63.4424 8.68455 65.6043 8.68455C67.7426 8.68455 69.176 10.2692 69.176 12.4918C69.176 14.7388 67.719 16.3453 65.6043 16.3453ZM88.987 5.98902C86.8949 5.98902 85.4851 6.86427 84.8037 8.02312C84.0988 6.72202 82.853 5.98902 80.8787 5.98902C79.2106 5.98902 77.9177 6.69846 77.1421 7.64439V6.27261H74.3224V18.7101H77.307V11.1681C77.3305 9.98656 78.2701 8.68545 79.9617 8.6619C81.6307 8.6619 82.5476 9.91498 82.5476 11.5468V18.711H85.5322V11.1681C85.5558 10.0101 86.4718 8.68545 88.187 8.6619C89.8568 8.6619 90.7493 9.93944 90.7493 11.5468V18.711H93.7339V11.0023C93.7339 8.18803 92.0667 5.98902 88.987 5.98902ZM104.696 6.27261V13.8156C104.696 15.1873 103.615 16.3226 101.947 16.3462C100.278 16.3462 99.221 15.2345 99.221 13.6271V6.27261H96.2364V14.0049C96.2364 16.8898 97.928 19.0182 101.077 19.0182C102.676 19.0182 104.015 18.3323 104.885 17.3628V18.7346H107.681V6.27261H104.696ZM114.817 19.0182C117.918 19.0182 119.94 17.5522 119.94 15.0696C119.94 10.5057 113.148 11.8059 113.148 9.53624C113.148 8.77968 113.736 8.30672 114.841 8.30672C115.874 8.30672 116.603 8.75613 116.932 9.70205L119.54 8.68455C119.023 6.98206 117.284 5.98902 114.887 5.98902C111.973 5.98902 110.093 7.40791 110.093 9.67759C110.093 13.9578 116.885 12.8225 116.885 15.2816C116.885 16.1568 116.133 16.6534 114.934 16.6534C113.43 16.6534 112.467 15.9675 112.114 14.8086L109.506 15.8261C110.187 17.93 112.138 19.0182 114.817 19.0182Z" fill="#C1C1C1"/>
</g>
<defs>
<clipPath id="clip0_420_411">
<rect width="119.6" height="26" fill="white" transform="translate(0.339844)"/>
</clipPath>
</defs>
</svg>
