<svg width="31" height="30" viewBox="0 0 31 30" fill="none" xmlns="http://www.w3.org/2000/svg">
<path d="M27.5157 7.0892L16.119 0.508363C15.8649 0.362123 15.5768 0.285156 15.2836 0.285156C14.9904 0.285156 14.7023 0.362123 14.4482 0.508363L3.05151 7.0892C2.79736 7.23612 2.5863 7.44726 2.43945 7.70145C2.29261 7.95565 2.21516 8.24397 2.21484 8.53753V21.6967C2.21484 22.2909 2.53484 22.845 3.05151 23.145L14.4482 29.725C14.7033 29.8698 14.9915 29.9459 15.2848 29.9459C15.5781 29.9459 15.8664 29.8698 16.1215 29.725L27.519 23.145C27.7732 22.9981 27.9842 22.787 28.1311 22.5328C28.2779 22.2786 28.3554 21.9903 28.3557 21.6967V8.53753C28.3557 7.94336 28.0348 7.3892 27.519 7.0892H27.5157ZM15.5415 14.3C15.463 14.3454 15.3739 14.3693 15.2832 14.3693C15.1925 14.3693 15.1034 14.3454 15.0248 14.3L3.94651 7.90586L15.0265 1.51003C15.1056 1.46625 15.1945 1.44329 15.2848 1.44329C15.3752 1.44329 15.4641 1.46625 15.5432 1.51003L26.6223 7.90586L15.5415 14.3ZM14.4482 15.2975C14.5293 15.3442 14.616 15.3836 14.7082 15.4159V28.535L3.62818 22.1434C3.54947 22.0981 3.48408 22.0329 3.43858 21.9544C3.39308 21.8758 3.36909 21.7866 3.36901 21.6959V8.90336L14.4482 15.2975Z" fill="#C1C1C1"/>
</svg>
