<svg xmlns="http://www.w3.org/2000/svg" width="24" height="24" viewBox="0 0 24 24" fill="none">
    <g clip-path="url(#clip0_440_1062)">
        <path d="M11.6025 18.3982C11.622 18.4177 11.6512 18.411 11.6722 18.4267C11.7112 18.4567 11.7382 18.5002 11.7847 18.5197C11.8485 18.546 11.9228 18.5617 12 18.5625C12.1552 18.5625 12.2955 18.4995 12.3975 18.3982L16.1483 14.6482C16.2502 14.5462 16.3132 14.4052 16.3132 14.25C16.3132 13.9387 16.0612 13.6867 15.75 13.6867C15.5948 13.6867 15.4537 13.7497 15.3517 13.8517L12.5625 16.6425V1.50073C12.5625 1.19023 12.3105 0.938232 12 0.938232C11.6895 0.938232 11.4375 1.19023 11.4375 1.50073V16.6417L8.6475 13.8517C8.5455 13.7512 8.406 13.6882 8.2515 13.6882C7.94025 13.6882 7.68825 13.9402 7.68825 14.2515C7.68825 14.4067 7.7505 14.547 7.8525 14.6482L11.6025 18.3982ZM22.5 21.9375H1.5C1.1895 21.9375 0.9375 22.1895 0.9375 22.5C0.9375 22.8105 1.1895 23.0625 1.5 23.0625H22.5C22.8105 23.0625 23.0625 22.8105 23.0625 22.5C23.0625 22.1895 22.8105 21.9375 22.5 21.9375Z" fill="black"/>
    </g>
    <defs>
        <clipPath id="clip0_440_1062">
            <rect width="24" height="24" fill="white"/>
        </clipPath>
    </defs>
</svg>