<svg xmlns="http://www.w3.org/2000/svg" width="32" height="32" viewBox="0 0 32 32" fill="none">
    <path d="M16 30.5C24.0081 30.5 30.5 24.0081 30.5 16C30.5 7.99187 24.0081 1.5 16 1.5C7.99187 1.5 1.5 7.99187 1.5 16C1.5 24.0081 7.99187 30.5 16 30.5Z" fill="#262626" stroke="#E9E9E9"/>
    <path d="M14.8465 22.3465L14.8991 22.9442C15.0395 22.9318 15.1711 22.8705 15.2708 22.7708L14.8465 22.3465ZM10.0805 22.7659L9.48278 22.7133C9.46722 22.8901 9.53072 23.0647 9.6562 23.1902C9.78169 23.3157 9.95629 23.3792 10.1331 23.3636L10.0805 22.7659ZM10.4999 17.9999L10.0756 17.5756C9.97594 17.6753 9.91455 17.8069 9.90219 17.9473L10.4999 17.9999ZM14.7939 21.7488L10.0279 22.1682L10.1331 23.3636L14.8991 22.9442L14.7939 21.7488ZM10.6782 22.8185L11.0976 18.0525L9.90219 17.9473L9.48278 22.7133L10.6782 22.8185ZM20.5228 9.4259L23.4205 12.3237L24.269 11.4751L21.3713 8.57737L20.5228 9.4259ZM10.9242 18.4242L18.0541 11.2942L17.2056 10.4457L10.0756 17.5756L10.9242 18.4242ZM18.0541 11.2942L19.9224 9.4259L19.0739 8.57737L17.2056 10.4457L18.0541 11.2942ZM23.4205 12.924L21.5522 14.7923L22.4008 15.6408L24.269 13.7725L23.4205 12.924ZM21.5522 14.7923L14.4223 21.9223L15.2708 22.7708L22.4008 15.6408L21.5522 14.7923ZM17.2056 11.2942L21.5522 15.6408L22.4008 14.7923L18.0541 10.4457L17.2056 11.2942ZM23.4205 12.3237C23.5863 12.4894 23.5863 12.7582 23.4205 12.924L24.269 13.7725C24.9034 13.1381 24.9034 12.1095 24.269 11.4751L23.4205 12.3237ZM21.3713 8.57737C20.7369 7.94296 19.7083 7.94296 19.0739 8.57737L19.9224 9.4259C20.0882 9.26012 20.357 9.26012 20.5228 9.4259L21.3713 8.57737Z" fill="white"/>
</svg>