<svg width="24" height="24" viewBox="0 0 24 24" fill="none" xmlns="http://www.w3.org/2000/svg">
<g id="SVG">
<path id="Vector" d="M19.2 12V21H4.8V12M12 21V7.5M12 7.5H7.95C7.65453 7.5 7.36194 7.4418 7.08896 7.32873C6.81598 7.21566 6.56794 7.04992 6.35901 6.84099C6.15008 6.63206 5.98434 6.38402 5.87127 6.11104C5.7582 5.83806 5.7 5.54547 5.7 5.25C5.7 4.95453 5.7582 4.66194 5.87127 4.38896C5.98434 4.11598 6.15008 3.86794 6.35901 3.65901C6.56794 3.45008 6.81598 3.28434 7.08896 3.17127C7.36194 3.0582 7.65453 3 7.95 3C11.1 3 12 7.5 12 7.5ZM12 7.5H16.05C16.6467 7.5 17.219 7.26295 17.641 6.84099C18.0629 6.41903 18.3 5.84674 18.3 5.25C18.3 4.65326 18.0629 4.08097 17.641 3.65901C17.219 3.23705 16.6467 3 16.05 3C12.9 3 12 7.5 12 7.5ZM3 7.5H21V12H3V7.5Z" stroke="#262626" stroke-width="1.5" stroke-linecap="round" stroke-linejoin="round"/>
</g>
</svg>
