<svg xmlns="http://www.w3.org/2000/svg" width="21" height="20" viewBox="0 0 21 20" fill="none">
    <path d="M4.59173 15.5041C5.47573 14.8481 6.43873 14.3301 7.48072 13.9501C8.52269 13.5701 9.63174 13.3801 10.8077 13.3801C11.9837 13.3801 13.0927 13.5701 14.1347 13.9501C15.1767 14.3301 16.1396 14.8481 17.0236 15.5041C17.6703 14.7934 18.1827 13.9708 18.5607 13.0362C18.9387 12.1014 19.1277 11.0894 19.1277 10.0001C19.1277 7.69476 18.3174 5.73176 16.6967 4.1111C15.076 2.49042 13.113 1.6801 10.8077 1.6801C8.50241 1.6801 6.53937 2.49042 4.9187 4.1111C3.29804 5.73176 2.4877 7.69476 2.4877 10.0001C2.4877 11.0894 2.6767 12.1014 3.05471 13.0362C3.43272 13.9708 3.94506 14.7934 4.59173 15.5041ZM10.808 10.7801C9.85846 10.7801 9.05766 10.4541 8.40569 9.80238C7.75372 9.15061 7.42773 8.34992 7.42773 7.40041C7.42773 6.45087 7.75362 5.6501 8.40538 4.99811C9.05725 4.34612 9.85784 4.02012 10.8074 4.02012C11.7569 4.02012 12.5577 4.34601 13.2097 4.9978C13.8616 5.6496 14.1877 6.45026 14.1877 7.39978C14.1877 8.34929 13.8617 9.15009 13.21 9.80207C12.5582 10.454 11.7575 10.7801 10.808 10.7801ZM10.8077 19.8801C9.4357 19.8801 8.14871 19.6221 6.94673 19.106C5.74473 18.5901 4.69907 17.8873 3.80973 16.998C2.92041 16.1087 2.21775 15.063 1.70175 13.8611C1.18574 12.6591 0.927734 11.3721 0.927734 10.0001C0.927734 8.62812 1.18574 7.3411 1.70175 6.13912C2.21775 4.93712 2.92041 3.89145 3.80973 3.00211C4.69907 2.11279 5.74473 1.41013 6.94673 0.894137C8.14871 0.37812 9.4357 0.120117 10.8077 0.120117C12.1797 0.120117 13.4667 0.37812 14.6687 0.894137C15.8707 1.41013 16.9163 2.11279 17.8057 3.00211C18.695 3.89145 19.3977 4.93712 19.9137 6.13912C20.4296 7.3411 20.6877 8.62812 20.6877 10.0001C20.6877 11.3721 20.4296 12.6591 19.9137 13.8611C19.3977 15.063 18.695 16.1087 17.8057 16.998C16.9163 17.8873 15.8707 18.5901 14.6687 19.106C13.4667 19.6221 12.1797 19.8801 10.8077 19.8801ZM10.8077 18.3201C11.7464 18.3201 12.6514 18.1691 13.5227 17.8671C14.394 17.565 15.1678 17.1428 15.8438 16.6001C15.1678 16.0774 14.4041 15.6701 13.5528 15.3781C12.7014 15.0861 11.7864 14.9401 10.8077 14.9401C9.82903 14.9401 8.91238 15.0844 8.05768 15.373C7.20301 15.6617 6.44101 16.0708 5.77169 16.6001C6.44769 17.1428 7.22136 17.565 8.09271 17.8671C8.96406 18.1691 9.86907 18.3201 10.8077 18.3201ZM10.8077 9.22009C11.3251 9.22009 11.7577 9.04609 12.1057 8.69811C12.4537 8.35013 12.6278 7.91742 12.6278 7.4001C12.6278 6.88276 12.4537 6.45009 12.1057 6.10207C11.7577 5.75407 11.3251 5.58006 10.8077 5.58006C10.2904 5.58006 9.85774 5.75407 9.50965 6.10207C9.16166 6.45009 8.98767 6.88276 8.98767 7.4001C8.98767 7.91742 9.16166 8.35013 9.50965 8.69811C9.85774 9.04609 10.2904 9.22009 10.8077 9.22009Z" fill="#262626"/>
</svg>