<svg width="17" height="16" viewBox="0 0 17 16" fill="none" xmlns="http://www.w3.org/2000/svg">
<g id="SVG">
<g id="Group">
<g id="Group_2">
<g id="Group_3">
<path id="Vector" d="M0.0195312 2.18542V12.5297H16.0195V2.18542H0.0195312ZM9.73296 7.52774L7.20037 9.61745C7.16122 9.64915 7.11324 9.66602 7.06466 9.66602C7.0338 9.66602 7.00266 9.65973 6.9738 9.6463C6.89921 9.61087 6.85124 9.53544 6.85124 9.45288V5.27432C6.85124 5.19175 6.89925 5.11632 6.9738 5.08173C7.04839 5.0463 7.13609 5.05745 7.20037 5.10975L9.73296 7.19917C9.78238 7.23917 9.81039 7.29973 9.81039 7.36317C9.81039 7.42743 9.78238 7.48803 9.73296 7.52774Z" fill="#474747"/>
</g>
<g id="Group_4">
<path id="Vector_2" d="M5.00195 13.8146H7.89654H10.8545V13.036H5.00195V13.8146Z" fill="#474747"/>
</g>
</g>
</g>
</g>
</svg>
