<svg width="19" height="19" viewBox="0 0 19 19" fill="none" xmlns="http://www.w3.org/2000/svg">
<g id="SVG">
<path id="Vector" fill-rule="evenodd" clip-rule="evenodd" d="M14.383 3.94494C12.943 2.60894 11.387 1.96094 9.49999 1.96094C7.63599 1.96094 6.02299 2.63994 4.61699 3.94494C3.21999 5.24394 2.42999 7.01994 2.42999 8.87794L2.43999 14.3629C2.50399 15.7369 3.49199 16.7089 4.78499 16.7089C5.22299 16.7089 5.54099 16.6209 5.92999 16.4309L6.24699 16.2669C6.46199 16.1569 6.56299 16.1319 6.72399 16.1589C6.80199 16.1719 6.89199 16.2179 7.03299 16.3239L7.41599 16.6329C8.05199 17.1369 8.64199 17.3889 9.50099 17.3889C10.306 17.3889 10.866 17.1709 11.453 16.7289L11.579 16.6309L11.665 16.5609L11.921 16.3529C12.083 16.2279 12.184 16.1749 12.278 16.1589C12.416 16.1359 12.51 16.1499 12.669 16.2249L12.755 16.2669C12.792 16.2849 12.833 16.3069 12.923 16.3549C13.383 16.5979 13.724 16.7089 14.218 16.7089C15.514 16.7089 16.463 15.7339 16.56 14.4089L16.573 8.87894C16.573 7.01994 15.783 5.24394 14.383 3.94494ZM5.49299 4.88694C6.66699 3.79494 7.97199 3.24694 9.49999 3.24694C11.053 3.24694 12.3 3.76594 13.508 4.88694C14.647 5.94494 15.286 7.38094 15.286 8.87794L15.276 14.3599C15.227 14.9939 14.809 15.4229 14.216 15.4229C14.002 15.4229 13.855 15.3829 13.626 15.2709L13.341 15.1219C12.901 14.8969 12.541 14.8119 12.064 14.8919C11.765 14.9419 11.518 15.0579 11.25 15.2489L11.134 15.3359C11.074 15.3829 10.914 15.5129 10.829 15.5829L10.775 15.6269C10.35 15.9669 10.033 16.1039 9.49999 16.1039C9.01599 16.1039 8.70199 15.9879 8.32899 15.7129L8.21399 15.6259L8.18399 15.5999C8.10199 15.5339 7.88399 15.3559 7.80499 15.2969C7.51499 15.0779 7.25299 14.9449 6.93699 14.8909C6.45999 14.8109 6.09899 14.8969 5.65999 15.1229L5.47899 15.2179C5.18699 15.3719 5.02899 15.4229 4.78399 15.4229C4.18599 15.4229 3.75599 14.9999 3.72399 14.3309L3.71399 8.87694C3.71399 7.38094 4.35499 5.94494 5.49299 4.88694ZM8.53599 9.03194C8.79166 9.03194 9.03686 8.93037 9.21764 8.74959C9.39843 8.5688 9.49999 8.32361 9.49999 8.06794C9.49999 7.81227 9.39843 7.56707 9.21764 7.38629C9.03686 7.2055 8.79166 7.10394 8.53599 7.10394C8.28032 7.10394 8.03513 7.2055 7.85434 7.38629C7.67356 7.56707 7.57199 7.81227 7.57199 8.06794C7.57199 8.32361 7.67356 8.5688 7.85434 8.74959C8.03513 8.93037 8.28032 9.03194 8.53599 9.03194ZM12.393 9.03194C12.6487 9.03194 12.8939 8.93037 13.0746 8.74959C13.2554 8.5688 13.357 8.32361 13.357 8.06794C13.357 7.81227 13.2554 7.56707 13.0746 7.38629C12.8939 7.2055 12.6487 7.10394 12.393 7.10394C12.1373 7.10394 11.8921 7.2055 11.7113 7.38629C11.5306 7.56707 11.429 7.81227 11.429 8.06794C11.429 8.32361 11.5306 8.5688 11.7113 8.74959C11.8921 8.93037 12.1373 9.03194 12.393 9.03194Z" fill="#333333"/>
</g>
</svg>
