<svg width="19" height="19" viewBox="0 0 19 19" fill="none" xmlns="http://www.w3.org/2000/svg">
<g id="SVG">
<path id="Vector" d="M6.285 10.3177C8.855 10.3177 11.107 11.3087 11.107 13.4857C11.107 14.6267 10.664 15.1387 9.727 15.1387H2.843C1.906 15.1387 1.463 14.6267 1.463 13.4857C1.463 11.3087 3.716 10.3177 6.285 10.3177ZM13.035 10.3177C15.605 10.3177 17.857 11.3087 17.857 13.4857C17.857 14.6267 17.414 15.1387 16.477 15.1387H12.714C12.5435 15.1387 12.3799 15.0709 12.2593 14.9504C12.1387 14.8298 12.071 14.6662 12.071 14.4957C12.071 14.3252 12.1387 14.1616 12.2593 14.041C12.3799 13.9204 12.5435 13.8527 12.714 13.8527H16.514L16.542 13.8547H16.55L16.552 13.8457C16.559 13.7937 16.567 13.7037 16.57 13.5707L16.571 13.4857C16.571 12.3077 14.971 11.6027 13.035 11.6027C12.76 11.6027 12.458 11.6227 12.155 11.6617C12.0703 11.6747 11.9838 11.6707 11.9006 11.6498C11.8175 11.6289 11.7393 11.5916 11.6708 11.5401C11.6023 11.4886 11.5448 11.4239 11.5016 11.3498C11.4585 11.2757 11.4306 11.1937 11.4196 11.1087C11.4086 11.0237 11.4147 10.9373 11.4375 10.8547C11.4604 10.772 11.4996 10.6948 11.5527 10.6275C11.6059 10.5603 11.6719 10.5043 11.747 10.4629C11.8221 10.4216 11.9047 10.3957 11.99 10.3867C12.3365 10.3413 12.6855 10.3189 13.035 10.3177ZM6.285 11.6027C4.349 11.6027 2.75 12.3077 2.75 13.4857C2.75 13.6657 2.76 13.7827 2.769 13.8457V13.8557L2.779 13.8547L2.791 13.8537H9.775C9.78066 13.8536 9.78633 13.8536 9.792 13.8537L9.8 13.8547L9.802 13.8457C9.81 13.7827 9.821 13.6657 9.821 13.4857C9.821 12.3077 8.221 11.6027 6.285 11.6027ZM13.035 3.88869C13.3981 3.88168 13.759 3.94713 14.0965 4.08122C14.434 4.21531 14.7414 4.41534 15.0007 4.66963C15.2599 4.92391 15.4659 5.22734 15.6066 5.56217C15.7472 5.897 15.8197 6.25651 15.8198 6.61968C15.8198 6.98285 15.7475 7.34239 15.607 7.67727C15.4664 8.01216 15.2606 8.31566 15.0014 8.57004C14.7422 8.82442 14.4349 9.02457 14.0974 9.15878C13.7599 9.29299 13.3991 9.35857 13.036 9.35169C12.3206 9.338 11.6391 9.04421 11.1381 8.53344C10.637 8.02268 10.3563 7.33571 10.3563 6.62019C10.3563 5.90467 10.637 5.21771 11.1381 4.70695C11.6391 4.19618 12.3206 3.90238 13.036 3.88869H13.035ZM6.285 3.88869C6.6481 3.88168 7.00896 3.94713 7.34647 4.08122C7.68397 4.21531 7.99136 4.41534 8.25065 4.66963C8.50994 4.92391 8.71593 5.22734 8.85658 5.56217C8.99722 5.897 9.0697 6.25651 9.06976 6.61968C9.06983 6.98285 8.99749 7.34239 8.85696 7.67727C8.71644 8.01216 8.51056 8.31566 8.25137 8.57004C7.99217 8.82442 7.68485 9.02457 7.34739 9.15878C7.00993 9.29299 6.6491 9.35857 6.286 9.35169C5.57061 9.338 4.88914 9.04421 4.38806 8.53344C3.88697 8.02268 3.60626 7.33571 3.60626 6.62019C3.60626 5.90467 3.88697 5.21771 4.38806 4.70695C4.88914 4.19618 5.56961 3.90238 6.285 3.88869ZM13.035 5.17469C12.8451 5.17469 12.6571 5.2121 12.4816 5.28476C12.3062 5.35743 12.1468 5.46394 12.0125 5.59822C11.8782 5.73249 11.7717 5.8919 11.6991 6.06733C11.6264 6.24277 11.589 6.4308 11.589 6.62069C11.589 6.81058 11.6264 6.99862 11.6991 7.17405C11.7717 7.34949 11.8782 7.5089 12.0125 7.64317C12.1468 7.77744 12.3062 7.88395 12.4816 7.95662C12.6571 8.02929 12.8451 8.06669 13.035 8.06669C13.4185 8.06669 13.7863 7.91435 14.0575 7.64317C14.3287 7.37199 14.481 7.0042 14.481 6.62069C14.481 6.23719 14.3287 5.86939 14.0575 5.59822C13.7863 5.32704 13.4185 5.17469 13.035 5.17469ZM6.285 5.17469C6.09511 5.17469 5.90707 5.2121 5.73164 5.28476C5.5562 5.35743 5.39679 5.46394 5.26252 5.59822C5.12825 5.73249 5.02174 5.8919 4.94907 6.06733C4.8764 6.24277 4.839 6.4308 4.839 6.62069C4.839 6.81058 4.8764 6.99862 4.94907 7.17405C5.02174 7.34949 5.12825 7.5089 5.26252 7.64317C5.39679 7.77744 5.5562 7.88395 5.73164 7.95662C5.90707 8.02929 6.09511 8.06669 6.285 8.06669C6.6685 8.06669 7.0363 7.91435 7.30747 7.64317C7.57865 7.37199 7.731 7.0042 7.731 6.62069C7.731 6.23719 7.57865 5.86939 7.30747 5.59822C7.0363 5.32704 6.6685 5.17469 6.285 5.17469Z" fill="#333333"/>
</g>
</svg>
