<svg width="19" height="19" viewBox="0 0 19 19" fill="none" xmlns="http://www.w3.org/2000/svg">
<g id="SVG">
<path id="Vector" d="M9.5 1.96094C10.5502 1.95954 11.5896 2.17327 12.554 2.58894L12.764 2.68394C13.5783 3.06382 14.3195 3.58371 14.954 4.21994C15.7686 5.03195 16.3907 6.0163 16.7745 7.10053C17.1584 8.18477 17.2942 9.34128 17.172 10.4849C17.1632 10.5689 17.1379 10.6503 17.0977 10.7246C17.0574 10.7988 17.0029 10.8644 16.9373 10.9175C16.8717 10.9707 16.7963 11.0104 16.7153 11.0344C16.6344 11.0584 16.5495 11.0662 16.4655 11.0574C16.3815 11.0486 16.3001 11.0234 16.2259 10.9831C16.1517 10.9429 16.0861 10.8884 16.0329 10.8228C15.9798 10.7572 15.94 10.6817 15.916 10.6008C15.892 10.5198 15.8842 10.4349 15.893 10.3509C15.9953 9.39772 15.8823 8.43368 15.5625 7.52991C15.2427 6.62613 14.7241 5.80565 14.045 5.12894C13.4699 4.55378 12.7913 4.09237 12.045 3.76894H12.042C11.2393 3.42266 10.3742 3.24433 9.5 3.24494C8.44638 3.24353 7.40869 3.50217 6.479 3.99794L6.436 4.02094C5.8914 4.31686 5.39227 4.68969 4.954 5.12794C4.35569 5.72421 3.88122 6.43292 3.55788 7.21329C3.23455 7.99365 3.06874 8.83025 3.07 9.67494C3.07 10.9699 3.452 12.1729 4.11 13.1809C4.15609 13.2517 4.18779 13.3309 4.20329 13.4139C4.21879 13.497 4.21778 13.5822 4.20032 13.6649C4.18287 13.7475 4.1493 13.8259 4.10155 13.8956C4.05379 13.9653 3.99278 14.0248 3.922 14.0709C3.85122 14.117 3.77205 14.1487 3.68901 14.1642C3.60598 14.1797 3.52071 14.1787 3.43806 14.1613C3.35542 14.1438 3.27702 14.1102 3.20735 14.0625C3.13768 14.0147 3.07809 13.9537 3.032 13.8829C2.21591 12.6314 1.78255 11.169 1.785 9.67494C1.785 7.54494 2.649 5.61494 4.045 4.21994C4.73611 3.52904 5.55181 2.97528 6.449 2.58794L6.453 2.58594C7.4155 2.17226 8.45236 1.95958 9.5 1.96094Z" fill="#333333"/>
<path id="Vector_2" fill-rule="evenodd" clip-rule="evenodd" d="M10.835 8.25957L16.559 12.9196C17.202 13.4416 16.614 14.4616 15.839 14.1666L8.942 11.5376C8.87196 11.5112 8.80352 11.4808 8.737 11.4466C8.48649 11.3392 8.26159 11.1799 8.07711 10.9793C7.89263 10.7786 7.75276 10.5412 7.66672 10.2826C7.58068 10.0239 7.55042 9.75002 7.57794 9.47886C7.60546 9.20769 7.69014 8.94544 7.82638 8.70937C7.96263 8.47331 8.14735 8.2688 8.36838 8.10932C8.58941 7.94984 8.84172 7.83901 9.1087 7.78413C9.37567 7.72926 9.65125 7.73158 9.91726 7.79095C10.1833 7.85032 10.4337 7.96538 10.652 8.12857C10.714 8.16857 10.775 8.21157 10.834 8.25957H10.835ZM9.821 9.11757C9.74785 9.07535 9.66711 9.04795 9.58337 9.03693C9.49964 9.02592 9.41455 9.03151 9.33297 9.05337C9.2514 9.07524 9.17493 9.11296 9.10793 9.16438C9.04093 9.21581 8.98472 9.27992 8.9425 9.35307C8.90028 9.42621 8.87288 9.50696 8.86186 9.59069C8.85085 9.67443 8.85644 9.75951 8.8783 9.84109C8.90017 9.92267 8.93789 9.99914 8.98932 10.0661C9.04074 10.1331 9.10485 10.1893 9.178 10.2316C9.32572 10.3168 9.50127 10.3399 9.66602 10.2958C9.83077 10.2516 9.97123 10.1438 10.0565 9.99607C10.1418 9.84834 10.1649 9.67279 10.1207 9.50804C10.0765 9.34329 9.96872 9.20283 9.821 9.11757Z" fill="#333333"/>
</g>
</svg>
