<svg width="19" height="19" viewBox="0 0 19 19" fill="none" xmlns="http://www.w3.org/2000/svg">
<g id="SVG">
<path id="Vector" d="M13.987 5.21702C14.22 5.45002 14.237 5.81702 14.037 6.07002L13.987 6.12602L13.206 6.90802C14.2464 8.18814 14.755 9.81917 14.6267 11.4638C14.4983 13.1084 13.7428 14.6407 12.5164 15.744C11.29 16.8472 9.68645 17.4368 8.03748 17.391C6.38851 17.3451 4.82024 16.6673 3.657 15.4976C2.49377 14.328 1.82456 12.756 1.78778 11.1068C1.751 9.45763 2.34946 7.85738 3.4594 6.63704C4.56934 5.4167 6.10583 4.66961 7.75112 4.5503C9.3964 4.43099 11.0246 4.94858 12.299 5.99602L13.078 5.21602C13.1986 5.09553 13.362 5.02786 13.5325 5.02786C13.7029 5.02786 13.8664 5.09653 13.987 5.21702ZM11.851 7.32402C11.375 6.83932 10.8078 6.45372 10.1819 6.18948C9.5561 5.92524 8.88413 5.78761 8.20482 5.78452C7.5255 5.78143 6.85231 5.91296 6.22411 6.1715C5.59591 6.43003 5.02515 6.81046 4.5448 7.29082C4.06444 7.77117 3.68401 8.34193 3.42548 8.97013C3.16694 9.59833 3.03541 10.2715 3.0385 10.9508C3.04159 11.6302 3.17922 12.3021 3.44346 12.9279C3.7077 13.5538 4.0933 14.121 4.578 14.597C5.54544 15.547 6.84892 16.0766 8.20482 16.0704C9.56071 16.0643 10.8593 15.5229 11.8181 14.5641C12.7769 13.6053 13.3182 12.3067 13.3244 10.9508C13.3306 9.59494 12.801 8.29146 11.851 7.32402ZM13.323 1.71402L13.347 1.78402L13.668 2.91102C13.7106 3.06797 13.6921 3.23523 13.6163 3.37911C13.5405 3.52299 13.413 3.6328 13.2595 3.68643C13.1059 3.74005 12.9378 3.73351 12.7889 3.66812C12.64 3.60273 12.5214 3.48335 12.457 3.33402L12.432 3.26402L12.111 2.13702C12.0664 1.97934 12.0836 1.81057 12.1592 1.66518C12.2348 1.51979 12.3631 1.40876 12.5178 1.35476C12.6725 1.30076 12.842 1.30787 12.9917 1.37464C13.1413 1.44141 13.2598 1.5628 13.323 1.71402ZM17.821 6.52402C17.7642 6.67493 17.6548 6.80029 17.513 6.87707C17.3712 6.95385 17.2064 6.97691 17.049 6.94202L16.974 6.92202L15.807 6.53402C15.7254 6.5087 15.6498 6.46723 15.5846 6.41209C15.5194 6.35695 15.4659 6.28925 15.4274 6.21304C15.3888 6.13682 15.366 6.05363 15.3603 5.96842C15.3546 5.8832 15.366 5.79771 15.394 5.71702C15.4506 5.56591 15.5599 5.44034 15.7018 5.36336C15.8436 5.28638 16.0084 5.26318 16.166 5.29802L16.241 5.31802L17.408 5.70602C17.4895 5.73146 17.565 5.77299 17.6302 5.82816C17.6953 5.88333 17.7487 5.95101 17.7872 6.02719C17.8257 6.10338 17.8486 6.18652 17.8544 6.27168C17.8602 6.35685 17.8488 6.44332 17.821 6.52402ZM16.817 2.30502C17.05 2.53902 17.067 2.90602 16.867 3.15802L16.817 3.21502L15.788 4.24302C15.6723 4.36018 15.516 4.42849 15.3514 4.43386C15.1869 4.43923 15.0265 4.38125 14.9034 4.27187C14.7803 4.16249 14.7039 4.01005 14.6898 3.84598C14.6758 3.68191 14.7253 3.5187 14.828 3.39002L14.878 3.33402L15.908 2.30502C16.0286 2.18453 16.192 2.11686 16.3625 2.11686C16.5329 2.11686 16.6964 2.18453 16.817 2.30502Z" fill="#333333"/>
</g>
</svg>
