<svg width="19" height="19" viewBox="0 0 19 19" fill="none" xmlns="http://www.w3.org/2000/svg">
<g id="SVG">
<path id="Vector" d="M9.313 1.6607C9.789 1.7677 10.089 2.2407 9.982 2.7167C9.94342 2.91303 9.87029 3.10095 9.766 3.2717C8.376 5.4167 8.6 6.8317 9.526 6.9687C10.433 7.1027 10.939 6.5227 10.793 5.1747L10.707 4.3747C10.6896 4.21166 10.7189 4.04704 10.7915 3.90003C10.8641 3.75302 10.977 3.62966 11.1171 3.54435C11.2571 3.45904 11.4185 3.41528 11.5824 3.41818C11.7463 3.42107 11.9061 3.4705 12.043 3.5607C12.522 3.8767 13.059 4.4137 13.672 5.1787C15.414 7.3517 15.952 9.2507 15.927 11.1957C15.882 14.8187 13.181 17.3887 9.499 17.3887C5.803 17.3887 3.071 14.8037 3.071 11.1837C3.091 7.9827 4.833 4.5037 8.093 2.1777C8.219 2.0877 8.386 1.9657 8.593 1.8127C8.69505 1.73714 8.81219 1.68445 8.93643 1.65822C9.06067 1.632 9.18911 1.63284 9.313 1.6607ZM7.977 3.9027C5.617 5.9437 4.372 8.6857 4.357 11.1877C4.357 14.0777 6.497 16.1027 9.499 16.1027C12.487 16.1027 14.605 14.0877 14.642 11.1797C14.662 9.5117 14.206 7.9007 12.669 5.9827C12.4856 5.75237 12.2938 5.52888 12.094 5.3127C12.199 7.2857 11.057 8.4947 9.339 8.2397C7.599 7.9827 7.036 6.1497 7.977 3.9027Z" fill="#333333"/>
</g>
</svg>
