<svg width="19" height="19" viewBox="0 0 19 19" fill="none" xmlns="http://www.w3.org/2000/svg">
<g id="SVG">
<path id="Vector" d="M9.5 13.0037L13.158 15.2377C13.1802 15.2517 13.206 15.2588 13.2322 15.2579C13.2584 15.2571 13.2838 15.2484 13.305 15.233C13.3262 15.2176 13.3423 15.1962 13.3512 15.1715C13.3602 15.1469 13.3615 15.1201 13.355 15.0947L12.36 10.9247L15.615 8.13669C15.6345 8.11969 15.6486 8.09732 15.6555 8.07238C15.6624 8.04744 15.6618 8.02102 15.6538 7.9964C15.6458 7.97179 15.6308 7.95007 15.6105 7.93394C15.5903 7.91781 15.5658 7.90798 15.54 7.90569L11.268 7.56269L9.62199 3.60569C9.61202 3.58154 9.5951 3.56089 9.57338 3.54637C9.55166 3.53184 9.52612 3.52409 9.5 3.52409C9.47387 3.52409 9.44833 3.53184 9.42661 3.54637C9.40489 3.56089 9.38797 3.58154 9.378 3.60569L7.732 7.56269L3.46 7.90569C3.43422 7.90798 3.40968 7.91781 3.38944 7.93394C3.36921 7.95007 3.35415 7.97179 3.34616 7.9964C3.33817 8.02102 3.33759 8.04744 3.3445 8.07238C3.3514 8.09732 3.36548 8.11969 3.385 8.13669L6.64 10.9257L5.645 15.0957C5.63931 15.1209 5.64117 15.1473 5.65034 15.1715C5.65952 15.1957 5.6756 15.2166 5.69659 15.2318C5.71757 15.2469 5.74255 15.2555 5.7684 15.2566C5.79425 15.2576 5.81985 15.2511 5.842 15.2377L9.5 13.0037ZM9.5 14.5097L6.512 16.3347C6.27313 16.4806 5.9964 16.5525 5.71671 16.5413C5.43703 16.5301 5.16692 16.4364 4.94047 16.2718C4.71402 16.1073 4.54136 15.8794 4.44428 15.6169C4.3472 15.3544 4.33005 15.069 4.395 14.7967L5.207 11.3907L2.548 9.11469C2.33493 8.93267 2.18062 8.69157 2.10457 8.42186C2.02852 8.15216 2.03415 7.86596 2.12074 7.59945C2.20733 7.33294 2.37099 7.09809 2.59104 6.92458C2.81109 6.75108 3.07764 6.64672 3.357 6.62469L6.847 6.34469L8.19 3.11269C8.29729 2.85385 8.47891 2.63263 8.7119 2.47699C8.94489 2.32135 9.2188 2.23828 9.49899 2.23828C9.77919 2.23828 10.0531 2.32135 10.2861 2.47699C10.5191 2.63263 10.7007 2.85385 10.808 3.11269L12.152 6.34569L15.642 6.62569C15.9211 6.64791 16.1874 6.75234 16.4072 6.92578C16.6271 7.09922 16.7906 7.33391 16.8771 7.60021C16.9637 7.8665 16.9694 8.15248 16.8936 8.42202C16.8177 8.69157 16.6637 8.9326 16.451 9.11469L13.792 11.3917L14.604 14.7977C14.6684 15.0699 14.6509 15.355 14.5537 15.6173C14.4565 15.8795 14.2839 16.1072 14.0576 16.2716C13.8313 16.4359 13.5615 16.5298 13.282 16.5412C13.0025 16.5526 12.7259 16.4811 12.487 16.3357L9.5 14.5097Z" fill="#333333"/>
</g>
</svg>
