<svg width="19" height="19" viewBox="0 0 19 19" fill="none" xmlns="http://www.w3.org/2000/svg">
<g id="SVG">
<g id="Clip path group">
<mask id="mask0_36_191" style="mask-type:luminance" maskUnits="userSpaceOnUse" x="0" y="0" width="19" height="19">
<g id="coffeeSteam_svg__clip0_632_7467">
<path id="Vector" d="M0.5 0.674805H18.5V18.6748H0.5V0.674805Z" fill="white"/>
</g>
</mask>
<g mask="url(#mask0_36_191)">
<g id="Group">
<path id="Vector_2" fill-rule="evenodd" clip-rule="evenodd" d="M12.274 1.35083C12.1123 1.29697 11.9359 1.30948 11.7835 1.38561C11.6311 1.46173 11.5151 1.59525 11.461 1.75683L11.367 2.03983C11.167 2.63783 11.214 3.29083 11.496 3.85483C11.626 4.11483 11.646 4.41483 11.556 4.68883L11.461 4.97183C11.4325 5.05238 11.4204 5.1378 11.4253 5.2231C11.4303 5.30839 11.4521 5.39185 11.4897 5.46859C11.5272 5.54534 11.5797 5.61383 11.644 5.67008C11.7083 5.72632 11.7832 5.76918 11.8642 5.79616C11.9453 5.82314 12.0309 5.83369 12.1161 5.8272C12.2013 5.82071 12.2843 5.7973 12.3604 5.75836C12.4364 5.71941 12.5039 5.6657 12.559 5.60036C12.614 5.53503 12.6555 5.45938 12.681 5.37783L12.775 5.09583C12.975 4.49783 12.928 3.84483 12.646 3.27983C12.516 3.02083 12.496 2.72083 12.586 2.44583L12.681 2.16383C12.7348 2.00205 12.7222 1.82552 12.6458 1.67306C12.5695 1.5206 12.4358 1.40469 12.274 1.35083ZM5.846 1.35083C5.68435 1.29697 5.50793 1.30948 5.35549 1.38561C5.20305 1.46173 5.08706 1.59525 5.033 1.75683L4.938 2.03983C4.739 2.63783 4.785 3.29083 5.068 3.85483C5.197 4.11483 5.218 4.41483 5.127 4.68883L5.033 4.97183C4.98275 5.13265 4.99763 5.30676 5.07443 5.45672C5.15124 5.60668 5.28383 5.7205 5.4437 5.77371C5.60356 5.82691 5.77792 5.81523 5.92927 5.7412C6.08062 5.66717 6.19686 5.53669 6.253 5.37783L6.346 5.09583C6.546 4.49783 6.5 3.84483 6.217 3.27983C6.087 3.02083 6.067 2.72083 6.158 2.44583L6.252 2.16383C6.30585 2.00218 6.29334 1.82576 6.21722 1.67332C6.14109 1.52089 6.00758 1.4049 5.846 1.35083ZM9.029 0.697829C8.94758 0.675184 8.86249 0.668812 8.77861 0.679077C8.69472 0.689342 8.61369 0.716042 8.54013 0.75765C8.46657 0.799258 8.40194 0.854958 8.34992 0.921565C8.29791 0.988172 8.25954 1.06438 8.237 1.14583L8.094 1.66083C7.93987 2.2157 7.97649 2.80625 8.198 3.33783L8.328 3.64983C8.439 3.91483 8.458 4.20983 8.38 4.48783L8.237 5.00283C8.19138 5.16726 8.21295 5.34308 8.29697 5.49161C8.38099 5.64014 8.52056 5.74921 8.685 5.79483C8.84943 5.84045 9.02525 5.81887 9.17378 5.73486C9.32231 5.65084 9.43138 5.51126 9.477 5.34683L9.619 4.83183C9.77313 4.27696 9.7365 3.68641 9.515 3.15483L9.385 2.84283C9.2744 2.57718 9.25609 2.28211 9.333 2.00483L9.476 1.48983C9.5218 1.32566 9.50056 1.15002 9.41693 1.00152C9.3333 0.853007 9.19313 0.743776 9.029 0.697829ZM13.497 7.12583C13.231 7.10383 12.905 7.10383 12.523 7.10383H5.19C4.809 7.10383 4.483 7.10383 4.217 7.12583C3.937 7.14983 3.66 7.20283 3.399 7.34883C3.014 7.56398 2.71436 7.90456 2.55 8.31383C2.439 8.59083 2.422 8.87383 2.434 9.15283C2.445 9.41983 2.487 9.74283 2.535 10.1208L2.783 12.0458L2.799 12.1698C2.955 13.3858 3.052 14.1448 3.341 14.7718C3.60409 15.3429 3.98393 15.8525 4.45604 16.2678C4.92814 16.683 5.48203 16.9947 6.082 17.1828C6.741 17.3898 7.506 17.3898 8.732 17.3888H8.982C10.208 17.3888 10.972 17.3888 11.632 17.1828C12.2318 16.9946 12.7855 16.6828 13.2574 16.2676C13.7293 15.8523 14.109 15.3428 14.372 14.7718C14.432 14.6428 14.483 14.5088 14.528 14.3658L16.085 13.8988C16.6565 13.7273 17.1471 13.3559 17.4675 12.8525C17.7878 12.3491 17.9164 11.7473 17.8298 11.157C17.7432 10.5667 17.4472 10.0272 16.9958 9.63699C16.5443 9.24683 15.9677 9.03204 15.371 9.03183H15.283C15.2909 8.78692 15.2501 8.54287 15.163 8.31383C14.9989 7.90472 14.6996 7.56416 14.315 7.34883C14.054 7.20283 13.775 7.14983 13.497 7.12583ZM14.931 12.0458L14.915 12.1698C14.879 12.4488 14.846 12.7038 14.814 12.9378L15.716 12.6678C15.9924 12.5854 16.2299 12.4062 16.385 12.163C16.5401 11.9198 16.6024 11.6289 16.5605 11.3435C16.5186 11.0581 16.3753 10.7974 16.1569 10.609C15.9384 10.4207 15.6594 10.3173 15.371 10.3178H15.153L14.931 12.0458ZM4.326 8.40683C4.128 8.42383 4.058 8.45283 4.026 8.47083C3.89761 8.54263 3.79772 8.65628 3.743 8.79283C3.73 8.82583 3.71 8.89983 3.718 9.09783C3.728 9.30383 3.761 9.57183 3.814 9.98383L4.058 11.8818C4.236 13.2628 4.313 13.8088 4.508 14.2338C4.69593 14.642 4.96738 15.0063 5.30481 15.303C5.64224 15.5998 6.03816 15.8225 6.467 15.9568C6.913 16.0968 7.465 16.1038 8.857 16.1038C10.249 16.1038 10.8 16.0958 11.247 15.9558C11.6756 15.8215 12.0712 15.5989 12.4085 15.3023C12.7457 15.0057 13.0171 14.6417 13.205 14.2338C13.4 13.8088 13.478 13.2638 13.655 11.8828L13.9 9.98383C13.952 9.57183 13.986 9.30383 13.995 9.09783C14.004 8.89983 13.984 8.82583 13.97 8.79283C13.9153 8.65628 13.8154 8.54263 13.687 8.47083C13.656 8.45283 13.586 8.42383 13.387 8.40683C13.0907 8.3896 12.7938 8.3836 12.497 8.38883H5.217C4.802 8.38883 4.53 8.38883 4.326 8.40683Z" fill="#333333"/>
</g>
</g>
</g>
</g>
</svg>
