<svg width="19" height="19" viewBox="0 0 19 19" fill="none" xmlns="http://www.w3.org/2000/svg">
<g id="SVG">
<path id="Vector" fill-rule="evenodd" clip-rule="evenodd" d="M5.964 5.49596C5.96427 4.55833 6.33693 3.65919 7.00003 2.99628C7.66313 2.33337 8.56237 1.96096 9.5 1.96096C9.58733 1.95609 9.67473 1.96907 9.75686 1.99914C9.83899 2.0292 9.91412 2.0757 9.97767 2.13579C10.0412 2.19588 10.0918 2.26831 10.1264 2.34864C10.161 2.42896 10.1789 2.5155 10.1789 2.60296C10.1789 2.69042 10.161 2.77696 10.1264 2.85729C10.0918 2.93761 10.0412 3.01004 9.97767 3.07013C9.91412 3.13023 9.83899 3.17673 9.75686 3.20679C9.67473 3.23685 9.58733 3.24984 9.5 3.24496C8.90327 3.24496 8.33097 3.48201 7.90901 3.90397C7.48706 4.32593 7.25 4.89822 7.25 5.49496V7.10496C7.25 7.2755 7.18226 7.43904 7.06167 7.55963C6.94109 7.68022 6.77754 7.74796 6.607 7.74796C6.43647 7.74796 6.27292 7.68022 6.15233 7.55963C6.03175 7.43904 5.964 7.2755 5.964 7.10496V5.49596Z" fill="#333333"/>
<path id="Vector_2" fill-rule="evenodd" clip-rule="evenodd" d="M13.036 5.49596C13.0357 4.55833 12.6631 3.65919 12 2.99628C11.3369 2.33337 10.4376 1.96096 9.5 1.96096C9.41268 1.95609 9.32528 1.96907 9.24315 1.99914C9.16102 2.0292 9.08588 2.0757 9.02234 2.13579C8.95879 2.19588 8.90818 2.26831 8.87359 2.34864C8.83899 2.42896 8.82115 2.5155 8.82115 2.60296C8.82115 2.69042 8.83899 2.77696 8.87359 2.85729C8.90818 2.93761 8.95879 3.01004 9.02234 3.07013C9.08588 3.13023 9.16102 3.17673 9.24315 3.20679C9.32528 3.23685 9.41268 3.24984 9.5 3.24496C10.0967 3.24496 10.669 3.48201 11.091 3.90397C11.5129 4.32593 11.75 4.89822 11.75 5.49496V7.10496C11.75 7.2755 11.8177 7.43904 11.9383 7.55963C12.0589 7.68022 12.2225 7.74796 12.393 7.74796C12.5635 7.74796 12.7271 7.68022 12.8477 7.55963C12.9683 7.43904 13.036 7.2755 13.036 7.10496V5.49596Z" fill="#333333"/>
<path id="Vector_3" fill-rule="evenodd" clip-rule="evenodd" d="M2.75 10.2109C2.75 8.10894 4.53 6.46094 6.637 6.46094C7.719 6.46094 8.676 6.86694 9.497 7.62094C10.31 6.86494 11.269 6.46094 12.363 6.46094C14.471 6.46094 16.25 8.10894 16.25 10.2109C16.25 11.3279 15.942 12.1909 15.202 13.0749C14.502 13.9109 13.404 14.7769 11.861 15.9429L11.859 15.9449L10.272 17.1329C10.0489 17.2992 9.77818 17.3889 9.5 17.3889C9.22182 17.3889 8.95106 17.2992 8.728 17.1329L7.14 15.9449L7.138 15.9429C5.596 14.7769 4.5 13.9109 3.8 13.0749C3.059 12.1899 2.75 11.3279 2.75 10.2109ZM6.637 7.74594C5.183 7.74594 4.036 8.87394 4.036 10.2109C4.036 11.0249 4.236 11.5959 4.784 12.2499C5.372 12.9519 6.341 13.7299 7.914 14.9159L9.498 16.1029H9.502L11.086 14.9169C12.658 13.7289 13.628 12.9519 14.216 12.2499C14.763 11.5959 14.964 11.0249 14.964 10.2109C14.964 8.87394 13.817 7.74594 12.363 7.74594C11.479 7.74594 10.696 8.12194 9.993 8.96394C9.933 9.03563 9.8581 9.09338 9.7735 9.13316C9.6889 9.17294 9.59664 9.19379 9.50316 9.19427C9.40968 9.19475 9.31721 9.17483 9.23221 9.13592C9.14721 9.097 9.07172 9.04002 9.011 8.96894C8.287 8.11894 7.502 7.74594 6.637 7.74594Z" fill="#333333"/>
<path id="Vector_4" fill-rule="evenodd" clip-rule="evenodd" d="M9.49999 10.3179C9.85499 10.3179 10.143 10.6059 10.143 10.9609V12.2469C10.143 12.4174 10.0753 12.581 9.95466 12.7015C9.83408 12.8221 9.67053 12.8899 9.49999 12.8899C9.32946 12.8899 9.16591 12.8221 9.04532 12.7015C8.92474 12.581 8.85699 12.4174 8.85699 12.2469V10.9609C8.85699 10.6059 9.14499 10.3179 9.49999 10.3179Z" fill="#333333"/>
</g>
</svg>
