<svg width="14" height="5" viewBox="0 0 14 5" fill="none" xmlns="http://www.w3.org/2000/svg">
<g id="SVG">
<path id="Vector" d="M2 4.1748C2.82843 4.1748 3.5 3.50323 3.5 2.6748C3.5 1.84638 2.82843 1.1748 2 1.1748C1.17157 1.1748 0.5 1.84638 0.5 2.6748C0.5 3.50323 1.17157 4.1748 2 4.1748Z" fill="#333333"/>
<path id="Vector_2" d="M7 4.1748C7.82843 4.1748 8.5 3.50323 8.5 2.6748C8.5 1.84638 7.82843 1.1748 7 1.1748C6.17157 1.1748 5.5 1.84638 5.5 2.6748C5.5 3.50323 6.17157 4.1748 7 4.1748Z" fill="#333333"/>
<path id="Vector_3" d="M12 4.1748C12.8284 4.1748 13.5 3.50323 13.5 2.6748C13.5 1.84638 12.8284 1.1748 12 1.1748C11.1716 1.1748 10.5 1.84638 10.5 2.6748C10.5 3.50323 11.1716 4.1748 12 4.1748Z" fill="#333333"/>
</g>
</svg>
