<svg width="60" height="60" viewBox="0 0 60 60" fill="none" xmlns="http://www.w3.org/2000/svg">
<g clip-path="url(#clip0_471_3038)">
<path d="M0 9.18867V27.672H25.4395L24.5223 26.7209C24.484 26.7173 24.4523 26.7152 24.4119 26.7118C23.934 26.6734 23.2714 26.6126 22.4939 26.5247C20.9377 26.3456 18.9307 26.0559 17.0173 25.585C15.7392 25.2671 14.5042 24.8795 13.4248 24.3329C12.8095 24.0186 12.2347 23.6523 11.7322 23.1531C10.1241 21.5461 9.3116 19.423 9.31395 17.3147C9.3116 15.2063 10.122 13.0821 11.7322 11.4729C13.3413 9.86484 15.4644 9.05344 17.5717 9.05461C19.6789 9.05344 21.8031 9.86484 23.4113 11.4741C23.8754 11.9406 24.2237 12.4703 24.5245 13.038C24.8243 13.6061 25.0733 14.2179 25.293 14.858C25.7304 16.1381 26.0504 17.5411 26.2961 18.8934C26.7052 21.155 26.9024 23.2702 26.9811 24.3026L27.673 25.0193V0H9.18867C4.11422 0 0 4.11316 0 9.18867Z" fill="#F4F6F4"/>
<path d="M44.9237 21.2597C45.3238 21.058 45.6089 20.8507 45.7407 20.7143C46.684 19.7699 47.1483 18.5507 47.1495 17.3133C47.1483 16.076 46.684 14.8545 45.7419 13.9125H45.7407C44.7964 12.9693 43.5771 12.506 42.3398 12.5039C41.1025 12.5061 39.8832 12.9703 38.9388 13.9125C38.8216 14.0273 38.6503 14.2528 38.4779 14.5706C38.3032 14.8873 38.1252 15.2918 37.9596 15.7515C37.6248 16.6711 37.3386 17.8092 37.1133 18.9598C36.8159 20.4698 36.6198 21.9945 36.498 23.1551C36.6671 23.1382 36.8428 23.1191 37.0254 23.0977C38.4904 22.9297 40.3836 22.6526 42.0694 22.2367C43.1918 21.9618 44.224 21.6182 44.9237 21.2597Z" fill="#F4F6F4"/>
<path d="M50.8105 0H32.3262V24.9289L32.9303 24.3013C32.9337 24.2528 32.937 24.2112 32.9415 24.1582C32.9798 23.6804 33.0395 23.0177 33.1286 22.2403C33.3066 20.6852 33.5961 18.6759 34.0671 16.7613C34.3839 15.4823 34.7736 14.2484 35.3191 13.1666C35.6358 12.5502 36.002 11.9754 36.5 11.4739C38.1082 9.86473 40.2323 9.05332 42.3396 9.05449C44.4469 9.05332 46.571 9.86473 48.1791 11.4728C49.7883 13.082 50.5997 15.2039 50.5985 17.3134C50.5997 19.4207 49.7883 21.546 48.1791 23.154C47.7115 23.6171 47.1818 23.9643 46.615 24.2663C46.0459 24.566 45.4351 24.815 44.795 25.0348C43.5161 25.4709 42.1143 25.7898 40.7619 26.0354C38.5262 26.4411 36.4346 26.6395 35.3889 26.7206L34.4716 27.6717H59.9992V9.18867C59.9992 4.11316 55.885 0 50.8105 0Z" fill="#F4F6F4"/>
<path d="M43.8927 41.8594L41.4089 44.2517L32.3262 34.823V60H50.8106C55.8851 60 59.9993 55.887 59.9993 50.8114V32.3271H34.7108L43.8927 41.8594Z" fill="#F4F6F4"/>
<path d="M16.0186 41.8594L25.2006 32.3271H0V50.8114C0 55.887 4.11422 60 9.18867 60H27.673V34.733L18.5024 44.2518L16.0186 41.8594Z" fill="#F4F6F4"/>
<path d="M22.4958 17.584C22.2209 16.4616 21.8761 15.4306 21.5177 14.7307C21.3161 14.3296 21.1086 14.0456 20.9722 13.9127C20.029 12.9706 18.8086 12.5063 17.5712 12.5042C16.3339 12.5064 15.1146 12.9695 14.1703 13.9127C13.2282 14.8548 12.7638 16.0764 12.7617 17.3147C12.7638 18.5509 13.2282 19.7725 14.1703 20.7145C14.2853 20.8316 14.5106 21.0031 14.8284 21.1754C15.1439 21.3502 15.5484 21.527 16.0072 21.6926C16.9279 22.0262 18.0649 22.3136 19.2143 22.5389C20.7253 22.8375 22.2524 23.0337 23.4142 23.1553C23.3973 22.9874 23.377 22.8127 23.3568 22.6302C23.19 21.1664 22.9127 19.2721 22.4958 17.584Z" fill="#F4F6F4"/>
</g>
<defs>
<clipPath id="clip0_471_3038">
<rect width="60" height="60" rx="15" fill="white"/>
</clipPath>
</defs>
</svg>
