<svg width="24" height="19" viewBox="0 0 24 19" fill="none" xmlns="http://www.w3.org/2000/svg">
<path fill-rule="evenodd" clip-rule="evenodd" d="M4.35036 0.513256C3.63397 0.655164 2.94652 1.03479 2.48028 1.54596C2.16291 1.89396 1.9885 2.17991 1.81572 2.63553C1.69752 2.94728 1.68671 3.04993 1.66701 4.05192C1.65127 4.85514 1.66173 5.15139 1.70788 5.20699C1.76216 5.27243 3.17525 5.28177 13.0289 5.28177C22.8826 5.28177 24.2957 5.27243 24.3499 5.20699C24.3961 5.15139 24.4065 4.85514 24.3908 4.05192C24.3711 3.04993 24.3603 2.94728 24.2421 2.63553C24.172 2.45072 24.054 2.19584 23.9797 2.06922C23.6186 1.45305 22.8836 0.872671 22.1491 0.623736L21.7363 0.483808L13.1558 0.476243C8.40117 0.472029 4.47501 0.48853 4.35036 0.513256ZM1.71128 8.55104C1.66787 8.60339 1.6564 9.54938 1.66701 12.194L1.68133 15.7662L1.81988 16.1458C2.16686 17.0967 2.92996 17.8155 3.96501 18.1667L4.37225 18.3048H13.0289H21.6856L22.0927 18.1667C23.1278 17.8155 23.8909 17.0967 24.2379 16.1458L24.3764 15.7662L24.3908 12.194C24.4014 9.54938 24.3899 8.60339 24.3465 8.55104C24.2584 8.44498 1.79932 8.44498 1.71128 8.55104ZM20.406 13.5247C20.6176 13.6132 20.8791 13.9117 20.924 14.1163C21.0026 14.4741 20.8192 14.8633 20.4938 15.0293C20.2928 15.1319 20.2303 15.1339 17.6777 15.1202C15.1314 15.1065 15.0637 15.1036 14.9269 15.0015C14.6564 14.7994 14.5775 14.6417 14.5775 14.3028C14.5775 13.9217 14.7132 13.6964 15.0294 13.5528C15.2232 13.4649 15.4093 13.4582 17.7396 13.4572C19.7283 13.4564 20.2755 13.4702 20.406 13.5247Z" fill="#262626"/>
</svg>
