<svg width="21" height="21" viewBox="0 0 21 21" fill="none" xmlns="http://www.w3.org/2000/svg">
<path d="M3.35105 9.27544e-05L17.7607 0C18.2704 0 18.7799 0.0748725 19.3122 0.32307C19.9504 0.62054 20.2888 1.08941 20.5259 1.43615C20.5443 1.46313 20.5616 1.49093 20.5775 1.51937C20.8563 2.01558 21 2.55134 21 3.12765C21 3.67525 20.8697 4.27185 20.5775 4.79182C20.5747 4.79687 20.5719 4.80173 20.5691 4.80668L11.4653 20.4449C11.2646 20.7899 10.8951 21.0014 10.496 21C10.097 20.9986 9.72895 20.7843 9.53067 20.4381L0.594089 4.8332C0.591519 4.82898 0.588951 4.82476 0.586382 4.82044C0.381859 4.48343 0.0655804 3.96226 0.0102521 3.28969C-0.0405803 2.67117 0.098428 2.05146 0.409202 1.51415C0.719976 0.976733 1.18784 0.547135 1.75057 0.284165C2.35396 0.00220212 2.9654 9.27544e-05 3.35105 9.27544e-05ZM9.38294 2.23405H3.35105C2.95477 2.23405 2.80264 2.25846 2.69629 2.30819C2.54921 2.37683 2.4257 2.48977 2.34313 2.63255C2.26055 2.7754 2.2232 2.94093 2.23678 3.10664C2.24458 3.20162 2.2833 3.31025 2.51168 3.68691C2.51645 3.69479 2.52112 3.70278 2.52572 3.71076L9.38294 15.6847V2.23405ZM11.617 2.23405V15.7439L18.633 3.69176C18.7122 3.54789 18.7659 3.33998 18.7659 3.12765C18.7659 2.95543 18.7303 2.80587 18.6504 2.65173C18.5666 2.53125 18.5156 2.46748 18.473 2.42381C18.4363 2.38646 18.4081 2.36645 18.3684 2.34792C18.2024 2.27058 18.0327 2.23405 17.7607 2.23405H11.617Z" fill="#262626"/>
</svg>
