<svg xmlns="http://www.w3.org/2000/svg" width="30" height="30" viewBox="0 0 30 30" fill="none">
    <path fill-rule="evenodd" clip-rule="evenodd" d="M20.5851 21.913C20.9513 22.2791 21.5449 22.2791 21.911 21.913C22.2771 21.5469 22.2771 20.9532 21.911 20.5871L16.3245 15.0006L21.9123 9.41291C22.2784 9.0468 22.2784 8.4532 21.9123 8.08708C21.5461 7.72097 20.9525 7.72097 20.5864 8.08708L14.9986 13.6749L9.41096 8.08708C9.04484 7.72097 8.45126 7.72097 8.08513 8.08708C7.71902 8.4532 7.71902 9.0468 8.08513 9.41291L13.6729 15.0006L8.08639 20.5871C7.72028 20.9532 7.72028 21.5469 8.08639 21.913C8.45252 22.2791 9.04611 22.2791 9.41222 21.913L14.9986 16.3265L20.5851 21.913Z" fill="#262626"/>
</svg>