<svg xmlns="http://www.w3.org/2000/svg" width="24" height="26" viewBox="0 0 24 26" fill="none">
    <path fill-rule="evenodd" clip-rule="evenodd" d="M11.4171 3.97764C12.0165 2.67412 13.8635 2.67412 14.4628 3.97764L16.817 9.09711L22.3984 9.7609C23.8195 9.92993 24.3902 11.6919 23.3396 12.6665L19.2131 16.4943L20.3084 22.0241C20.5874 23.4321 19.0932 24.521 17.8444 23.8198L12.94 21.0661L8.0356 23.8198C6.78684 24.521 5.29264 23.4321 5.57154 22.0241L6.66691 16.4943L2.54046 12.6665C1.48978 11.6919 2.06051 9.92993 3.48165 9.7609L9.06301 9.09711L11.4171 3.97764ZM13.3223 5.51361C13.1721 5.18697 12.7079 5.18697 12.5577 5.51361L10.5859 9.80171C10.3416 10.3329 9.83968 10.6987 9.26047 10.7677L4.5827 11.324C4.22652 11.3663 4.08327 11.8064 4.34623 12.0503L7.80555 15.2593C8.23377 15.6565 8.42549 16.2484 8.31182 16.8222L7.39388 21.4562C7.32408 21.8086 7.69943 22.0807 8.01263 21.9048L12.1208 19.5982C12.6298 19.3124 13.2502 19.3124 13.7591 19.5982L17.8674 21.9048C18.1806 22.0807 18.5559 21.8086 18.4862 21.4562L17.5682 16.8222C17.4545 16.2484 17.6462 15.6565 18.0745 15.2593L21.5338 12.0503C21.7967 11.8064 21.6534 11.3663 21.2973 11.324L16.6195 10.7677C16.0403 10.6987 15.5384 10.333 15.2941 9.80171L13.3223 5.51361Z" fill="#262626"/>
</svg>