<svg width="24" height="24" viewBox="0 0 24 24" fill="none" xmlns="http://www.w3.org/2000/svg">
<g id="SVG">
<path id="Vector" d="M12 23.2494C11.37 23.2494 10.78 23.0094 10.34 22.5594L8.82001 21.0394C8.70001 20.9194 8.38 20.7894 8.22 20.7894H6.06C4.76 20.7894 3.70999 19.7393 3.70999 18.4393V16.2794C3.70999 16.1194 3.57999 15.7994 3.45999 15.6794L1.94 14.1594C1.5 13.7194 1.25 13.1294 1.25 12.4994C1.25 11.8694 1.49 11.2793 1.94 10.8393L3.45999 9.3193C3.57999 9.1993 3.70999 8.87933 3.70999 8.71933V6.55941C3.70999 5.25941 4.76 4.20932 6.06 4.20932H8.22C8.38 4.20932 8.70001 4.07932 8.82001 3.95932L10.34 2.4393C11.22 1.5593 12.78 1.5593 13.66 2.4393L15.18 3.95932C15.3 4.07932 15.62 4.20932 15.78 4.20932H17.94C19.24 4.20932 20.29 5.25941 20.29 6.55941V8.71933C20.29 8.87933 20.42 9.1993 20.54 9.3193L22.06 10.8393C22.5 11.2793 22.75 11.8694 22.75 12.4994C22.75 13.1294 22.51 13.7194 22.06 14.1594L20.54 15.6794C20.42 15.7994 20.29 16.1194 20.29 16.2794V18.4393C20.29 19.7393 19.24 20.7894 17.94 20.7894H15.78C15.62 20.7894 15.3 20.9194 15.18 21.0394L13.66 22.5594C13.22 23.0094 12.63 23.2494 12 23.2494ZM4.51999 14.6194C4.91999 15.0194 5.20999 15.7194 5.20999 16.2794V18.4393C5.20999 18.9093 5.59 19.2894 6.06 19.2894H8.22C8.78 19.2894 9.48001 19.5793 9.88 19.9793L11.4 21.4994C11.72 21.8194 12.28 21.8194 12.6 21.4994L14.12 19.9793C14.52 19.5793 15.22 19.2894 15.78 19.2894H17.94C18.41 19.2894 18.79 18.9093 18.79 18.4393V16.2794C18.79 15.7194 19.08 15.0194 19.48 14.6194L21 13.0993C21.16 12.9393 21.25 12.7294 21.25 12.4994C21.25 12.2694 21.16 12.0594 21 11.8994L19.48 10.3794C19.08 9.97936 18.79 9.27933 18.79 8.71933V6.55941C18.79 6.08941 18.41 5.70932 17.94 5.70932H15.78C15.22 5.70932 14.52 5.41938 14.12 5.01938L12.6 3.49936C12.28 3.17936 11.72 3.17936 11.4 3.49936L9.88 5.01938C9.48001 5.41938 8.78 5.70932 8.22 5.70932H6.06C5.59 5.70932 5.20999 6.08941 5.20999 6.55941V8.71933C5.20999 9.27933 4.91999 9.97936 4.51999 10.3794L3 11.8994C2.84 12.0594 2.75 12.2694 2.75 12.4994C2.75 12.7294 2.84 12.9393 3 13.0993L4.51999 14.6194Z" fill="#262626"/>
<path id="Vector_2" d="M14.9994 16.5C14.4394 16.5 13.9893 16.05 13.9893 15.5C13.9893 14.95 14.4393 14.5 14.9893 14.5C15.5393 14.5 15.9893 14.95 15.9893 15.5C15.9893 16.05 15.5494 16.5 14.9994 16.5Z" fill="#262626"/>
<path id="Vector_3" d="M9.01001 10.5C8.45001 10.5 8 10.05 8 9.5C8 8.95 8.45 8.5 9 8.5C9.55 8.5 10 8.95 10 9.5C10 10.05 9.56001 10.5 9.01001 10.5Z" fill="#262626"/>
<path id="Vector_4" d="M8.99945 16.2495C8.80945 16.2495 8.61945 16.1795 8.46945 16.0295C8.17945 15.7395 8.17945 15.2595 8.46945 14.9695L14.4694 8.96945C14.7594 8.67945 15.2394 8.67945 15.5294 8.96945C15.8194 9.25945 15.8194 9.73951 15.5294 10.0295L9.52945 16.0295C9.37945 16.1795 9.18945 16.2495 8.99945 16.2495Z" fill="#262626"/>
</g>
</svg>
