<svg xmlns="http://www.w3.org/2000/svg" width="27" height="28" viewBox="0 0 27 28" fill="none">
    <path d="M11.5787 11.7718C12.1636 11.7718 12.6609 11.567 13.0706 11.1573C13.4803 10.7476 13.6852 10.2503 13.6852 9.66542C13.6852 9.08055 13.4803 8.58325 13.0706 8.17355C12.6609 7.76383 12.1636 7.55897 11.5787 7.55897C10.9938 7.55897 10.4965 7.76383 10.0868 8.17355C9.67709 8.58325 9.47223 9.08055 9.47223 9.66542C9.47223 10.2503 9.67709 10.7476 10.0868 11.1573C10.4965 11.567 10.9938 11.7718 11.5787 11.7718ZM11.5903 16.5867C12.3772 16.5867 13.1246 16.4289 13.8321 16.1133C14.5397 15.7978 15.1651 15.3468 15.7083 14.7603C15.0447 14.3684 14.3673 14.0733 13.676 13.8749C12.9845 13.6767 12.2893 13.5775 11.5903 13.5775C10.8217 13.5775 10.0822 13.6786 9.37151 13.8808C8.66087 14.0829 8.02392 14.3761 7.46066 14.7603C7.99615 15.3468 8.6196 15.7978 9.33101 16.1133C10.0424 16.4289 10.7955 16.5867 11.5903 16.5867ZM23.4815 25.2558L17.4885 19.2627C16.635 19.9432 15.7253 20.4698 14.7592 20.8425C13.7932 21.2152 12.733 21.4015 11.5787 21.4015C8.9753 21.4015 6.76967 20.4976 4.9618 18.6897C3.15394 16.8818 2.25 14.6763 2.25 12.0728C2.25 9.46944 3.15394 7.26381 4.9618 5.45594C6.76967 3.64808 8.9753 2.74414 11.5787 2.74414C14.1821 2.74414 16.3878 3.64808 18.1955 5.45594C20.0034 7.26381 20.9073 9.46944 20.9073 12.0728C20.9073 13.2271 20.721 14.2893 20.3483 15.2592C19.9756 16.2291 19.449 17.1408 18.7685 17.9941L24.75 23.9756L23.4815 25.2558ZM11.5787 19.596C13.662 19.596 15.4367 18.8629 16.9028 17.397C18.3689 15.9309 19.1018 14.1562 19.1018 12.0728C19.1018 9.9895 18.3689 8.2148 16.9028 6.74872C15.4367 5.28267 13.662 4.54964 11.5787 4.54964C9.49536 4.54964 7.72065 5.28267 6.25457 6.74872C4.78853 8.2148 4.0555 9.9895 4.0555 12.0728C4.0555 14.1562 4.78853 15.9309 6.25457 17.397C7.72065 18.8629 9.49536 19.596 11.5787 19.596Z" fill="#262626"/>
</svg>