<svg width="136" height="26" viewBox="0 0 136 26" fill="none" xmlns="http://www.w3.org/2000/svg">
<g id="6686aa9e914d79d9466a9e81_Group.svg" clip-path="url(#clip0_36_279)">
<path id="Vector" d="M9.81881 7.30859C4.7891 7.30859 0.711716 11.2936 0.711716 16.2092C0.711716 21.1249 4.7891 25.1099 9.81881 25.1099C14.8485 25.1099 18.9259 21.1249 18.9259 16.2092C18.9219 11.2936 14.8485 7.30859 9.81881 7.30859ZM9.81881 24.3708C8.40233 24.3708 7.25394 20.7143 7.25394 16.2053C7.25394 11.6964 8.40233 8.03988 9.81881 8.03988C11.2353 8.03988 12.3837 11.6964 12.3837 16.2053C12.3837 20.7143 11.2353 24.3708 9.81881 24.3708Z" fill="#A3A3A3"/>
<path id="Vector_2" d="M9.82061 5.28712C13.0316 5.28712 15.6346 4.50624 15.6346 3.54297C15.6346 2.57971 13.0316 1.79883 9.82061 1.79883C6.60964 1.79883 4.00664 2.57971 4.00664 3.54297C4.00664 4.50624 6.60964 5.28712 9.82061 5.28712Z" fill="#A3A3A3"/>
<path id="Vector_3" d="M41.1702 10.8035H42.8644V22.7858H41.1702V20.5077C40.6465 21.2303 39.9996 21.8023 39.2397 22.2338C38.4799 22.6654 37.6584 22.8861 36.7754 22.8861C35.6048 22.8861 34.5677 22.6252 33.6436 22.1034C32.7194 21.5815 32.0007 20.859 31.477 19.9257C30.9533 19.0024 30.6863 17.9588 30.6863 16.7946C30.6863 15.6305 30.9533 14.5869 31.477 13.6636C32.0007 12.7403 32.7297 12.0178 33.6436 11.4859C34.5677 10.9641 35.6151 10.7031 36.7754 10.7031C37.6482 10.7031 38.4696 10.9239 39.2397 11.3555C39.9996 11.787 40.6465 12.369 41.1702 13.0816V10.8035ZM39.0754 20.7285C39.7326 20.3371 40.246 19.8053 40.6157 19.1229C40.9853 18.4405 41.1804 17.6677 41.1804 16.7946C41.1804 15.9316 40.9956 15.1488 40.6157 14.4664C40.246 13.784 39.7326 13.2421 39.0754 12.8608C38.4183 12.4694 37.679 12.2787 36.8472 12.2787C36.0155 12.2787 35.2762 12.4694 34.619 12.8608C33.9619 13.2522 33.4485 13.784 33.0788 14.4664C32.7092 15.1488 32.5141 15.9316 32.5141 16.7946C32.5141 17.6577 32.6989 18.4405 33.0788 19.1229C33.4485 19.8053 33.9619 20.3472 34.619 20.7285C35.2762 21.1199 36.0155 21.3106 36.8472 21.3106C37.679 21.3106 38.4183 21.1199 39.0754 20.7285Z" fill="#A3A3A3"/>
<path id="Vector_4" d="M54.0052 20.2882V10.8047H55.761V22.787H53.8306L46.6531 13.0527V22.787H44.8973V10.8047H47.0536L54.0052 20.2882Z" fill="#A3A3A3"/>
<path id="Vector_5" d="M63.0521 16.6243H69.213V22.786H67.642V20.7588C67.1594 21.4312 66.5433 21.9631 65.7937 22.3545C65.0441 22.7458 64.1816 22.9466 63.2267 22.9466C62.0869 22.9466 61.0395 22.6756 60.0949 22.1337C59.1502 21.5918 58.4006 20.8492 57.8667 19.9058C57.3224 18.9625 57.0555 17.9188 57.0555 16.7848C57.0555 15.6408 57.3327 14.6071 57.8872 13.6638C58.4417 12.7205 59.2015 11.9779 60.1565 11.4359C61.1114 10.894 62.1793 10.623 63.3396 10.623C64.5615 10.623 65.6705 10.9442 66.6562 11.5965C67.642 12.2488 68.3505 13.1219 68.7817 14.2158H66.7897C66.4303 13.6136 65.9477 13.1319 65.3522 12.7907C64.7566 12.4395 64.0892 12.2689 63.3396 12.2689C62.5079 12.2689 61.7583 12.4696 61.0806 12.871C60.4029 13.2724 59.869 13.8143 59.4788 14.5068C59.0886 15.1992 58.8935 15.9619 58.8935 16.7949C58.8935 17.6278 59.0886 18.3905 59.4685 19.0829C59.8587 19.7754 60.3824 20.3173 61.0395 20.7187C61.707 21.1201 62.436 21.3208 63.2472 21.3208C64.3356 21.3208 65.2392 21.0198 65.9683 20.4176C66.6973 19.8155 67.1799 19.0729 67.4161 18.1797H63.0521V16.6243Z" fill="#A3A3A3"/>
<path id="Vector_6" d="M79.1736 11.3253C80.108 11.7869 80.8678 12.4994 81.4634 13.4628C82.0589 14.4262 82.3567 15.6204 82.3567 17.0354C82.3567 17.2863 82.3464 17.477 82.3362 17.5974H71.8934C72.0064 18.32 72.2733 18.9622 72.6841 19.5342C73.0948 20.1063 73.6082 20.5478 74.2346 20.869C74.8609 21.1901 75.5386 21.3507 76.2779 21.3507C77.1507 21.3507 77.9208 21.1499 78.578 20.7385C79.2352 20.327 79.7589 19.7651 80.149 19.0425H81.9871C81.7098 19.8253 81.2785 20.5177 80.7035 21.0998C80.1285 21.6919 79.4508 22.1434 78.691 22.4646C77.9311 22.7857 77.1199 22.9563 76.2882 22.9563C75.1484 22.9563 74.1011 22.6854 73.1461 22.1434C72.1912 21.6015 71.4519 20.8589 70.9077 19.9156C70.3635 18.9723 70.0965 17.9286 70.0965 16.7946C70.0965 15.6505 70.3635 14.6169 70.8974 13.6736C71.4313 12.7303 72.1707 11.9876 73.1153 11.4457C74.06 10.9038 75.1176 10.6328 76.2882 10.6328C77.2637 10.6328 78.2392 10.8636 79.1736 11.3253ZM73.2694 13.2822C72.4992 13.9746 72.0269 14.8778 71.8729 15.9817H80.5187C80.4571 15.2592 80.2209 14.6169 79.7897 14.0449C79.3584 13.4729 78.8244 13.0313 78.1878 12.7102C77.5409 12.389 76.8838 12.2285 76.1958 12.2285C75.0149 12.2385 74.0395 12.5898 73.2694 13.2822Z" fill="#A3A3A3"/>
<path id="Vector_7" d="M85.3557 10.8047V21.1412H91.835V22.787H83.6102V10.8047H85.3557Z" fill="#A3A3A3"/>
<path id="Vector_8" d="M99.4734 22.1434C98.4979 21.6015 97.7176 20.8589 97.1631 19.9156C96.6086 18.9723 96.3211 17.9286 96.3211 16.7946C96.3211 15.6505 96.5983 14.6169 97.1631 13.6736C97.7278 12.7303 98.4979 11.9876 99.4734 11.4457C100.449 10.9038 101.537 10.6328 102.708 10.6328C103.889 10.6328 104.967 10.9038 105.942 11.4457C106.918 11.9876 107.698 12.7303 108.253 13.6736C108.817 14.6169 109.095 15.6606 109.095 16.7946C109.095 17.9386 108.817 18.9723 108.253 19.9156C107.688 20.8589 106.918 21.6015 105.942 22.1434C104.967 22.6854 103.878 22.9563 102.708 22.9563C101.527 22.9563 100.449 22.6854 99.4734 22.1434ZM105.008 20.7084C105.706 20.307 106.25 19.7651 106.651 19.0726C107.051 18.3802 107.257 17.6175 107.257 16.7846C107.257 15.9516 107.051 15.1889 106.651 14.4965C106.25 13.804 105.696 13.2621 105.008 12.8607C104.31 12.4593 103.55 12.2586 102.708 12.2586C101.866 12.2586 101.096 12.4593 100.408 12.8607C99.7096 13.2621 99.1654 13.804 98.7649 14.4965C98.3645 15.1889 98.1591 15.9516 98.1591 16.7846C98.1591 17.6175 98.3645 18.3802 98.7649 19.0726C99.1654 19.7651 99.7199 20.307 100.408 20.7084C101.106 21.1098 101.866 21.3105 102.708 21.3105C103.55 21.3105 104.32 21.1098 105.008 20.7084Z" fill="#A3A3A3"/>
<path id="Vector_9" d="M119.452 20.2882V10.8047H121.208V22.787H119.278L112.1 13.0527V22.787H110.345V10.8047H112.501L119.452 20.2882Z" fill="#A3A3A3"/>
<path id="Vector_10" d="M131.592 11.3253C132.526 11.7869 133.286 12.4994 133.881 13.4628C134.477 14.4262 134.775 15.6204 134.775 17.0354C134.775 17.2863 134.764 17.477 134.754 17.5974H124.311C124.424 18.32 124.691 18.9622 125.102 19.5342C125.513 20.1063 126.026 20.5478 126.653 20.869C127.279 21.1901 127.957 21.3507 128.696 21.3507C129.569 21.3507 130.339 21.1499 130.996 20.7385C131.653 20.327 132.177 19.7651 132.567 19.0425H134.405C134.128 19.8253 133.697 20.5177 133.122 21.0998C132.546 21.6919 131.869 22.1434 131.109 22.4646C130.349 22.7857 129.538 22.9563 128.706 22.9563C127.566 22.9563 126.519 22.6854 125.564 22.1434C124.609 21.6015 123.87 20.8589 123.326 19.9156C122.781 18.9723 122.514 17.9286 122.514 16.7946C122.514 15.6505 122.781 14.6169 123.315 13.6736C123.849 12.7303 124.589 11.9876 125.533 11.4457C126.478 10.9038 127.536 10.6328 128.706 10.6328C129.692 10.6328 130.657 10.8636 131.592 11.3253ZM125.698 13.2822C124.927 13.9746 124.455 14.8778 124.301 15.9817H132.947C132.885 15.2592 132.649 14.6169 132.218 14.0449C131.787 13.4729 131.253 13.0313 130.616 12.7102C129.969 12.389 129.312 12.2285 128.624 12.2285C127.443 12.2385 126.468 12.5898 125.698 13.2822Z" fill="#A3A3A3"/>
</g>
<defs>
<clipPath id="clip0_36_279">
<rect width="135" height="25" fill="white" transform="translate(0.449997 0.914062)"/>
</clipPath>
</defs>
</svg>
