<svg width="127" height="49" viewBox="0 0 127 49" fill="none" xmlns="http://www.w3.org/2000/svg">
<g id="668e82bbbae58e33720ae064_GDPR%20svg.svg" clip-path="url(#clip0_36_292)">
<g id="Clip path group">
<mask id="mask0_36_292" style="mask-type:luminance" maskUnits="userSpaceOnUse" x="0" y="0" width="127" height="48">
<g id="a">
<path id="Vector" d="M126.14 0.488281H0.139999V47.4883H126.14V0.488281Z" fill="white"/>
</g>
</mask>
<g mask="url(#mask0_36_292)">
<g id="Group">
<path id="Vector_2" d="M22.2564 40.4062L22.9845 42.5618H25.2121L23.6365 43.7484L24.0602 46.0672L22.2564 44.7607L20.4417 46.0345L20.8873 43.7484L19.3334 42.5508H21.5392L22.2564 40.4062Z" fill="#7A7A7A"/>
<path id="Vector_3" d="M22.2564 2.89062L22.9845 5.04611H25.2121L23.6365 6.23272L24.0602 8.5515L22.2564 7.23426L20.4417 8.51885L20.8873 6.23272L19.3334 5.03523H21.5392L22.2564 2.89062Z" fill="#7A7A7A"/>
<path id="Vector_4" d="M31.2818 5.29883L32.0099 7.4652L34.2266 7.45432L32.6618 8.65181L33.0965 10.9706L31.2818 9.65335L29.478 10.938L29.9126 8.65181L28.3588 7.45432H30.5755L31.2818 5.29883Z" fill="#7A7A7A"/>
<path id="Vector_5" d="M12.8092 5.29883L13.5372 7.4652L15.7648 7.45432L14.1783 8.65181L14.613 10.9706L12.8092 9.65335L10.9945 10.938L11.44 8.65181L9.88609 7.45432H12.092L12.8092 5.29883Z" fill="#7A7A7A"/>
<path id="Vector_6" d="M31.2818 37.8672L32.0099 40.0227H34.2266L32.6618 41.2202L33.0965 43.539L31.2818 42.2217L29.478 43.5063L29.9126 41.2202L28.3588 40.0118H30.5755L31.2818 37.8672Z" fill="#7A7A7A"/>
<path id="Vector_7" d="M12.8092 37.8672L13.5372 40.0227H15.7648L14.1783 41.2202L14.613 43.539L12.8092 42.2217L10.9945 43.5063L11.44 41.2202L9.88609 40.0118H12.092L12.8092 37.8672Z" fill="#7A7A7A"/>
<path id="Vector_8" d="M5.91182 12.3828L6.63987 14.5382H8.84575L7.28099 15.7248L7.71565 18.0436L5.91182 16.7264L4.09713 18.011L4.53179 15.7248L2.97789 14.5274H5.19464L5.91182 12.3828Z" fill="#7A7A7A"/>
<path id="Vector_9" d="M38.4216 12.3828L39.1496 14.5382H41.3664L39.7908 15.7248L40.2254 18.0436L38.4216 16.7264L36.6069 18.011L37.0524 15.7248L35.4877 14.5274H37.7044L38.4216 12.3828Z" fill="#7A7A7A"/>
<path id="Vector_10" d="M5.91182 31.1055L6.63987 33.261H8.84575L7.28099 34.4476L7.71565 36.7664L5.91182 35.46L4.09713 36.7337L4.53179 34.4476L2.97789 33.2501H5.19464L5.91182 31.1055Z" fill="#7A7A7A"/>
<path id="Vector_11" d="M38.4216 31.1055L39.1496 33.261H41.3664L39.7908 34.4476L40.2254 36.7664L38.4216 35.46L36.6069 36.7337L37.0524 34.4476L35.4877 33.2501H37.7044L38.4216 31.1055Z" fill="#7A7A7A"/>
<path id="Vector_12" d="M3.75557 21.6719L4.48362 23.8383L6.70037 23.8274L5.12474 25.0249L5.55939 27.3437L3.75557 26.0264L1.94088 27.3001L2.37554 25.0249L0.82164 23.8274H3.03839L3.75557 21.6719Z" fill="#7A7A7A"/>
<path id="Vector_13" d="M40.8044 21.6719L41.5324 23.8383L43.7492 23.8274L42.1736 25.0249L42.6082 27.3437L40.8044 26.0264L38.9897 27.3001L39.4244 25.0249L37.8705 23.8274H40.0872L40.8044 21.6719Z" fill="#7A7A7A"/>
<path id="Vector_14" d="M68.3819 26.9632L68.1103 25.0037C67.2627 26.2338 65.448 27.3769 62.6988 27.3769C57.3417 27.3769 52.9408 23.4251 52.9408 17.3288C52.9408 11.2542 57.5373 7.24805 62.9705 7.24805C68.4906 7.24805 71.0442 10.514 71.8918 13.2138L67.7626 14.6617C67.4583 13.4642 66.1869 11.2869 62.9813 11.2869C60.3734 11.2869 57.2982 13.0287 57.2982 17.3397C57.2982 21.3676 59.9605 23.4687 63.09 23.4687C66.2739 23.4687 67.5996 21.4003 67.8495 20.3117H62.0577V16.6647H71.8701V26.985H68.3819V26.9632Z" fill="#7A7A7A"/>
<path id="Vector_15" d="M75.5658 26.9608V7.64844H82.5529C88.3447 7.64844 92.2349 11.3498 92.2349 17.3155C92.2349 23.2812 88.3447 26.9608 82.5312 26.9608H75.5658ZM82.3682 22.9002C85.3347 22.9002 87.7579 21.1802 87.7579 17.3155C87.7579 13.4509 85.3347 11.7091 82.3682 11.7091H79.8689V22.9111L82.3682 22.9002Z" fill="#7A7A7A"/>
<path id="Vector_16" d="M99.5182 20.0153V26.9608H95.2259V7.64844H102.485C106.397 7.64844 109.091 10.2394 109.091 13.8319C109.091 17.4788 106.397 20.0153 102.485 20.0153H99.5182ZM102.05 16.314C103.68 16.314 104.799 15.356 104.799 13.8646C104.799 12.3078 103.68 11.3825 102.05 11.3825H99.5508V16.314H102.05Z" fill="#7A7A7A"/>
<path id="Vector_17" d="M117.241 19.7767H115.719V26.9725H111.427V7.66016H119.066C122.869 7.66016 125.325 10.2729 125.325 13.713C125.325 16.3257 123.88 18.3179 121.522 19.1561L125.434 26.9725H120.707L117.241 19.7767ZM118.24 16.0644C120.012 16.0644 120.957 15.0847 120.957 13.7239C120.957 12.276 120.001 11.3833 118.24 11.3833H115.708V16.0644H118.24Z" fill="#7A7A7A"/>
<path id="Vector_18" d="M63.1862 33.0812C62.8602 32.6457 62.4581 32.3083 61.98 32.0905C61.5019 31.8728 61.002 31.7639 60.4804 31.7639C59.8828 31.7639 59.3286 31.8837 58.8179 32.1341C58.318 32.3845 57.8725 32.711 57.5031 33.1247C57.1336 33.5384 56.8511 34.0174 56.6446 34.5726C56.4381 35.1169 56.3404 35.6939 56.3404 36.2818C56.3404 36.9132 56.4381 37.5119 56.6446 38.0562C56.8511 38.6005 57.1336 39.0795 57.4922 39.4823C57.8508 39.8851 58.2854 40.2117 58.7962 40.4403C59.296 40.6798 59.8611 40.7887 60.4696 40.7887C61.1324 40.7887 61.7301 40.6581 62.2517 40.3968C62.7733 40.1355 63.2296 39.7654 63.61 39.2646L64.5771 40.0811C64.0881 40.7343 63.5013 41.2133 62.8059 41.529C62.1213 41.8338 61.3389 41.9862 60.4696 41.9862C59.6981 41.9862 58.97 41.8447 58.2963 41.5507C57.6226 41.2677 57.0358 40.8649 56.5468 40.3641C56.047 39.8525 55.6666 39.2537 55.3841 38.557C55.1016 37.8603 54.9603 37.0982 54.9603 36.2709C54.9603 35.4762 55.0907 34.725 55.3624 34.0283C55.634 33.3316 56.0144 32.7328 56.5033 32.2212C56.9923 31.7095 57.5791 31.3067 58.2528 31.0128C58.9266 30.7189 59.6655 30.5664 60.4696 30.5664C61.2085 30.5664 61.9148 30.6971 62.5885 30.9692C63.2623 31.2305 63.8382 31.666 64.2946 32.2756L63.1862 33.0812Z" fill="#7A7A7A"/>
<path id="Vector_19" d="M65.6908 38.1124C65.6908 37.5463 65.7886 37.0347 65.9842 36.5774C66.1798 36.1202 66.4406 35.7174 66.7774 35.3908C67.1143 35.0533 67.5163 34.803 67.9836 34.6179C68.4508 34.4328 68.9616 34.3457 69.5158 34.3457C70.0699 34.3457 70.5807 34.4328 71.0479 34.6179C71.5152 34.803 71.9172 35.0642 72.2541 35.3908C72.591 35.7283 72.8517 36.1202 73.0473 36.5774C73.2429 37.0347 73.3407 37.5463 73.3407 38.1124C73.3407 38.6785 73.2429 39.1901 73.0473 39.6474C72.8517 40.1046 72.591 40.5074 72.2541 40.834C71.9172 41.1715 71.5152 41.4218 71.0479 41.6069C70.5807 41.792 70.0699 41.8791 69.5158 41.8791C68.9616 41.8791 68.4508 41.792 67.9836 41.6069C67.5163 41.4218 67.1143 41.1606 66.7774 40.834C66.4406 40.4965 66.1798 40.1046 65.9842 39.6474C65.7886 39.1901 65.6908 38.6785 65.6908 38.1124ZM66.9839 38.1124C66.9839 38.4934 67.0382 38.8418 67.1577 39.1684C67.2773 39.495 67.4511 39.778 67.6685 40.0175C67.8967 40.257 68.1575 40.453 68.4726 40.5836C68.7877 40.7142 69.1354 40.7904 69.5266 40.7904C69.9178 40.7904 70.2655 40.7251 70.5807 40.5836C70.8958 40.4421 71.1566 40.257 71.3848 40.0175C71.613 39.778 71.776 39.495 71.8955 39.1684C72.015 38.8418 72.0694 38.4934 72.0694 38.1124C72.0694 37.7314 72.015 37.383 71.8955 37.0564C71.776 36.7298 71.6021 36.4577 71.3848 36.2073C71.1566 35.9678 70.8958 35.7827 70.5807 35.6412C70.2655 35.4997 69.9178 35.4344 69.5266 35.4344C69.1354 35.4344 68.7877 35.4997 68.4726 35.6412C68.1575 35.7827 67.8967 35.9678 67.6685 36.2073C67.4403 36.4468 67.2773 36.7298 67.1577 37.0564C67.0382 37.383 66.9839 37.7423 66.9839 38.1124Z" fill="#7A7A7A"/>
<path id="Vector_20" d="M75.1739 36.2243C75.1739 35.8977 75.1631 35.5929 75.1413 35.299C75.1196 35.016 75.1088 34.7547 75.1088 34.5152H76.2389C76.2389 34.7111 76.2389 34.9071 76.2497 35.103C76.2606 35.299 76.2606 35.4949 76.2606 35.7018H76.2932C76.3693 35.5276 76.4888 35.3643 76.6409 35.1901C76.793 35.0268 76.9669 34.8853 77.1734 34.7547C77.3798 34.624 77.608 34.5261 77.858 34.4499C78.1079 34.3737 78.3904 34.3301 78.6838 34.3301C79.075 34.3301 79.401 34.3737 79.6618 34.4716C79.9226 34.5696 80.1399 34.6894 80.3138 34.82C80.4876 34.9615 80.618 35.103 80.7158 35.2663C80.8136 35.4296 80.8897 35.5712 80.9549 35.6909C81.2157 35.2555 81.5308 34.9289 81.8785 34.6894C82.2263 34.4499 82.6718 34.3301 83.226 34.3301C83.7367 34.3301 84.1605 34.3954 84.5082 34.537C84.8559 34.6785 85.1384 34.8744 85.3558 35.1357C85.5731 35.397 85.7252 35.7127 85.8122 36.0828C85.8991 36.4529 85.9534 36.8775 85.9534 37.3347V41.7001H84.7581V37.4001C84.7581 37.1497 84.7364 36.9102 84.6821 36.6816C84.6277 36.4421 84.5408 36.2352 84.4104 36.0502C84.28 35.8651 84.0953 35.7127 83.8779 35.6038C83.6497 35.4949 83.3672 35.4405 83.0195 35.4405C82.7696 35.4405 82.5196 35.495 82.3023 35.5929C82.0741 35.6909 81.8785 35.8433 81.7155 36.0175C81.5417 36.2026 81.4113 36.4203 81.3135 36.6816C81.2157 36.9428 81.1722 37.2368 81.1722 37.5525V41.7001H79.9769V37.6287C79.9769 36.834 79.8682 36.2679 79.6509 35.9304C79.4336 35.5929 79.0859 35.4296 78.5969 35.4296C78.2057 35.4296 77.8688 35.4949 77.5972 35.6256C77.3146 35.7562 77.0864 35.9522 76.9126 36.1917C76.7278 36.4421 76.5974 36.7251 76.5105 37.0626C76.4236 37.4001 76.3801 37.7702 76.3801 38.1839V41.6893H75.1848V36.2243H75.1739Z" fill="#7A7A7A"/>
<path id="Vector_21" d="M88.1693 34.517H89.3646V35.5621H89.3972C89.7232 35.1702 90.1035 34.8763 90.5382 34.6586C90.9728 34.4408 91.451 34.332 91.9725 34.332C92.5376 34.332 93.0483 34.4299 93.5156 34.615C93.9828 34.8001 94.374 35.0722 94.7 35.4097C95.026 35.7472 95.2868 36.15 95.4715 36.6072C95.6562 37.0644 95.7432 37.5652 95.7432 38.1095C95.7432 38.6538 95.6562 39.1546 95.4715 39.6118C95.2868 40.0691 95.0369 40.4718 94.7109 40.8093C94.3849 41.1468 94.0046 41.4081 93.5699 41.604C93.1352 41.8 92.6571 41.8871 92.1573 41.8871C91.5161 41.8871 90.9511 41.7455 90.4621 41.4625C89.9731 41.1795 89.6254 40.8311 89.3972 40.4283H89.3646V45.2074H88.1693V34.517ZM89.3646 38.1095C89.3646 38.4905 89.4189 38.8389 89.5385 39.1655C89.658 39.4921 89.8319 39.7751 90.0492 40.0146C90.2774 40.2541 90.5382 40.4501 90.8533 40.5807C91.1684 40.7222 91.5161 40.7875 91.9073 40.7875C92.2985 40.7875 92.6463 40.7222 92.9614 40.5807C93.2765 40.4392 93.5373 40.2541 93.7655 40.0146C93.9937 39.7751 94.1567 39.4921 94.2762 39.1655C94.3957 38.8389 94.4501 38.4905 94.4501 38.1095C94.4501 37.7285 94.3957 37.3801 94.2762 37.0535C94.1567 36.727 93.9828 36.4548 93.7655 36.2044C93.5373 35.9649 93.2765 35.7798 92.9614 35.6383C92.6463 35.4968 92.2985 35.4315 91.9073 35.4315C91.5161 35.4315 91.1684 35.4968 90.8533 35.6383C90.5382 35.7798 90.2774 35.9649 90.0492 36.2044C89.821 36.4439 89.658 36.727 89.5385 37.0535C89.4298 37.3801 89.3646 37.7394 89.3646 38.1095Z" fill="#7A7A7A"/>
<path id="Vector_22" d="M97.638 30.0977H98.8334V41.7025H97.638V30.0977Z" fill="#7A7A7A"/>
<path id="Vector_23" d="M100.929 31.7088C100.929 31.4693 101.016 31.2734 101.179 31.0992C101.353 30.925 101.559 30.8379 101.798 30.8379C102.037 30.8379 102.255 30.925 102.418 31.0992C102.592 31.2734 102.668 31.4802 102.668 31.7088C102.668 31.9592 102.581 32.1769 102.418 32.3402C102.255 32.5035 102.048 32.5906 101.788 32.5906C101.527 32.5906 101.32 32.5035 101.157 32.3402C100.994 32.1769 100.929 31.9701 100.929 31.7088ZM101.201 34.5175H102.396V41.7025H101.201V34.5175Z" fill="#7A7A7A"/>
<path id="Vector_24" d="M104.541 35.4405C104.911 35.0595 105.345 34.7873 105.856 34.6023C106.367 34.4281 106.877 34.3301 107.399 34.3301C108.464 34.3301 109.224 34.5805 109.703 35.0813C110.17 35.582 110.409 36.3441 110.409 37.3674V40.4482C110.409 40.6551 110.42 40.8619 110.442 41.0905C110.463 41.3191 110.485 41.5151 110.518 41.7001H109.366C109.322 41.5368 109.301 41.3518 109.301 41.1558C109.301 40.9599 109.29 40.7748 109.29 40.6224H109.257C109.018 40.9925 108.703 41.2973 108.312 41.526C107.921 41.7655 107.442 41.8743 106.899 41.8743C106.53 41.8743 106.182 41.8308 105.867 41.7328C105.541 41.6457 105.269 41.5042 105.019 41.33C104.78 41.1558 104.585 40.9272 104.443 40.6659C104.302 40.4047 104.226 40.089 104.226 39.7406C104.226 39.1419 104.378 38.6846 104.682 38.3472C104.987 38.0097 105.367 37.7593 105.823 37.596C106.28 37.4327 106.769 37.3347 107.29 37.2912C107.812 37.2476 108.301 37.2259 108.735 37.2259H109.192V37.0081C109.192 36.4856 109.04 36.0937 108.725 35.8215C108.41 35.5494 107.975 35.4187 107.41 35.4187C107.019 35.4187 106.638 35.4841 106.269 35.6147C105.899 35.7453 105.563 35.9413 105.28 36.2026L104.541 35.4405ZM107.997 38.2492C107.225 38.2492 106.627 38.358 106.171 38.5758C105.726 38.7935 105.497 39.1419 105.497 39.6317C105.497 40.0781 105.649 40.4047 105.954 40.5897C106.258 40.7748 106.627 40.8728 107.084 40.8728C107.432 40.8728 107.736 40.8184 107.997 40.6986C108.257 40.5789 108.475 40.4264 108.649 40.2305C108.822 40.0345 108.953 39.8059 109.051 39.5447C109.138 39.2834 109.192 39.0003 109.203 38.7064V38.2492H107.997Z" fill="#7A7A7A"/>
<path id="Vector_25" d="M112.576 36.2243C112.576 35.8977 112.565 35.5929 112.544 35.299C112.522 35.016 112.511 34.7547 112.511 34.5152H113.641C113.641 34.7111 113.641 34.9071 113.652 35.103C113.663 35.299 113.663 35.4949 113.663 35.7018H113.696C113.772 35.5276 113.891 35.3643 114.043 35.1901C114.195 35.0268 114.369 34.8853 114.576 34.7547C114.782 34.624 115.01 34.5261 115.26 34.4499C115.51 34.3737 115.793 34.3301 116.086 34.3301C116.553 34.3301 116.966 34.4063 117.303 34.5478C117.64 34.6894 117.933 34.8962 118.151 35.1466C118.368 35.397 118.542 35.7127 118.651 36.0719C118.759 36.4312 118.814 36.834 118.814 37.2585V41.7001H117.618V37.3892C117.618 36.7904 117.488 36.3114 117.216 35.9631C116.955 35.6147 116.543 35.4405 115.977 35.4405C115.586 35.4405 115.249 35.5058 114.978 35.6365C114.695 35.7671 114.467 35.9631 114.293 36.2026C114.108 36.4529 113.978 36.736 113.891 37.0735C113.804 37.4109 113.761 37.7811 113.761 38.1948V41.7001H112.565V36.2243H112.576Z" fill="#7A7A7A"/>
<path id="Vector_26" d="M124.914 35.5269H122.795V39.1194C122.795 39.3589 122.795 39.5766 122.806 39.7726C122.817 39.9685 122.86 40.1427 122.925 40.2951C122.99 40.4475 123.099 40.5564 123.251 40.6435C123.393 40.7306 123.599 40.7741 123.86 40.7741C124.034 40.7741 124.207 40.7523 124.392 40.7088C124.577 40.6652 124.751 40.6108 124.914 40.5237L124.957 41.6124C124.751 41.6994 124.523 41.7756 124.273 41.8083C124.023 41.841 123.784 41.8736 123.555 41.8736C123.121 41.8736 122.784 41.8192 122.523 41.6994C122.262 41.5906 122.067 41.4273 121.926 41.2204C121.784 41.0136 121.686 40.7632 121.643 40.4584C121.6 40.1536 121.578 39.8161 121.578 39.4569V35.516H120.013V34.5036H121.578V32.457H122.773V34.5036H124.892V35.5269H124.914Z" fill="#7A7A7A"/>
<path id="Vector_27" d="M28.6027 23.1387H15.9759V33.3283H28.6027V23.1387Z" fill="#7A7A7A"/>
<path id="Vector_28" d="M18.2435 24.4787V20.9951C18.2435 18.7525 20.0582 16.9453 22.2858 16.9453C24.5243 16.9453 26.3281 18.7634 26.3281 20.9951V24.4787" stroke="#7A7A7A" stroke-width="1.65754" stroke-miterlimit="10"/>
</g>
</g>
</g>
</g>
<defs>
<clipPath id="clip0_36_292">
<rect width="126" height="48" fill="white" transform="translate(0.139999 0.414062)"/>
</clipPath>
</defs>
</svg>
