<svg width="19" height="19" viewBox="0 0 19 19" fill="none" xmlns="http://www.w3.org/2000/svg">
<path fill-rule="evenodd" clip-rule="evenodd" d="M2.77159 6.33336C2.77175 5.58279 2.96592 4.84501 3.33527 4.19161C3.70462 3.53821 4.2366 2.99138 4.87959 2.60419C5.52258 2.217 6.25474 2.00259 7.00502 1.98178C7.7553 1.96096 8.49822 2.13445 9.16168 2.4854C9.82515 2.83635 10.3866 3.35285 10.7916 3.98477C11.1966 4.61669 11.4314 5.34257 11.4732 6.09198C11.5149 6.84138 11.3623 7.58886 11.03 8.26187C10.6977 8.93488 10.1971 9.51057 9.57676 9.93307C10.9127 10.4231 12.0714 11.3016 12.9038 12.4557C13.7363 13.6098 14.2042 14.9866 14.2476 16.4089C14.2499 16.4869 14.2369 16.5645 14.2092 16.6375C14.1815 16.7104 14.1398 16.7772 14.0863 16.834C13.9783 16.9487 13.8291 17.0157 13.6717 17.0205C13.5142 17.0252 13.3613 16.9672 13.2466 16.8592C13.1319 16.7511 13.0648 16.602 13.0601 16.4445C13.0129 14.9019 12.367 13.4383 11.2592 12.3638C10.1514 11.2893 8.66868 10.6884 7.12536 10.6884C5.58204 10.6884 4.09937 11.2893 2.99154 12.3638C1.8837 13.4383 1.23778 14.9019 1.19063 16.4445C1.18271 16.5996 1.11438 16.7453 1.00028 16.8506C0.886189 16.9559 0.735406 17.0123 0.580236 17.0077C0.425065 17.0031 0.277849 16.938 0.170127 16.8262C0.0624041 16.7144 0.00274258 16.5649 0.00392345 16.4097C0.0471099 14.9873 0.515029 13.6103 1.34745 12.456C2.17987 11.3018 3.33869 10.4231 4.67476 9.93307C4.0879 9.53388 3.60765 8.99714 3.27591 8.36968C2.94418 7.74222 2.77103 7.04312 2.77159 6.33336ZM7.12576 3.16669C6.2859 3.16669 5.48045 3.50032 4.88659 4.09419C4.29272 4.68806 3.95909 5.49351 3.95909 6.33336C3.95909 7.17321 4.29272 7.97867 4.88659 8.57253C5.48045 9.1664 6.2859 9.50003 7.12576 9.50003C7.96561 9.50003 8.77106 9.1664 9.36493 8.57253C9.95879 7.97867 10.2924 7.17321 10.2924 6.33336C10.2924 5.49351 9.95879 4.68806 9.36493 4.09419C8.77106 3.50032 7.96561 3.16669 7.12576 3.16669Z" fill="black"/>
<path d="M13.6885 6.33338C13.5713 6.33338 13.4573 6.3413 13.3449 6.35713C13.2664 6.37118 13.1859 6.36928 13.1081 6.35155C13.0304 6.33381 12.957 6.30059 12.8924 6.25389C12.8278 6.20718 12.7732 6.14793 12.732 6.07968C12.6908 6.01143 12.6637 5.93558 12.6525 5.85664C12.6412 5.77771 12.6459 5.69731 12.6664 5.62025C12.6869 5.54319 12.7226 5.47104 12.7716 5.4081C12.8206 5.34517 12.8817 5.29274 12.9513 5.25394C13.021 5.21515 13.0978 5.19078 13.1771 5.1823C13.9644 5.06846 14.7673 5.21966 15.4593 5.61211C16.1513 6.00456 16.6932 6.61598 16.9997 7.35014C17.3062 8.0843 17.3598 8.89952 17.1522 9.66751C16.9446 10.4355 16.4875 11.1127 15.8529 11.5924C16.7858 12.0101 17.5779 12.6889 18.1336 13.5468C18.6893 14.4046 18.9849 15.405 18.9847 16.4271C18.9847 16.5846 18.9222 16.7356 18.8108 16.847C18.6995 16.9583 18.5484 17.0209 18.391 17.0209C18.2335 17.0209 18.0825 16.9583 17.9711 16.847C17.8598 16.7356 17.7972 16.5846 17.7972 16.4271C17.7971 15.5437 17.5125 14.6839 16.9855 13.9749C16.4585 13.266 15.7171 12.7456 14.8712 12.491L14.4485 12.3643V11.0375L14.7731 10.872C15.2542 10.6283 15.6392 10.2295 15.8658 9.74011C16.0924 9.2507 16.1475 8.69918 16.0222 8.1746C15.8968 7.65003 15.5983 7.18301 15.1749 6.84893C14.7515 6.51486 14.2278 6.33324 13.6885 6.33338Z" fill="black"/>
</svg>
