<svg width="13" height="14" viewBox="0 0 13 14" fill="none" xmlns="http://www.w3.org/2000/svg">
<path d="M8.99198 6.75L12.5076 10.3008C12.9646 10.7227 12.9646 11.4258 12.5076 11.8477L11.7342 12.6211C11.3123 13.0781 10.6092 13.0781 10.1873 12.6211L6.67167 9.10547L3.12089 12.6211C2.69902 13.0781 1.99589 13.0781 1.57402 12.6211L0.800578 11.8477C0.343547 11.4258 0.343547 10.7227 0.800578 10.3008L4.3162 6.75L0.800578 3.23438C0.343547 2.8125 0.343547 2.10938 0.800578 1.6875L1.57402 0.914062C1.99589 0.457031 2.69902 0.457031 3.12089 0.914062L6.67167 4.42969L10.1873 0.914062C10.6092 0.457031 11.3123 0.457031 11.7342 0.914062L12.5076 1.6875C12.9646 2.10938 12.9646 2.8125 12.5076 3.23438L8.99198 6.75Z" fill="#666666"/>
</svg>
