<svg xmlns="http://www.w3.org/2000/svg" width="25" height="25" viewBox="0 0 25 25" fill="none">
    <g clip-path="url(#clip0_420_166)">
        <path d="M12.5 25C5.60791 25 0 19.3921 0 12.5C0 5.60791 5.60791 0 12.5 0C19.3921 0 25 5.60791 25 12.5C25 19.3921 19.3921 25 12.5 25ZM12.5 2.08252C6.75537 2.08252 2.08252 6.75537 2.08252 12.5C2.08252 18.2446 6.75537 22.9175 12.5 22.9175C18.2446 22.9175 22.9175 18.2446 22.9175 12.5C22.9175 6.75537 18.2446 2.08252 12.5 2.08252Z" fill="#B7B7B7"/>
        <path d="M15.6255 16.6675C15.3911 16.6675 15.1543 16.5894 14.959 16.4258L11.834 13.8208C11.5972 13.623 11.458 13.3301 11.458 13.02V9.375C11.458 8.79883 11.9243 8.33252 12.5005 8.33252C13.0767 8.33252 13.543 8.79883 13.543 9.375V12.5342L16.292 14.8267C16.7339 15.1953 16.7925 15.8521 16.4263 16.2939C16.2188 16.5381 15.9233 16.6675 15.6255 16.6675Z" fill="#B7B7B7"/>
    </g>
    <defs>
        <clipPath id="clip0_420_166">
            <rect width="25" height="25" fill="white"/>
        </clipPath>
    </defs>
</svg>