<svg xmlns="http://www.w3.org/2000/svg" width="41" height="41" viewBox="0 0 41 41" fill="none">
    <path d="M16.5201 23.7834C15.256 23.7834 14.248 24.8084 14.248 26.0726C14.248 27.3368 15.273 28.3447 16.5201 28.3447C17.7842 28.3447 18.8092 27.3197 18.8092 26.0726C18.8092 24.8084 17.7842 23.7834 16.5201 23.7834Z" fill="#292D32"/>
    <path d="M27.6573 3.41699H13.3414C7.1231 3.41699 3.41602 7.12408 3.41602 13.3424V27.6412C3.41602 33.8766 7.1231 37.5837 13.3414 37.5837H27.6402C33.8585 37.5837 37.5656 33.8766 37.5656 27.6582V13.3424C37.5827 7.12408 33.8756 3.41699 27.6573 3.41699ZM29.246 16.742C29.246 17.7841 28.8018 18.7066 28.0502 19.2532C27.5718 19.5949 26.991 19.7828 26.376 19.7828C26.0173 19.7828 25.6585 19.7145 25.2827 19.5949L21.3706 18.2966C21.3535 18.2966 21.3193 18.2795 21.3023 18.2624V26.0524C21.3023 28.6832 19.1498 30.8357 16.5189 30.8357C13.8881 30.8357 11.7356 28.6832 11.7356 26.0524C11.7356 23.4216 13.8881 21.2691 16.5189 21.2691C17.356 21.2691 18.1248 21.5082 18.8081 21.867V14.7432V13.7012C18.8081 12.6591 19.2523 11.7366 20.0039 11.1899C20.7727 10.6432 21.7806 10.5066 22.7714 10.8482L26.6835 12.1466C28.1527 12.642 29.2631 14.1795 29.2631 15.717V16.742H29.246Z" fill="white"/>
</svg>