<svg width="30" height="30" viewBox="0 0 30 30" fill="none" xmlns="http://www.w3.org/2000/svg">
<g id="calendar-search-svgrepo-com 1">
<path id="Vector" fill-rule="evenodd" clip-rule="evenodd" d="M22.5 19.6875C20.9468 19.6875 19.6875 20.9468 19.6875 22.5C19.6875 24.0533 20.9468 25.3125 22.5 25.3125C24.0533 25.3125 25.3125 24.0533 25.3125 22.5C25.3125 20.9468 24.0533 19.6875 22.5 19.6875ZM17.8125 22.5C17.8125 19.9111 19.9111 17.8125 22.5 17.8125C25.0889 17.8125 27.1875 19.9111 27.1875 22.5C27.1875 23.4554 26.9016 24.344 26.4109 25.085L28.1629 26.8371C28.529 27.2033 28.529 27.7968 28.1629 28.1629C27.7968 28.529 27.2033 28.529 26.8371 28.1629L25.085 26.4109C24.344 26.9016 23.4554 27.1875 22.5 27.1875C19.9111 27.1875 17.8125 25.0889 17.8125 22.5Z" fill="#262626"/>
<path id="Vector_2" d="M9.68706 3.125C9.68706 2.60724 9.26732 2.1875 8.74956 2.1875C8.2318 2.1875 7.81206 2.60724 7.81206 3.125V5.09907C6.0129 5.24314 4.83177 5.59671 3.96402 6.46446C3.09627 7.33221 2.7427 8.51334 2.59863 10.3125H27.4004C27.2564 8.51334 26.9028 7.33221 26.0351 6.46446C25.1673 5.59671 23.9862 5.24314 22.1871 5.09907V3.125C22.1871 2.60724 21.7673 2.1875 21.2496 2.1875C20.7318 2.1875 20.3121 2.60724 20.3121 3.125V5.01612C19.4804 5 18.5483 5 17.4996 5H12.4996C11.4508 5 10.5186 5 9.68706 5.01612V3.125Z" fill="#262626"/>
<path id="Vector_3" d="M27.5 15V17.5C27.5 17.7566 27.5 18.0063 27.4998 18.249C26.296 16.8346 24.5028 15.9375 22.5 15.9375C18.8756 15.9375 15.9375 18.8756 15.9375 22.5C15.9375 24.5028 16.8346 26.296 18.249 27.4998C18.0063 27.5 17.7566 27.5 17.5 27.5H12.5C7.78595 27.5 5.42894 27.5 3.96446 26.0355C2.5 24.5711 2.5 22.214 2.5 17.5V15C2.5 13.9513 2.5 13.0191 2.51613 12.1875H27.4839C27.5 13.0191 27.5 13.9513 27.5 15Z" fill="#262626"/>
</g>
</svg>
