<svg width="31" height="31" viewBox="0 0 31 31" fill="none" xmlns="http://www.w3.org/2000/svg">
<g id="chat-square-call-svgrepo-com 1">
<path id="Vector" fill-rule="evenodd" clip-rule="evenodd" d="M16.9033 29.6257L17.6035 28.4427C18.1466 27.5251 18.4182 27.0663 18.8544 26.8126C19.2906 26.5589 19.8397 26.5495 20.9381 26.5306C22.5597 26.5026 23.5766 26.4032 24.4295 26.05C26.012 25.3945 27.2692 24.1373 27.9247 22.5547C28.4163 21.3679 28.4163 19.8633 28.4163 16.8541V15.5624C28.4163 11.3342 28.4163 9.22014 27.4646 7.66712C26.9321 6.79811 26.2015 6.06748 25.3325 5.53495C23.7794 4.58325 21.6653 4.58325 17.4372 4.58325H13.5622C9.33399 4.58325 7.2199 4.58325 5.66687 5.53495C4.79787 6.06748 4.06724 6.79811 3.53471 7.66712C2.58301 9.22014 2.58301 11.3342 2.58301 15.5624V16.8541C2.58301 19.8633 2.58301 21.3679 3.07462 22.5547C3.7301 24.1373 4.98737 25.3945 6.56984 26.05C7.42274 26.4032 8.43971 26.5026 10.0612 26.5306C11.1596 26.5495 11.7087 26.5589 12.1449 26.8126C12.5811 27.0664 12.8527 27.5251 13.3958 28.4427L14.096 29.6257C14.7202 30.6801 16.2792 30.6801 16.9033 29.6257ZM15.4997 10.0728C16.0347 10.0728 16.4684 10.5066 16.4684 11.0416V21.3749C16.4684 21.9099 16.0347 22.3437 15.4997 22.3437C14.9647 22.3437 14.5309 21.9099 14.5309 21.3749V11.0416C14.5309 10.5066 14.9647 10.0728 15.4997 10.0728ZM11.3018 13.6249C11.3018 13.0899 10.868 12.6562 10.333 12.6562C9.79799 12.6562 9.36426 13.0899 9.36426 13.6249V18.7916C9.36426 19.3266 9.79799 19.7603 10.333 19.7603C10.868 19.7603 11.3018 19.3266 11.3018 18.7916V13.6249ZM20.6663 12.6562C21.2014 12.6562 21.6351 13.0899 21.6351 13.6249V18.7916C21.6351 19.3266 21.2014 19.7603 20.6663 19.7603C20.1313 19.7603 19.6976 19.3266 19.6976 18.7916V13.6249C19.6976 13.0899 20.1313 12.6562 20.6663 12.6562Z" fill="#262626"/>
</g>
</svg>
