<svg xmlns="http://www.w3.org/2000/svg" width="26" height="26" viewBox="0 0 26 26" fill="none">
    <path fill-rule="evenodd" clip-rule="evenodd" d="M4.25 3.43384V1.75C4.25 1.05963 4.80965 0.5 5.5 0.5C6.19035 0.5 6.75 1.05963 6.75 1.75V3.04346C7.26391 3.01257 7.81069 3 8.39 3H17.61C18.1894 3 18.7361 3.01257 19.25 3.04346V1.75C19.25 1.05963 19.8096 0.5 20.5 0.5C21.1904 0.5 21.75 1.05963 21.75 1.75V3.43384C22.5614 3.67542 23.2795 4.05072 23.8644 4.63562C24.5724 5.34363 24.9734 6.24707 25.2016 7.27448C25.4269 8.28772 25.5 9.49445 25.5 10.89V17.61C25.5 19.0055 25.4269 20.2122 25.2016 21.2255C24.9734 22.253 24.5724 23.1564 23.8644 23.8644C23.1564 24.5724 22.253 24.9734 21.2255 25.2016C20.2122 25.4269 19.0055 25.5 17.61 25.5H8.39C6.99446 25.5 5.78772 25.4269 4.77449 25.2016C3.74705 24.9734 2.8436 24.5724 2.1356 23.8644C1.42761 23.1564 1.02666 22.253 0.798325 21.2255C0.573151 20.2122 0.5 19.0055 0.5 17.61V10.89C0.5 9.49445 0.573151 8.28772 0.798325 7.27448C1.02666 6.24707 1.42761 5.34363 2.1356 4.63562C2.72045 4.05072 3.43869 3.67542 4.25 3.43384ZM18.3996 17.8161V18.3201C18.3996 18.9141 17.9136 19.4001 17.3196 19.4001H8.67961C8.08561 19.4001 7.59961 18.9141 7.59961 18.3201V17.8161C7.59961 16.5021 9.12961 15.7101 10.5696 15.0801C10.6236 15.0621 10.6596 15.0441 10.7136 15.0081C10.8216 14.9541 10.9476 14.9541 11.0556 15.0261C11.6316 15.4041 12.2976 15.6201 12.9996 15.6201C13.7016 15.6201 14.3676 15.4041 14.9436 15.0441C15.0516 14.9721 15.1776 14.9721 15.2856 15.0261C15.3396 15.0441 15.3756 15.0621 15.4296 15.0981C16.8696 15.7101 18.3996 16.5021 18.3996 17.8161ZM15.6816 11.5701C15.6816 13.2104 14.4808 14.5401 12.9996 14.5401C11.5184 14.5401 10.3176 13.2104 10.3176 11.5701C10.3176 9.92981 11.5184 8.6001 12.9996 8.6001C14.4808 8.6001 15.6816 9.92981 15.6816 11.5701Z" fill="#262626"/>
</svg>