<svg xmlns="http://www.w3.org/2000/svg" width="86" height="86" viewBox="0 0 86 86" fill="none">
    <path d="M0 13.1704V39.6631H36.4633L35.1486 38.2999C35.0937 38.2949 35.0484 38.2918 34.9904 38.287C34.3054 38.2319 33.3557 38.1447 32.2413 38.0187C30.0106 37.7621 27.134 37.3468 24.3914 36.6718C22.5595 36.2162 20.7893 35.6606 19.2422 34.8772C18.3603 34.4267 17.5364 33.9016 16.8162 33.1861C14.5112 30.8827 13.3466 27.8396 13.35 24.8177C13.3466 21.7956 14.5081 18.751 16.8162 16.4445C19.1226 14.1396 22.1657 12.9766 25.1861 12.9783C28.2065 12.9766 31.2511 14.1396 33.5561 16.4462C34.2215 17.1148 34.7207 17.8741 35.1518 18.6879C35.5815 19.502 35.9384 20.379 36.2534 21.2964C36.8802 23.1313 37.339 25.1422 37.691 27.0806C38.2774 30.3222 38.5601 33.3539 38.673 34.8337L39.6646 35.861V0H13.1704C5.89705 0 0 5.89554 0 13.1704Z" fill="#F4F6F4"/>
    <path d="M64.3912 30.4723C64.9647 30.1832 65.3734 29.8861 65.5623 29.6906C66.9143 28.3369 67.5798 26.5894 67.5815 24.8158C67.5798 23.0424 66.9143 21.2915 65.564 19.9413H65.5623C64.2088 18.5894 62.4611 17.9254 60.6877 17.9224C58.9141 17.9256 57.1666 18.5909 55.8129 19.9413C55.6449 20.106 55.3994 20.4291 55.1523 20.8847C54.9018 21.3385 54.6467 21.9183 54.4094 22.5773C53.9295 23.8953 53.5193 25.5266 53.1963 27.1758C52.77 29.3402 52.489 31.5255 52.3145 33.189C52.5568 33.1649 52.8086 33.1375 53.0703 33.1067C55.1701 32.866 57.8838 32.4688 60.3 31.8727C61.9088 31.4786 63.3883 30.9861 64.3912 30.4723Z" fill="#F4F6F4"/>
    <path d="M72.8292 0H46.335V35.7315L47.2008 34.8318C47.2057 34.7623 47.2104 34.7027 47.217 34.6268C47.2719 33.9419 47.3574 32.9921 47.485 31.8778C47.7402 29.6488 48.1552 26.7688 48.8303 24.0246C49.2843 22.1914 49.843 20.4226 50.6249 18.8721C51.0787 17.9886 51.6036 17.1647 52.3175 16.446C54.6225 14.1394 57.6671 12.9764 60.6876 12.9781C63.708 12.9764 66.7526 14.1394 69.0574 16.4443C71.364 18.7509 72.527 21.7923 72.5253 24.8159C72.527 27.8363 71.364 30.8826 69.0574 33.1874C68.3872 33.8512 67.628 34.3488 66.8156 34.7816C65.9999 35.2113 65.1244 35.5682 64.207 35.8832C62.3738 36.5083 60.3646 36.9654 58.4262 37.3175C55.2217 37.899 52.2238 38.1833 50.7248 38.2996L49.4101 39.6628H85.9996V13.1704C85.9996 5.89554 80.1026 0 72.8292 0Z" fill="#F4F6F4"/>
    <path d="M62.9136 59.9984L59.3535 63.4273L46.335 49.9128V85.9999H72.8293C80.1027 85.9999 85.9998 80.1046 85.9998 72.8295V46.3354H49.753L62.9136 59.9984Z" fill="#F4F6F4"/>
    <path d="M22.96 59.9984L36.1208 46.3354H0V72.8295C0 80.1046 5.89705 85.9999 13.1704 85.9999H39.6646V49.7838L26.5201 63.4274L22.96 59.9984Z" fill="#F4F6F4"/>
    <path d="M32.2441 25.2035C31.8501 23.5947 31.3559 22.1169 30.8423 21.1138C30.5532 20.5388 30.2559 20.1318 30.0604 19.9413C28.7084 18.5909 26.9592 17.9254 25.1856 17.9224C23.4122 17.9256 21.6645 18.5894 20.311 19.9413C18.9607 21.2916 18.295 23.0426 18.292 24.8175C18.295 26.5894 18.9607 28.3403 20.311 29.6906C20.4758 29.8584 20.7988 30.1041 21.2543 30.3512C21.7065 30.6017 22.2863 30.8551 22.9439 31.0925C24.2634 31.5707 25.8933 31.9825 27.5407 32.3055C29.7065 32.7335 31.8953 33.0147 33.5605 33.189C33.5363 32.9483 33.5073 32.6979 33.4782 32.4364C33.2392 30.3383 32.8418 27.6231 32.2441 25.2035Z" fill="#F4F6F4"/>
</svg>