<svg width="41" height="41" viewBox="0 0 41 41" fill="none" xmlns="http://www.w3.org/2000/svg">
<path d="M12.7784 11.5918H2M9.48499 19.975H2M12.7784 28.3582H2" stroke="#B4B4B4" stroke-width="2" stroke-linecap="round"/>
<path d="M38.3232 20.1618C38.3232 26.3262 33.326 31.3235 27.1616 31.3235C20.9972 31.3235 16 26.3262 16 20.1618C16 13.9974 20.9972 9.00024 27.1616 9.00024C33.326 9.00024 38.3232 13.9974 38.3232 20.1618Z" stroke="#B4B4B4" stroke-width="2"/>
<path d="M26.1218 19.0612L26.101 13.885C26.0987 13.3254 26.5561 12.8728 27.1157 12.8811L27.209 12.8824L27.3349 12.8843C27.8817 12.8923 28.3207 13.3382 28.3202 13.8851L28.3153 19.0786C28.8562 19.5661 29.0261 20.3597 28.6843 21.0416C28.4873 21.4348 28.1421 21.7336 27.7248 21.8723C27.3074 22.011 26.8521 21.9782 26.4589 21.7812L26.3986 21.7509L22.5722 23.0225C22.0479 23.1967 21.4818 22.9128 21.3077 22.3885L21.2289 22.1511C21.055 21.6269 21.3388 21.061 21.863 20.887L25.6887 19.617L25.7199 19.5548C25.8216 19.3664 25.958 19.199 26.1218 19.0612Z" fill="#B4B4B4"/>
</svg>
