<svg width="24" height="24" viewBox="0 0 24 24" fill="none" xmlns="http://www.w3.org/2000/svg">
<path d="M12.9231 19.4453C12.6296 19.156 12.6021 18.6988 12.8427 18.3781L12.9149 18.2942L17.8811 13.2581H5.17365C4.72414 13.2581 4.35965 12.8937 4.35965 12.4441C4.35965 12.0291 4.67017 11.6867 5.07152 11.6365L5.17365 11.6301H17.8811L12.9149 6.59404C12.6256 6.30062 12.6046 5.84312 12.8496 5.52574L12.9231 5.44291C13.2165 5.15364 13.6741 5.13261 13.9914 5.37764L14.0742 5.45112L20.4053 11.8727C20.6917 12.1631 20.7156 12.6151 20.4769 12.9326L20.4053 13.0156L14.0742 19.4372C13.7586 19.7573 13.2432 19.761 12.9231 19.4453Z" fill="#262626"/>
</svg>
