<svg width="31" height="31" viewBox="0 0 31 31" fill="none" xmlns="http://www.w3.org/2000/svg">
<g id="gift-alt-fill-svgrepo-com 2">
<path id="Vector" d="M25.7886 5.23091C24.4652 3.90754 22.5969 3.69995 20.3913 3.69995H16.3433V10.0703C17.2515 8.29288 18.8084 7.20301 20.547 7.20301C22.545 7.20301 24.0371 8.70806 24.0371 10.732C24.0371 12.4706 22.8305 13.9237 21.0789 14.7022H27.3065V10.6153C27.3065 8.39667 27.112 6.54132 25.7886 5.23091ZM13.982 14.4946H14.3972V14.0924C14.3972 11.4715 12.6196 9.18811 10.5568 9.18811C9.55773 9.18811 8.92201 9.8498 8.92201 10.8748C8.92201 12.6263 11.2444 14.4946 13.982 14.4946ZM17.018 14.4946C19.7426 14.4946 22.078 12.6263 22.078 10.8748C22.078 9.8498 21.4422 9.18811 20.4432 9.18811C18.3803 9.18811 16.6028 11.4715 16.6028 14.0924V14.4946H17.018ZM3.69336 14.7022H9.92104C8.16948 13.9237 6.96286 12.4706 6.96286 10.732C6.96286 8.70806 8.45491 7.20301 10.453 7.20301C12.1915 7.20301 13.7484 8.29288 14.6566 10.0703V3.69995H10.5827C8.40304 3.69995 6.53473 3.90754 5.21136 5.23091C3.88794 6.55428 3.69336 8.40963 3.69336 10.5764V14.7022ZM23.077 20.6055C23.7906 20.6834 24.1928 21.1245 24.1928 21.8121C24.1928 22.4089 23.7127 22.9798 22.9213 22.876C20.7805 22.5517 17.3553 20.0606 16.4471 17.2062H16.3433V27.3002H20.3913C22.5969 27.3002 24.4652 27.0927 25.7886 25.7693C27.112 24.4459 27.3065 22.6035 27.3065 20.3849V16.2461H17.6926C18.4971 17.9069 21.1568 20.4109 23.077 20.6055ZM5.21136 25.7693C6.53473 27.0927 8.40303 27.3002 10.6216 27.3002H14.6566V17.2062H14.5528C13.6446 20.0606 10.2194 22.5517 8.07864 22.876C7.28726 22.9798 6.80714 22.4089 6.80714 21.8121C6.80714 21.1245 7.19642 20.6834 7.92298 20.6055C9.84315 20.4109 12.5029 17.9069 13.3073 16.2461H3.69336V20.3849C3.69336 22.6035 3.88794 24.4459 5.21136 25.7693Z" fill="#262626"/>
</g>
</svg>
