<svg width="231" height="206" viewBox="0 0 231 206" fill="none" xmlns="http://www.w3.org/2000/svg">
<path d="M112.144 17.2235C112.403 17.1084 112.698 17.1084 112.957 17.2235L205.531 58.3915C205.892 58.552 206.125 58.9101 206.125 59.3052V162.688C206.125 209.41 170.617 256.133 112.89 277C112.672 277.079 112.428 277.079 112.21 277C54.4835 256.153 18.9756 214.602 18.9756 162.688V59.3052C18.9756 58.9101 19.2082 58.552 19.5693 58.3915L112.144 17.2235Z" stroke="url(#paint0_linear_397_1126)" stroke-width="34" stroke-linecap="round"/>
<path fill-rule="evenodd" clip-rule="evenodd" d="M189.147 32.3669C192.643 34.3219 195.244 37.5981 196.375 41.4751C197.507 45.3523 197.077 49.5128 195.181 53.0418L119.348 194.102C118.346 195.966 116.99 197.609 115.357 198.936C113.724 200.264 111.846 201.25 109.831 201.838C107.816 202.427 105.702 202.605 103.612 202.364C101.521 202.124 99.4941 201.468 97.6466 200.435L28.1896 161.629C26.422 160.68 24.8553 159.387 23.5808 157.823C22.3063 156.259 21.3496 154.457 20.7663 152.52C20.183 150.583 19.9851 148.552 20.1841 146.544C20.3828 144.536 20.9743 142.591 21.9244 140.824C22.8744 139.058 24.1636 137.503 25.7169 136.252C27.27 135 29.0563 134.078 30.9711 133.537C32.886 132.996 34.8913 132.849 36.8698 133.103C38.8487 133.358 40.7609 134.008 42.4955 135.017L99.6451 166.955L168.797 38.3059C169.736 36.5573 171.008 35.0166 172.54 33.7716C174.07 32.5268 175.832 31.6019 177.721 31.0505C179.611 30.4989 181.593 30.3315 183.554 30.5572C185.513 30.7832 187.414 31.398 189.147 32.3669Z" fill="#F0F8F1"/>
<path d="M195.695 128.555L198.043 129.24C198.597 129.402 198.603 130.183 198.052 130.353L195.76 131.061C192.047 132.208 189.102 135.048 187.826 138.713L186.761 141.773C186.575 142.307 185.811 142.288 185.652 141.746L184.933 139.294C183.762 135.301 180.632 132.178 176.631 131.01L174.337 130.34C173.778 130.177 173.778 129.387 174.337 129.224L176.631 128.554C180.632 127.386 183.762 124.263 184.933 120.27L185.604 117.98C185.768 117.423 186.559 117.423 186.722 117.98L187.393 120.27C188.564 124.264 191.693 127.386 195.695 128.555Z" fill="#A8D8B2"/>
<path d="M56.3332 137.215L58.5084 137.85C59.0215 137.999 59.0271 138.723 58.5165 138.881L56.3939 139.537C52.954 140.6 50.2252 143.231 49.0436 146.626L48.0565 149.461C47.8843 149.956 47.1767 149.938 47.0294 149.435L46.3634 147.164C45.2785 143.465 42.3795 140.572 38.6727 139.489L36.547 138.869C36.0299 138.718 36.0299 137.986 36.547 137.835L38.6727 137.215C42.3795 136.132 45.2785 133.24 46.3634 129.54L46.9853 127.419C47.1367 126.903 47.8696 126.903 48.0205 127.419L48.6425 129.54C49.7273 133.239 52.6263 136.132 56.3332 137.215Z" fill="#A8D8B2"/>
<path d="M140.76 204.178L142.498 204.685C142.908 204.805 142.912 205.383 142.504 205.509L140.808 206.033C138.06 206.882 135.88 208.984 134.936 211.696L134.147 213.962C134.01 214.357 133.445 214.343 133.327 213.941L132.795 212.126C131.928 209.171 129.612 206.86 126.651 205.995L124.952 205.499C124.539 205.379 124.539 204.794 124.952 204.674L126.651 204.178C129.612 203.313 131.928 201.002 132.795 198.047L133.292 196.352C133.413 195.94 133.998 195.94 134.119 196.352L134.616 198.047C135.482 201.002 137.798 203.313 140.76 204.178Z" fill="#A8D8B2"/>
<path d="M67.9126 181.19L62.4222 182.93L60.6665 188.373L58.9107 182.93L53.4199 181.19L58.9107 179.449L60.6665 174.007L62.4222 179.449L67.9126 181.19Z" fill="#A8D8B2"/>
<defs>
<linearGradient id="paint0_linear_397_1126" x1="112.55" y1="277.123" x2="134.545" y2="-2.19914" gradientUnits="userSpaceOnUse">
<stop stop-color="#C1E9CA" stop-opacity="0.2"/>
<stop offset="1" stop-color="#CBE6D1" stop-opacity="0.3"/>
</linearGradient>
</defs>
</svg>
