<svg width="18" height="18" viewBox="0 0 18 18" fill="none" xmlns="http://www.w3.org/2000/svg">
<mask id="mask0_397_1163" style="mask-type:luminance" maskUnits="userSpaceOnUse" x="0" y="0" width="18" height="18">
<path d="M17.28 0.382324H0V17.6623H17.28V0.382324Z" fill="white"/>
</mask>
<g mask="url(#mask0_397_1163)">
<path fill-rule="evenodd" clip-rule="evenodd" d="M15.5134 4.06218C15.7159 4.26471 15.8297 4.53936 15.8297 4.82574C15.8297 5.11212 15.7159 5.38677 15.5134 5.58929L7.41847 13.6843C7.31148 13.7913 7.18451 13.8761 7.04472 13.934C6.90494 13.992 6.75511 14.0218 6.60381 14.0218C6.45251 14.0218 6.30268 13.992 6.1629 13.934C6.02311 13.8761 5.8961 13.7913 5.78913 13.6843L1.76721 9.66306C1.66406 9.56341 1.58179 9.44425 1.52518 9.31249C1.46858 9.18073 1.43879 9.03904 1.43754 8.89561C1.4363 8.75219 1.46362 8.60999 1.51792 8.47729C1.57223 8.34453 1.65242 8.22393 1.75382 8.12255C1.85523 8.02117 1.97581 7.94097 2.10854 7.88668C2.24127 7.83232 2.38348 7.80503 2.52689 7.80625C2.67029 7.80748 2.81201 7.83729 2.94377 7.89388C3.07553 7.95054 3.19471 8.03277 3.29433 8.13594L6.60345 11.4451L13.9856 4.06218C14.0859 3.96181 14.205 3.8822 14.3361 3.82789C14.4671 3.77357 14.6077 3.74561 14.7495 3.74561C14.8914 3.74561 15.0319 3.77357 15.163 3.82789C15.294 3.8822 15.4131 3.96181 15.5134 4.06218Z" fill="#4DC591"/>
</g>
</svg>
