<svg xmlns="http://www.w3.org/2000/svg" width="32" height="33" viewBox="0 0 32 33" fill="none">
    <path d="M16 32.8601C24.8366 32.8601 32 25.6967 32 16.8601C32 8.02355 24.8366 0.860107 16 0.860107C7.16344 0.860107 0 8.02355 0 16.8601C0 25.6967 7.16344 32.8601 16 32.8601Z" fill="#ABCC59"/>
    <path d="M10.7121 24.1933V22.163L16.0985 16.8827C16.6137 16.3625 17.0429 15.9004 17.3863 15.4963C17.7298 15.0923 17.9874 14.7009 18.1591 14.3221C18.3308 13.9433 18.4167 13.5393 18.4167 13.11C18.4167 12.6201 18.3055 12.2009 18.0833 11.8524C17.8611 11.4989 17.5555 11.2261 17.1667 11.0343C16.7778 10.8423 16.3359 10.7463 15.8409 10.7463C15.3308 10.7463 14.8839 10.8524 14.5 11.0645C14.1161 11.2716 13.8182 11.5671 13.6061 11.9509C13.399 12.3347 13.2955 12.7918 13.2955 13.3221H10.6212C10.6212 12.3373 10.8459 11.4812 11.2955 10.7539C11.7449 10.0267 12.3637 9.46353 13.1515 9.06453C13.9445 8.66553 14.8535 8.46606 15.8788 8.46606C16.9192 8.46606 17.8333 8.66053 18.6212 9.0494C19.4091 9.43826 20.0202 9.97113 20.4545 10.6479C20.8939 11.3247 21.1137 12.0974 21.1137 12.9661C21.1137 13.5469 21.0025 14.1176 20.7803 14.6782C20.5581 15.2388 20.1667 15.86 19.6061 16.5418C19.0505 17.2237 18.2702 18.0494 17.2651 19.0191L14.5909 21.7388V21.8449H21.3485V24.1933H10.7121Z" fill="#262626"/>
</svg>