<svg xmlns="http://www.w3.org/2000/svg" width="32" height="33" viewBox="0 0 32 33" fill="none">
    <path d="M16 32.3C24.8366 32.3 32 25.1366 32 16.3C32 7.46349 24.8366 0.300049 16 0.300049C7.16344 0.300049 0 7.46349 0 16.3C0 25.1366 7.16344 32.3 16 32.3Z" fill="#ABCC59"/>
    <path d="M16.2803 23.8454C15.1894 23.8454 14.2197 23.6585 13.3712 23.2848C12.5278 22.9111 11.8611 22.3909 11.3712 21.7242C10.8813 21.0575 10.6212 20.2873 10.5909 19.4136H13.4394C13.4647 19.8327 13.6035 20.1989 13.8561 20.5121C14.1086 20.8201 14.4445 21.0601 14.8637 21.2317C15.2828 21.4035 15.7525 21.4893 16.2727 21.4893C16.8283 21.4893 17.3207 21.3934 17.75 21.2015C18.1793 21.0045 18.5151 20.7317 18.7576 20.3833C19 20.0348 19.1187 19.6333 19.1137 19.1787C19.1187 18.709 18.9975 18.2949 18.75 17.9363C18.5025 17.5777 18.1439 17.2974 17.6743 17.0954C17.2096 16.8934 16.649 16.7923 15.9924 16.7923H14.6212V14.6257H15.9924C16.5328 14.6257 17.0051 14.5323 17.4091 14.3454C17.8182 14.1585 18.1389 13.8959 18.3712 13.5575C18.6035 13.2141 18.7172 12.8176 18.7121 12.3681C18.7172 11.9287 18.6187 11.5474 18.4167 11.2242C18.2197 10.8959 17.9394 10.6409 17.5757 10.459C17.2172 10.2772 16.7955 10.1863 16.3106 10.1863C15.8359 10.1863 15.3965 10.2721 14.9924 10.4439C14.5884 10.6156 14.2626 10.8605 14.0151 11.1787C13.7677 11.4919 13.6363 11.8656 13.6212 12.2999H10.9167C10.9369 11.4313 11.1869 10.6686 11.6667 10.0121C12.1515 9.35047 12.798 8.83527 13.6061 8.46661C14.4141 8.09287 15.3207 7.90601 16.3257 7.90601C17.3611 7.90601 18.2601 8.10047 19.0227 8.48934C19.7904 8.87314 20.3839 9.39087 20.803 10.0423C21.2222 10.6939 21.4318 11.4136 21.4318 12.2015C21.4369 13.0752 21.1793 13.8075 20.6591 14.3984C20.1439 14.9893 19.4672 15.3757 18.6288 15.5575V15.6787C19.7197 15.8303 20.5555 16.2343 21.1363 16.8909C21.7222 17.5423 22.0126 18.3529 22.0076 19.3227C22.0076 20.1913 21.7601 20.9691 21.2651 21.656C20.7753 22.3378 20.0985 22.8731 19.2349 23.2621C18.3763 23.6509 17.3914 23.8454 16.2803 23.8454Z" fill="#262626"/>
</svg>