<svg width="26" height="26" viewBox="0 0 26 26" fill="none" xmlns="http://www.w3.org/2000/svg">
<path d="M12.5328 5.25935C12.8573 5.57925 12.8877 6.08472 12.6217 6.43938L12.5419 6.53211L7.05098 12.1003H21.101C21.598 12.1003 22.001 12.5032 22.001 13.0003C22.001 13.4591 21.6577 13.8377 21.2139 13.8933L21.101 13.9003H7.05098L12.5419 19.4684C12.8617 19.7928 12.885 20.2987 12.6141 20.6496L12.5328 20.7412C12.2084 21.061 11.7025 21.0843 11.3517 20.8133L11.2601 20.7321L4.26009 13.6321C3.94339 13.3109 3.91701 12.8112 4.18091 12.4602L4.26009 12.3684L11.2601 5.26838C11.6091 4.91442 12.1789 4.91038 12.5328 5.25935Z" fill="#262626"/>
</svg>
