<svg width="32" height="32" viewBox="0 0 32 32" fill="none" xmlns="http://www.w3.org/2000/svg">
<path d="M32 16C32 7.16344 24.8366 0 16 0C7.16344 0 0 7.16344 0 16C0 24.8366 7.16344 32 16 32C24.8366 32 32 24.8366 32 16Z" fill="#E3E3E3"/>
<g opacity="0.8">
<path d="M15.5 7.75C13.6773 7.75207 11.9298 8.47706 10.6409 9.76592C9.35206 11.0548 8.62707 12.8023 8.625 14.625C8.625 16.4555 9.35937 18.4859 10.5883 20.0547C11.532 21.2586 12.6586 22.0859 13.8625 22.4836L13.0508 24.3789C13.0101 24.4739 12.9936 24.5776 13.0028 24.6806C13.012 24.7836 13.0466 24.8827 13.1035 24.969C13.1604 25.0553 13.2378 25.1262 13.3288 25.1752C13.4198 25.2243 13.5216 25.25 13.625 25.25H17.375C17.4784 25.25 17.5802 25.2243 17.6712 25.1752C17.7622 25.1262 17.8396 25.0553 17.8965 24.969C17.9534 24.8827 17.988 24.7836 17.9972 24.6806C18.0064 24.5776 17.9899 24.4739 17.9492 24.3789L17.1406 22.4836C18.3438 22.0875 19.4711 21.2586 20.4148 20.0547C21.6406 18.4859 22.375 16.4555 22.375 14.625C22.3729 12.8023 21.6479 11.0548 20.3591 9.76592C19.0702 8.47706 17.3227 7.75207 15.5 7.75ZM19.3531 14.6164C19.319 14.6219 19.2845 14.6248 19.25 14.625C19.1023 14.6248 18.9594 14.5723 18.8467 14.4767C18.734 14.3812 18.6588 14.2488 18.6344 14.1031C18.5188 13.4528 18.2064 12.8536 17.7393 12.3865C17.2722 11.9194 16.673 11.607 16.0227 11.4914C15.9411 11.4785 15.8629 11.4496 15.7926 11.4064C15.7223 11.3631 15.6612 11.3064 15.6129 11.2394C15.5647 11.1724 15.5302 11.0965 15.5114 11.0161C15.4927 10.9357 15.49 10.8523 15.5036 10.7709C15.5173 10.6895 15.5469 10.6116 15.5908 10.5416C15.6347 10.4717 15.692 10.4112 15.7595 10.3636C15.8269 10.3159 15.9031 10.2821 15.9837 10.2641C16.0643 10.2461 16.1476 10.2442 16.2289 10.2586C17.135 10.4194 17.9698 10.8545 18.6205 11.5052C19.2712 12.1559 19.7064 12.9908 19.8672 13.8969C19.8807 13.9779 19.8782 14.0608 19.8596 14.1408C19.8411 14.2208 19.807 14.2964 19.7593 14.3632C19.7115 14.43 19.6511 14.4868 19.5814 14.5302C19.5117 14.5737 19.4341 14.603 19.3531 14.6164Z" fill="#262626"/>
</g>
</svg>
