<svg width="32" height="32" viewBox="0 0 32 32" fill="none" xmlns="http://www.w3.org/2000/svg">
<path d="M32 16C32 7.16344 24.8366 0 16 0C7.16344 0 0 7.16344 0 16C0 24.8366 7.16344 32 16 32C24.8366 32 32 24.8366 32 16Z" fill="#E3E3E3"/>
<g opacity="0.8">
<path d="M9.625 12.25C9.625 10.5931 10.9681 9.25 12.625 9.25C14.2819 9.25 15.625 10.5931 15.625 12.25C15.625 13.9069 14.2819 15.25 12.625 15.25C10.9681 15.25 9.625 13.9069 9.625 12.25Z" fill="#262626"/>
<path d="M16.375 12.25C16.375 10.5931 17.7182 9.25 19.375 9.25C21.0318 9.25 22.375 10.5931 22.375 12.25C22.375 13.9069 21.0318 15.25 19.375 15.25C17.7182 15.25 16.375 13.9069 16.375 12.25Z" fill="#262626"/>
<path d="M12.625 16C15.228 16 17.6049 18.1426 17.8731 21.9473C17.8878 22.1548 17.8155 22.3591 17.6736 22.5114C17.5318 22.6635 17.3331 22.75 17.125 22.75H8.125C7.91693 22.75 7.71821 22.6635 7.57634 22.5114C7.43448 22.3591 7.36223 22.1548 7.37686 21.9473C7.64505 18.1426 10.022 16 12.625 16Z" fill="#262626"/>
<path d="M23.8746 22.75H19.2459C19.3479 22.4619 19.391 22.1531 19.3691 21.8417C19.2138 19.6398 18.4199 17.8076 17.2217 16.5243C17.8903 16.1786 18.6231 16 19.3746 16C21.9777 16 24.3546 18.1426 24.6228 21.9473C24.6534 22.3812 24.3096 22.75 23.8746 22.75Z" fill="#262626"/>
</g>
</svg>
