<svg width="32" height="32" viewBox="0 0 32 32" fill="none" xmlns="http://www.w3.org/2000/svg">
<path d="M32 16C32 7.16344 24.8366 0 16 0C7.16344 0 0 7.16344 0 16C0 24.8366 7.16344 32 16 32C24.8366 32 32 24.8366 32 16Z" fill="#E3E3E3"/>
<g opacity="0.8">
<path d="M13.4993 15.792C13.2231 15.792 12.9581 15.9017 12.7628 16.0971C12.5674 16.2924 12.4577 16.5574 12.4577 16.8337C12.4577 17.1099 12.5674 17.3749 12.7628 17.5702C12.9581 17.7656 13.2231 17.8753 13.4993 17.8753C13.6361 17.8753 13.7716 17.8484 13.898 17.796C14.0243 17.7437 14.1392 17.667 14.2359 17.5702C14.3326 17.4735 14.4094 17.3587 14.4617 17.2323C14.5141 17.1059 14.541 16.9705 14.541 16.8337C14.541 16.6969 14.5141 16.5614 14.4617 16.435C14.4094 16.3086 14.3326 16.1938 14.2359 16.0971C14.1392 16.0004 14.0243 15.9236 13.898 15.8713C13.7716 15.8189 13.6361 15.792 13.4993 15.792ZM18.4993 15.792C18.2231 15.792 17.9581 15.9017 17.7628 16.0971C17.5674 16.2924 17.4577 16.5574 17.4577 16.8337C17.4577 17.1099 17.5674 17.3749 17.7628 17.5702C17.9581 17.7656 18.2231 17.8753 18.4993 17.8753C18.7756 17.8753 19.0406 17.7656 19.2359 17.5702C19.4313 17.3749 19.541 17.1099 19.541 16.8337C19.541 16.5574 19.4313 16.2924 19.2359 16.0971C19.0406 15.9017 18.7756 15.792 18.4993 15.792ZM15.9993 7.66699C14.905 7.66699 13.8214 7.88254 12.8103 8.30133C11.7993 8.72012 10.8806 9.33395 10.1068 10.1078C8.544 11.6706 7.66602 13.7902 7.66602 16.0003C7.66602 18.2105 8.544 20.3301 10.1068 21.8929C10.8806 22.6667 11.7993 23.2805 12.8103 23.6993C13.8214 24.1181 14.905 24.3337 15.9993 24.3337C18.2095 24.3337 20.3291 23.4557 21.8919 21.8929C23.4547 20.3301 24.3327 18.2105 24.3327 16.0003C24.3327 14.906 24.1171 13.8223 23.6983 12.8113C23.2795 11.8003 22.6657 10.8816 21.8919 10.1078C21.1181 9.33395 20.1994 8.72012 19.1884 8.30133C18.1773 7.88254 17.0937 7.66699 15.9993 7.66699ZM15.9993 22.667C12.3243 22.667 9.33269 19.6753 9.33269 16.0003C9.33269 15.7587 9.33269 15.517 9.37436 15.2837C11.341 14.4087 12.8993 12.8003 13.716 10.8087C14.6684 12.161 16.0028 13.1983 17.5483 13.7876C19.0937 14.377 20.78 14.4917 22.391 14.117C22.566 14.7087 22.666 15.342 22.666 16.0003C22.666 19.6753 19.6743 22.667 15.9993 22.667Z" fill="#262626"/>
</g>
</svg>
