<svg width="32" height="32" viewBox="0 0 32 32" fill="none" xmlns="http://www.w3.org/2000/svg">
<path d="M32 16C32 7.16344 24.8366 0 16 0C7.16344 0 0 7.16344 0 16C0 24.8366 7.16344 32 16 32C24.8366 32 32 24.8366 32 16Z" fill="#E3E3E3"/>
<g opacity="0.8">
<path fill-rule="evenodd" clip-rule="evenodd" d="M8.05545 11.9753C7.96028 11.7847 7.91542 11.5729 7.92512 11.36C7.93483 11.1472 7.99879 10.9403 8.11092 10.7592C8.22305 10.578 8.37964 10.4285 8.56581 10.3248C8.75197 10.2212 8.96154 10.1669 9.17462 10.167H19.9704C20.4346 10.167 20.8897 10.2963 21.2846 10.5403C21.6795 10.7843 21.9986 11.1335 22.2063 11.5487L23.8729 14.882C24.0466 15.2292 24.137 15.6121 24.137 16.0003C24.137 16.3886 24.0466 16.7714 23.8729 17.1187L22.2063 20.452C21.9986 20.8673 21.6793 21.2165 21.2842 21.4606C20.8892 21.7046 20.434 21.8338 19.9696 21.8337H9.17378C8.96078 21.8337 8.75131 21.7792 8.56526 21.6755C8.37921 21.5718 8.22274 21.4223 8.1107 21.2411C7.99867 21.06 7.93479 20.8532 7.92512 20.6404C7.91545 20.4276 7.96031 20.2159 8.05545 20.0253L9.88128 16.3728C9.93908 16.2572 9.96917 16.1296 9.96917 16.0003C9.96917 15.871 9.93908 15.7435 9.88128 15.6278L8.05545 11.9753Z" fill="#262626"/>
</g>
</svg>
