<svg width="32" height="32" viewBox="0 0 32 32" fill="none" xmlns="http://www.w3.org/2000/svg">
<g opacity="0.8">
<path d="M24.4004 21.053V21.7996C24.4004 22.6796 23.6804 23.3996 22.8004 23.3996H10.0004C9.12039 23.3996 8.40039 22.6796 8.40039 21.7996V21.053C8.40039 19.1063 10.6671 17.933 12.8004 16.9996C12.8804 16.973 12.9337 16.9463 13.0137 16.893C13.1737 16.813 13.3604 16.813 13.5204 16.9196C14.3737 17.4796 15.3604 17.7996 16.4004 17.7996C17.4404 17.7996 18.4271 17.4796 19.2804 16.9463C19.4404 16.8396 19.6271 16.8396 19.7871 16.9196C19.8671 16.9463 19.9204 16.973 20.0004 17.0263C22.1337 17.933 24.4004 19.1063 24.4004 21.053Z" fill="#262626"/>
<path d="M16.4011 16.1999C18.5955 16.1999 20.3744 14.23 20.3744 11.7999C20.3744 9.36985 18.5955 7.3999 16.4011 7.3999C14.2067 7.3999 12.4277 9.36985 12.4277 11.7999C12.4277 14.23 14.2067 16.1999 16.4011 16.1999Z" fill="#262626"/>
</g>
</svg>
