<svg width="32" height="32" viewBox="0 0 32 32" fill="none" xmlns="http://www.w3.org/2000/svg">
<path d="M32 16C32 7.16344 24.8366 0 16 0C7.16344 0 0 7.16344 0 16C0 24.8366 7.16344 32 16 32C24.8366 32 32 24.8366 32 16Z" fill="#E3E3E3"/>
<g opacity="0.8">
<path fill-rule="evenodd" clip-rule="evenodd" d="M16.0005 11.6175C13.922 11.6175 11.9286 12.4432 10.4588 13.9129C8.98906 15.3827 8.16337 17.3761 8.16337 19.4546C8.16337 19.7388 8.05048 20.0113 7.84955 20.2122C7.64862 20.4132 7.3761 20.526 7.09194 20.526C6.80778 20.526 6.53526 20.4132 6.33432 20.2122C6.13339 20.0113 6.02051 19.7388 6.02051 19.4546C6.02051 16.8077 7.07197 14.2693 8.94358 12.3977C10.8152 10.5261 13.3537 9.47461 16.0005 9.47461C18.6474 9.47461 21.1858 10.5261 23.0574 12.3977C24.9291 14.2693 25.9805 16.8077 25.9805 19.4546C25.9805 19.7388 25.8676 20.0113 25.6667 20.2122C25.4658 20.4132 25.1932 20.526 24.9091 20.526C24.6249 20.526 24.3524 20.4132 24.1515 20.2122C23.9505 20.0113 23.8377 19.7388 23.8377 19.4546C23.8377 18.4254 23.6349 17.4063 23.2411 16.4555C22.8472 15.5046 22.27 14.6407 21.5422 13.9129C20.8145 13.1852 19.9505 12.6079 18.9997 12.214C18.0488 11.8202 17.0297 11.6175 16.0005 11.6175ZM16.0005 15.1289C14.8533 15.1289 13.753 15.5846 12.9418 16.3959C12.1305 17.2071 11.6748 18.3074 11.6748 19.4546C11.6748 19.7388 11.5619 20.0113 11.361 20.2122C11.1601 20.4132 10.8875 20.526 10.6034 20.526C10.3192 20.526 10.0467 20.4132 9.84575 20.2122C9.64482 20.0113 9.53194 19.7388 9.53194 19.4546C9.53194 17.739 10.2135 16.0937 11.4265 14.8806C12.6396 13.6675 14.2849 12.986 16.0005 12.986C17.7161 12.986 19.3614 13.6675 20.5745 14.8806C21.7876 16.0937 22.4691 17.739 22.4691 19.4546C22.4691 19.7388 22.3562 20.0113 22.1553 20.2122C21.9543 20.4132 21.6818 20.526 21.3977 20.526C21.1135 20.526 20.841 20.4132 20.64 20.2122C20.4391 20.0113 20.3262 19.7388 20.3262 19.4546C20.3262 18.8865 20.2143 18.324 19.997 17.7992C19.7796 17.2744 19.4609 16.7975 19.0593 16.3959C18.6576 15.9942 18.1807 15.6756 17.6559 15.4582C17.1311 15.2408 16.5686 15.1289 16.0005 15.1289ZM15.4248 18.8789C15.5387 18.765 15.6838 18.6875 15.8417 18.6561C15.9996 18.6247 16.1633 18.6408 16.3121 18.7024C16.4609 18.7641 16.588 18.8684 16.6775 19.0023C16.767 19.1362 16.8148 19.2936 16.8148 19.4546C16.8148 19.7388 16.9277 20.0113 17.1286 20.2122C17.3296 20.4132 17.6021 20.526 17.8862 20.526C18.1704 20.526 18.4429 20.4132 18.6438 20.2122C18.8448 20.0113 18.9577 19.7388 18.9577 19.4546C18.9577 18.6703 18.6461 17.9182 18.0915 17.3636C17.537 16.809 16.7848 16.4975 16.0005 16.4975C15.2162 16.4975 14.4641 16.809 13.9095 17.3636C13.3549 17.9182 13.0434 18.6703 13.0434 19.4546C13.0434 19.7388 13.1563 20.0113 13.3572 20.2122C13.5581 20.4132 13.8306 20.526 14.1148 20.526C14.399 20.526 14.6715 20.4132 14.8724 20.2122C15.0734 20.0113 15.1862 19.7388 15.1862 19.4546C15.1863 19.2387 15.2721 19.0316 15.4248 18.8789Z" fill="#262626"/>
</g>
</svg>
