<svg width="32" height="32" viewBox="0 0 32 32" fill="none" xmlns="http://www.w3.org/2000/svg">
<path d="M32 16C32 7.16344 24.8366 0 16 0C7.16344 0 0 7.16344 0 16C0 24.8366 7.16344 32 16 32C24.8366 32 32 24.8366 32 16Z" fill="#E3E3E3"/>
<g opacity="0.8">
<path d="M17.4577 16.8337C17.4577 16.5574 17.5674 16.2924 17.7628 16.0971C17.9581 15.9017 18.2231 15.792 18.4993 15.792C18.7756 15.792 19.0406 15.9017 19.2359 16.0971C19.4313 16.2924 19.541 16.5574 19.541 16.8337C19.541 17.1099 19.4313 17.3749 19.2359 17.5702C19.0406 17.7656 18.7756 17.8753 18.4993 17.8753C18.2231 17.8753 17.9581 17.7656 17.7628 17.5702C17.5674 17.3749 17.4577 17.1099 17.4577 16.8337ZM24.3327 16.0003V24.3337H7.66602V16.0003C7.66602 11.417 11.416 7.66699 15.9993 7.66699C20.5827 7.66699 24.3327 11.417 24.3327 16.0003ZM9.33269 16.0003C9.33269 19.6753 12.3243 22.667 15.9993 22.667C19.6743 22.667 22.666 19.6753 22.666 16.0003C22.666 15.342 22.566 14.7087 22.391 14.117C20.78 14.4917 19.0937 14.377 17.5483 13.7876C16.0028 13.1983 14.6684 12.161 13.716 10.8087C12.8993 12.8003 11.341 14.4087 9.37436 15.2837C9.33269 15.517 9.33269 15.7587 9.33269 16.0003ZM13.4993 17.8753C13.7756 17.8753 14.0406 17.7656 14.2359 17.5702C14.4313 17.3749 14.541 17.1099 14.541 16.8337C14.541 16.5574 14.4313 16.2924 14.2359 16.0971C14.0406 15.9017 13.7756 15.792 13.4993 15.792C13.2231 15.792 12.9581 15.9017 12.7628 16.0971C12.5674 16.2924 12.4577 16.5574 12.4577 16.8337C12.4577 17.1099 12.5674 17.3749 12.7628 17.5702C12.9581 17.7656 13.2231 17.8753 13.4993 17.8753Z" fill="#262626"/>
</g>
</svg>
