<svg width="22" height="22" viewBox="0 0 22 22" fill="none" xmlns="http://www.w3.org/2000/svg">
<mask id="mask0_412_2737" style="mask-type:luminance" maskUnits="userSpaceOnUse" x="0" y="0" width="22" height="22">
<path d="M22 0H0V22H22V0Z" fill="white"/>
</mask>
<g mask="url(#mask0_412_2737)">
<path d="M11.9163 6.41659H10.083V10.0832H6.41634V11.9166H10.083V15.5832H11.9163V11.9166H15.583V10.0832H11.9163V6.41659ZM10.9997 1.83325C5.93967 1.83325 1.83301 5.93993 1.83301 10.9999C1.83301 16.0599 5.93967 20.1666 10.9997 20.1666C16.0597 20.1666 20.1663 16.0599 20.1663 10.9999C20.1663 5.93993 16.0597 1.83325 10.9997 1.83325ZM10.9997 18.3332C6.95717 18.3332 3.66634 15.0424 3.66634 10.9999C3.66634 6.95743 6.95717 3.66659 10.9997 3.66659C15.0422 3.66659 18.333 6.95743 18.333 10.9999C18.333 15.0424 15.0422 18.3332 10.9997 18.3332Z" fill="#72767E"/>
</g>
</svg>
